<?xml version="1.0" standalone="no"?>
<svg viewBox="0 0 200 200" xmlns="http://www.w3.org/2000/svg">
  <path fill="#6B8881" d="M39.2,-69.3C46.7,-63.5,46,-44.8,47,-31.1C47.9,-17.5,50.5,-8.7,54.5,2.3C58.5,13.3,63.9,26.7,61.1,37.1C58.3,47.5,47.2,55.1,35.6,64.2C24.1,73.4,12,84.2,-2.2,88C-16.4,91.8,-32.8,88.6,-46.2,80.4C-59.6,72.3,-70,59.3,-76.8,45.1C-83.6,30.9,-87,15.5,-81.4,3.2C-75.8,-9,-61.4,-18,-51.9,-27.7C-42.4,-37.3,-37.9,-47.6,-30.1,-53.2C-22.3,-58.9,-11.1,-59.9,2.3,-63.9C15.8,-68,31.6,-75,39.2,-69.3Z" transform="translate(100 100)" />
</svg>
