<?xml version="1.0" standalone="no"?>
<svg viewBox="0 0 200 200" xmlns="http://www.w3.org/2000/svg">
  <path fill="#6B8881" d="M30.2,-52.3C42.5,-45.2,58,-43.8,68.5,-36.1C78.9,-28.3,84.4,-14.1,85.5,0.7C86.7,15.5,83.6,31,75.2,42.4C66.9,53.9,53.3,61.4,39.9,69.4C26.5,77.4,13.3,85.9,-0.8,87.2C-14.8,88.6,-29.6,82.8,-42.2,74.3C-54.7,65.8,-65,54.6,-70.7,41.8C-76.4,28.9,-77.6,14.5,-77.6,0C-77.6,-14.4,-76.3,-28.9,-68.9,-38.8C-61.5,-48.7,-47.9,-54.1,-35.4,-61C-22.9,-67.9,-11.5,-76.3,-1.2,-74.2C9,-72,17.9,-59.3,30.2,-52.3Z" transform="translate(100 100)" />
</svg>
