<?xml version="1.0" standalone="no"?>
<svg viewBox="0 0 200 200" xmlns="http://www.w3.org/2000/svg">
  <path fill="#6B8881" d="M36.8,-63.3C47.7,-57.3,56.8,-47.7,59.5,-36.5C62.2,-25.3,58.5,-12.7,58.4,0C58.3,12.6,61.9,25.2,59.9,37.6C57.9,50,50.5,62.3,39.6,66.1C28.7,69.9,14.3,65.2,-0.4,65.9C-15.1,66.6,-30.3,72.6,-39.6,67.9C-48.8,63.2,-52.2,47.6,-60.4,34.5C-68.5,21.4,-81.3,10.7,-84.8,-2C-88.3,-14.7,-82.5,-29.5,-72,-38.6C-61.5,-47.6,-46.5,-51,-33.7,-55.9C-20.9,-60.9,-10.5,-67.4,1.2,-69.5C12.9,-71.6,25.8,-69.3,36.8,-63.3Z" transform="translate(100 100)" />
</svg>
