<?xml version="1.0" standalone="no"?>
<svg viewBox="0 0 200 200" xmlns="http://www.w3.org/2000/svg">
  <path fill="#6B8881" d="M42.5,-72.2C55.9,-65.9,68.2,-56.2,70.3,-43.6C72.4,-31,64.2,-15.5,63.1,-0.6C62,14.2,67.9,28.4,66.7,42.4C65.4,56.5,57,70.3,44.7,72.1C32.4,73.9,16.2,63.6,3.2,58.1C-9.8,52.6,-19.6,51.8,-32.3,50.2C-44.9,48.6,-60.4,46.2,-70.4,37.7C-80.4,29.2,-84.9,14.6,-80.9,2.3C-77,-10,-64.5,-20,-56.8,-32.6C-49.2,-45.2,-46.4,-60.4,-37.8,-69.5C-29.1,-78.6,-14.5,-81.6,0,-81.6C14.5,-81.6,29.1,-78.6,42.5,-72.2Z" transform="translate(100 100)" />
</svg>
