<?xml version="1.0" standalone="no"?>
<svg viewBox="0 0 200 200" xmlns="http://www.w3.org/2000/svg">
  <path fill="#6B8881" d="M45.8,-74.1C58.4,-72.1,66.9,-57.8,74.3,-43.4C81.8,-29,88.2,-14.5,83.5,-2.7C78.8,9.1,63,18.2,54,29.9C45,41.7,42.9,56.2,35.1,67.6C27.2,79,13.6,87.3,0.4,86.6C-12.8,85.9,-25.7,76.3,-35.8,66.3C-46,56.2,-53.5,45.7,-61.9,34.6C-70.4,23.4,-79.9,11.7,-80.3,-0.3C-80.8,-12.2,-72.2,-24.5,-64.1,-36.4C-56.1,-48.3,-48.7,-59.8,-38.1,-63C-27.5,-66.1,-13.7,-60.9,1.4,-63.4C16.6,-65.9,33.3,-76.2,45.8,-74.1Z" transform="translate(100 100)" />
</svg>
