<?xml version="1.0" standalone="no"?>
<svg viewBox="0 0 200 200" xmlns="http://www.w3.org/2000/svg">
  <path fill="#6B8881" d="M31.4,-52.4C45.4,-46.2,64.7,-47.4,74.7,-39.9C84.6,-32.4,85.2,-16.2,80,-3C74.9,10.2,64.1,20.5,54.8,29.3C45.6,38,38,45.3,29.1,50.8C20.3,56.2,10.1,59.8,-1.4,62.2C-12.9,64.6,-25.7,65.7,-35.2,60.6C-44.6,55.5,-50.6,44.1,-53.3,32.9C-55.9,21.8,-55.3,10.9,-57.6,-1.3C-60,-13.6,-65.3,-27.2,-64.4,-41.4C-63.4,-55.6,-56.3,-70.4,-44.6,-77.9C-32.8,-85.4,-16.4,-85.6,-3.9,-78.9C8.7,-72.2,17.3,-58.6,31.4,-52.4Z" transform="translate(100 100)" />
</svg>
