<svg xmlns="http://www.w3.org/2000/svg" viewBox="0 0 500 500"><g id="freepik--background-complete--inject-2"><path d="M368.6,24.7,339.35,39.37a5.93,5.93,0,0,0-3.61,5.46V58.51a63.49,63.49,0,0,0,10.43,35c5.27,8,12.26,18.29,23.89,24.16h5.24c12.95-4,22.61-14.47,28.51-23.47a63.51,63.51,0,0,0,10.43-35V44.83a5.94,5.94,0,0,0-3.6-5.46l-33.32-14.2C375.83,24.54,370.08,24.07,368.6,24.7Z" style="fill:#e0e0e0"></path><path d="M367.42,25.17,334.1,39.37a5.93,5.93,0,0,0-3.61,5.46V58.51a64.06,64.06,0,0,0,39.57,59.19c12.94-4,22.6-14.47,28.51-23.47A63.59,63.59,0,0,0,409,59.2V44.83a5.93,5.93,0,0,0-3.61-5.46l-33.32-14.2A6,6,0,0,0,367.42,25.17Z" style="fill:#f5f5f5"></path><path d="M408.89,55.49a2.64,2.64,0,0,1,.06.63c0,.47.05,1.07.08,1.81s.08,1.75,0,2.87,0,2.4-.18,3.8-.23,3-.52,4.59c-.13.82-.23,1.67-.4,2.54s-.38,1.75-.57,2.66a65.08,65.08,0,0,1-3.85,11.51,68.72,68.72,0,0,1-6,10.56c-1.11,1.5-2.14,3-3.24,4.19-.54.63-1,1.27-1.55,1.83l-1.52,1.61c-.95,1-1.92,1.88-2.73,2.66s-1.55,1.39-2.16,1.88L385,109.77a2.78,2.78,0,0,1-.51.37,2.91,2.91,0,0,1,.45-.45l1.35-1.21c.59-.51,1.31-1.15,2.09-2s1.74-1.63,2.66-2.69l1.49-1.63c.51-.56,1-1.2,1.52-1.83,1.08-1.25,2.08-2.7,3.17-4.2a70,70,0,0,0,5.9-10.49,67.58,67.58,0,0,0,3.85-11.41l.59-2.64c.18-.86.29-1.71.43-2.52.3-1.62.42-3.15.57-4.55s.17-2.66.25-3.78.07-2.07.07-2.86,0-1.34,0-1.81A2.83,2.83,0,0,1,408.89,55.49Z" style="fill:#e0e0e0"></path><polygon points="367.26 85.23 348.15 70.04 353.45 63.37 366.27 73.56 384.99 52.61 391.34 58.29 367.26 85.23" style="fill:#fff"></polygon><path d="M457.54,99.56h-3.62V79.87a8.4,8.4,0,0,0-16.8,0V99.56H433.5V79.87a12,12,0,0,1,24,0Z" style="fill:#ebebeb"></path><rect x="429.32" y="86.2" width="32.39" height="25.39" rx="3.08" style="fill:#ebebeb"></rect><path d="M448,99.55a3.48,3.48,0,0,0,1-2.48,3.57,3.57,0,1,0-4.54,3.41l-.76,3.38h3.39l-.68-3.38a3.54,3.54,0,0,0,1.56-.93" style="fill:#fafafa"></path><path d="M46.43,386.94a30,30,0,0,0-12.83-4.41c-2.1-.22-4.39-.16-6.07,1.11a1.25,1.25,0,0,0-.63,1.11,1.39,1.39,0,0,0,.6.76,18.33,18.33,0,0,0,18.93,1.43" style="fill:#e0e0e0"></path><path d="M46.1,386.58a63.25,63.25,0,0,1-8.29-7.29,20.91,20.91,0,0,1-5.19-9.61,3.87,3.87,0,0,1,.41-3.22c6.6,5.16,11.79,11.84,13.07,20.12" style="fill:#e0e0e0"></path><path d="M46.36,386.89A30.13,30.13,0,0,1,46.52,376a14.74,14.74,0,0,1,5.79-9c1.14,2.67.65,5.75-.15,8.53a41.18,41.18,0,0,1-5.75,12.1" style="fill:#e0e0e0"></path><path d="M52.84,398.5a19,19,0,0,0-10.29,5.21,19.45,19.45,0,0,0-5.89,10.1c3.86-.24,7.13-3,9.5-6s4-6.39,6.63-9.24" style="fill:#e0e0e0"></path><path d="M54.25,400.35a25.36,25.36,0,0,1,2.93-24c2.24,8,1.41,17-2.93,24" style="fill:#e0e0e0"></path><path d="M62.8,410.54a18.39,18.39,0,0,0-17.55,10.11c-.21.43-.41,1-.11,1.37a1.28,1.28,0,0,0,1.16.34c3.46-.22,6.52-2.3,9.05-4.67s4.74-5.11,7.53-7.16" style="fill:#e0e0e0"></path><path d="M62.53,410a32.69,32.69,0,0,1-.33-18.26c.65-2.35,1.73-4.82,3.9-5.92a.76.76,0,0,1,.6-.11.77.77,0,0,1,.37.44,10.89,10.89,0,0,1,.92,5.23,32.93,32.93,0,0,1-.82,5.31c-.68,3.24-1,6.72-2.83,9.52a20,20,0,0,0-1.13,2.09c-.33.71-.33,1-.64,1.52" style="fill:#e0e0e0"></path><path d="M85.18,413.36A23.5,23.5,0,0,1,89.31,394c.29-.39.68-.8,1.17-.76.74.07.93,1.06.9,1.8a35,35,0,0,1-6.2,18.31" style="fill:#e0e0e0"></path><path d="M87.22,414.76a28.14,28.14,0,0,0,23.11-4.7,18.67,18.67,0,0,0-12.51-1.53c-4.18,1-8,2.82-10.6,6.23" style="fill:#e0e0e0"></path><path d="M88.94,410.51c4.35-7.08,12.68-11.7,21-12.13-1,3.38-3.73,6-6.86,7.59A38.19,38.19,0,0,1,93,408.91c-1.34.26-3.18.55-4,1.6" style="fill:#e0e0e0"></path><path d="M85.61,389.88a60.25,60.25,0,0,0,2.68-12.28,20.39,20.39,0,0,0-2.44-12.14c-4.06,7.85-4.47,17-.36,24.85" style="fill:#e0e0e0"></path><path d="M99.27,383c4.75-8.62,14.43-15.51,24.22-16.48-3.78,9.41-14.08,16.68-24.22,16.48" style="fill:#e0e0e0"></path><path d="M96.29,384.67c7.07,1.08,13.1,5.6,19.71,8.34a8.9,8.9,0,0,0,4.46.85,3.49,3.49,0,0,0,2.19-6.17,9.6,9.6,0,0,0-3.24-2c-7.2-3-14.93-3.07-22.51-1.25" style="fill:#e0e0e0"></path><path d="M92.19,389.63c1.6.46,2.15,1.29,3.42,2.37a36.79,36.79,0,0,0,15,7.68c.57.14,1.32.2,1.61-.31s-.07-1-.39-1.4a20.53,20.53,0,0,0-9-6.13c-3.45-1.29-6.44-2.84-10.56-2.5" style="fill:#e0e0e0"></path><path d="M87.57,359.66a28.3,28.3,0,0,0,21.7,7.38,1.47,1.47,0,0,0,1-.35c.55-.6-.11-1.52-.74-2-6.38-5-14.11-7-21.94-5" style="fill:#e0e0e0"></path><path d="M93.05,357.65a30.24,30.24,0,0,1,27.07-4.46,21.52,21.52,0,0,1-12.9,5.66,40.58,40.58,0,0,1-14.17-1.2" style="fill:#e0e0e0"></path><path d="M90.87,343.88c-.62-6.37-.22-11.39-.66-17.79,0-.51-.14-1.12-.62-1.31-.67-.25-1.22.56-1.44,1.24a20.39,20.39,0,0,0,2.71,17.72" style="fill:#e0e0e0"></path><path d="M90.41,344.58A37.31,37.31,0,0,0,101,334.33c2.08-2.85,3.84-6.26,3.37-9.76a10.09,10.09,0,0,0-7.61,3.78,21.33,21.33,0,0,0-3.88,7.8c-.84,2.8-1.43,5.68-2.43,8.43" style="fill:#e0e0e0"></path><path d="M100.78,341.7a85,85,0,0,0,26-15.3c-3.1-1.25-6.65-.5-9.75.75a30.72,30.72,0,0,0-16.34,14.49" style="fill:#e0e0e0"></path><path d="M93.33,348.07a53.09,53.09,0,0,0,14.41.07c4.67-.78,9.09-2.64,13.45-4.47a1.64,1.64,0,0,0,.92-.7,1.07,1.07,0,0,0-.33-1.15,2.84,2.84,0,0,0-1.15-.54c-4.75-1.32-9.87-.7-14.54.87a67.49,67.49,0,0,0-12.76,5.92" style="fill:#e0e0e0"></path><path d="M66,359.88c-3.27-6.6-3-14.3-.23-21.1,2,3,2.23,6.88,1.87,10.49s-1.46,7.31-1.54,10.93" style="fill:#e0e0e0"></path><path d="M52.91,353.29a29.38,29.38,0,0,0-21.86,9.32,20.49,20.49,0,0,0,12-2.22,60.64,60.64,0,0,0,10.26-6.87" style="fill:#e0e0e0"></path><path d="M44.13,350.35c-4-.32-7.83-.81-11.67.36a14,14,0,0,0-8.89,7.55,21.1,21.1,0,0,0,10.94-2.07,62.62,62.62,0,0,0,9.62-5.84" style="fill:#e0e0e0"></path><path d="M57.13,350.49c-3.59-2.35-7.28-4.75-11.46-5.73s-9-.25-11.94,2.9c3.38,2,7.49,2.22,11.42,2.22s8.73-.05,12.43,1.26" style="fill:#e0e0e0"></path><path d="M57.15,350.68c-6.14-6-8.46-16.86-6-25.1a38.28,38.28,0,0,1,6,25.1" style="fill:#e0e0e0"></path><path d="M74,333.6c1.16-2.7,2-5.52,3-8.26a23.73,23.73,0,0,1,4.29-7.61,11.34,11.34,0,0,1,7.61-4,30.68,30.68,0,0,1-14.76,19.86" style="fill:#e0e0e0"></path><path d="M71,337.16c-1.91-2.64-4.13-6.22-6.73-8.19s-6-3.16-9.15-2.41A21.35,21.35,0,0,0,71,337.16" style="fill:#e0e0e0"></path><path d="M71.59,333.82a46.19,46.19,0,0,1-3-9.81,15.39,15.39,0,0,1,1.54-10c3.37,6.37,4.46,13.21,1.67,19.86" style="fill:#e0e0e0"></path><path d="M74.07,314c1.91-6.31,7.69-11,13.94-13.1a5.12,5.12,0,0,1,2.44-.36,2.1,2.1,0,0,1,1.8,1.5c.23,1.07-.66,2-1.5,2.75A47.34,47.34,0,0,1,74.07,314" style="fill:#e0e0e0"></path><path d="M74.14,308.87c.24-4.08.49-8.21,1.82-12.07s3.88-7.47,7.59-9.16c.63,4.11-1.18,8.2-3.37,11.74s-4.83,6.88-6.14,10.83" style="fill:#e0e0e0"></path><path d="M74,311.67c-1.58-4.6-1.74-10.45-4.5-14.46-1.93-2.8-5-4.71-6.67-7.68a11.67,11.67,0,0,0,.39,8.72,25.23,25.23,0,0,0,5.1,7.3c2,2.18,3.78,3.82,5.68,6.12" style="fill:#e0e0e0"></path><path d="M74.07,447.22c-.12,0-.23-30.7-.24-68.57s.09-68.58.21-68.58.23,30.69.24,68.58S74.19,447.22,74.07,447.22Z" style="fill:#e0e0e0"></path><path d="M100.9,355.24a5.9,5.9,0,0,1-1.15.44l-3.18,1.07c-2.68.91-6.36,2.23-10.35,3.87s-7.69,3.07-9.81,4.91a7.2,7.2,0,0,0-2,2.61c-.31.72-.36,1.16-.4,1.16s0-.12,0-.33a5.31,5.31,0,0,1,.23-.89,6.92,6.92,0,0,1,1.92-2.78,17.1,17.1,0,0,1,4.26-2.64c1.7-.8,3.59-1.63,5.59-2.45,4-1.64,7.71-2.92,10.42-3.76,1.36-.42,2.46-.73,3.23-.94A6.74,6.74,0,0,1,100.9,355.24Z" style="fill:#e0e0e0"></path><path d="M109.7,333.64a1.73,1.73,0,0,1-.33.34l-1,.93-3.68,3.34-12.24,10.9c-4.78,4.26-8.91,8.32-11.77,11.38-1.44,1.53-2.57,2.8-3.34,3.68l-.89,1a1.57,1.57,0,0,1-.33.33,2.05,2.05,0,0,1,.27-.39c.18-.25.45-.62.82-1.07.73-.92,1.83-2.22,3.24-3.78a154.56,154.56,0,0,1,11.7-11.5c4.8-4.24,9.16-8.06,12.33-10.8,1.56-1.34,2.84-2.43,3.77-3.24l1-.86A1.9,1.9,0,0,1,109.7,333.64Z" style="fill:#e0e0e0"></path><path d="M87.31,353.48c-.13-.06.87-2.36,1.87-5.28s1.47-5.37,1.6-5.35a18,18,0,0,1-1.18,5.49A36.11,36.11,0,0,1,88.11,352,6.45,6.45,0,0,1,87.31,353.48Z" style="fill:#e0e0e0"></path><path d="M74.1,372.06a4.64,4.64,0,0,1-.74-.85l-1.89-2.42c-1.58-2.05-3.77-4.88-6.23-8s-4.71-5.87-6.35-7.88L57,350.55a5.68,5.68,0,0,1-.67-.91,5.84,5.84,0,0,1,.8.8c.49.53,1.19,1.32,2,2.3,1.7,2,4,4.7,6.46,7.8s4.61,6,6.13,8.06c.77,1,1.37,1.91,1.78,2.51A5.52,5.52,0,0,1,74.1,372.06Z" style="fill:#e0e0e0"></path><path d="M68.21,364.51a10.78,10.78,0,0,1-2.46-4.61,13,13,0,0,1-.56-4.66l.2,0a1.47,1.47,0,0,1-.19.54s0-.21,0-.57h.2a21,21,0,0,0,.78,4.53A35.89,35.89,0,0,0,68.21,364.51Z" style="fill:#e0e0e0"></path><path d="M60.62,355a8.45,8.45,0,0,0-1.72-1,11.31,11.31,0,0,0-4.78-.38,28.32,28.32,0,0,0-4.81.77,16.25,16.25,0,0,1-2,.48,6.37,6.37,0,0,1,1.89-.78,21.89,21.89,0,0,1,4.87-.92,10.44,10.44,0,0,1,4.92.53A3.09,3.09,0,0,1,60.62,355Z" style="fill:#e0e0e0"></path><path d="M58.82,352.64c0,.07-1-.4-2.64-1a26.63,26.63,0,0,0-13.29-1c-1.7.3-2.72.62-2.75.55a2.3,2.3,0,0,1,.7-.3,16.19,16.19,0,0,1,2-.56,23.54,23.54,0,0,1,6.81-.48,23.77,23.77,0,0,1,6.65,1.5,16.4,16.4,0,0,1,1.88.86A2.52,2.52,0,0,1,58.82,352.64Z" style="fill:#e0e0e0"></path><path d="M74,342.85a53.94,53.94,0,0,1-1.92-6.68,53.76,53.76,0,0,1-1.5-6.79,54.94,54.94,0,0,1,1.93,6.68A54.7,54.7,0,0,1,74,342.85Z" style="fill:#e0e0e0"></path><path d="M74.16,342.85a32.06,32.06,0,0,0-2.13-4,17.27,17.27,0,0,0-3.14-3.24,3,3,0,0,1,1.21.63,9.7,9.7,0,0,1,2.29,2.35A8.87,8.87,0,0,1,74.16,342.85Z" style="fill:#e0e0e0"></path><path d="M74.07,430.85s-.14-.74-.49-2a28.9,28.9,0,0,0-2-5.32,73.62,73.62,0,0,0-10.88-15.33c-2.43-2.78-4.79-5.4-6.79-7.91a54.47,54.47,0,0,1-4.86-7,33.32,33.32,0,0,1-2.45-5.2c-.23-.64-.39-1.14-.48-1.48a3.17,3.17,0,0,1-.13-.53s.26.7.77,1.95a38.68,38.68,0,0,0,2.56,5.1,58.87,58.87,0,0,0,4.9,6.91c2,2.48,4.38,5.08,6.81,7.86a70,70,0,0,1,10.84,15.5,26.73,26.73,0,0,1,1.93,5.41,14.09,14.09,0,0,1,.27,1.54A2.72,2.72,0,0,1,74.07,430.85Z" style="fill:#e0e0e0"></path><path d="M98.32,403.47a14.16,14.16,0,0,1-1.27.71,26.73,26.73,0,0,0-3.3,2.18,36.21,36.21,0,0,0-4.33,3.95c-1.52,1.6-3.08,3.46-4.68,5.46-3.19,4-6.18,7.56-8,10.39-.91,1.4-1.57,2.58-2,3.41a11.3,11.3,0,0,1-.7,1.28s0-.13.12-.36.22-.57.42-1A32.27,32.27,0,0,1,76.5,426a115.69,115.69,0,0,1,7.89-10.5c1.6-2,3.19-3.86,4.74-5.47a35,35,0,0,1,4.43-3.91A22.43,22.43,0,0,1,97,404a9.18,9.18,0,0,1,1-.44Q98.31,403.44,98.32,403.47Z" style="fill:#e0e0e0"></path><path d="M98.79,412.35a18.88,18.88,0,0,1-2.69.39A34.87,34.87,0,0,0,89.73,414a19,19,0,0,0-5.7,3c-1.31,1-1.93,1.85-2,1.81s.1-.25.39-.62a10,10,0,0,1,1.4-1.43,17.26,17.26,0,0,1,5.77-3.18,28.49,28.49,0,0,1,6.47-1.14A14.87,14.87,0,0,1,98.79,412.35Z" style="fill:#e0e0e0"></path><path d="M82.82,417.82c-.14-.08,1.07-1.93,2-4.42s1.09-4.71,1.24-4.68a4.08,4.08,0,0,1,0,1.44,16.14,16.14,0,0,1-.78,3.4,16.85,16.85,0,0,1-1.56,3.11A4.32,4.32,0,0,1,82.82,417.82Z" style="fill:#e0e0e0"></path><path d="M106.17,379.61a1.56,1.56,0,0,1-.43.23l-1.26.57c-.56.24-1.23.54-2,.94s-1.65.8-2.57,1.35l-1.46.83c-.51.3-1,.64-1.55,1-1.08.65-2.16,1.46-3.32,2.28a63.57,63.57,0,0,0-6.92,6.09A62.08,62.08,0,0,0,80.83,400c-.79,1.19-1.56,2.3-2.18,3.4-.31.54-.64,1.06-.92,1.58L77,406.48c-.52.94-.89,1.84-1.26,2.61s-.65,1.45-.87,2-.39.94-.53,1.28a2.4,2.4,0,0,1-.21.44,1.6,1.6,0,0,1,.13-.47l.45-1.31c.2-.57.45-1.27.8-2.05s.7-1.7,1.21-2.65c.24-.49.5-1,.76-1.52s.59-1,.91-1.6c.61-1.12,1.37-2.24,2.15-3.44a55.26,55.26,0,0,1,12.87-13.32c1.17-.82,2.27-1.62,3.36-2.26.55-.33,1.06-.68,1.57-1l1.49-.82c.94-.53,1.84-.92,2.61-1.29a20.8,20.8,0,0,1,2-.87l1.3-.5A2.24,2.24,0,0,1,106.17,379.61Z" style="fill:#e0e0e0"></path><path d="M87,392.47a3,3,0,0,1,1-1.57,6.64,6.64,0,0,1,4.26-1.63,11.64,11.64,0,0,1,4.47.87,6.73,6.73,0,0,1,1.69.82,9.62,9.62,0,0,1-1.79-.52,13.3,13.3,0,0,0-4.36-.73,6.9,6.9,0,0,0-4.06,1.43A11.33,11.33,0,0,0,87,392.47Z" style="fill:#e0e0e0"></path><path d="M84.11,395.43a16.14,16.14,0,0,0,1.21-3.93,16.52,16.52,0,0,0-.27-4.1,2.62,2.62,0,0,1,.5,1.15,8.13,8.13,0,0,1-.69,5.88C84.48,395.11,84.15,395.46,84.11,395.43Z" style="fill:#e0e0e0"></path><path d="M52.86,435.25c.66,11.74,4.2,23.67,9.64,35.74H86.15c5.19-11.95,8.48-23.86,9.06-35.74Z" style="fill:#e0e0e0"></path><path d="M91.38,454.24c0,.12-7.79.22-17.39.22s-17.39-.1-17.39-.22S64.38,454,74,454,91.38,454.12,91.38,454.24Z" style="fill:#fafafa"></path><path d="M90.85,458.49c0,.12-7.3.22-16.3.22s-16.31-.1-16.31-.22,7.3-.22,16.31-.22S90.85,458.37,90.85,458.49Z" style="fill:#fafafa"></path><path d="M62.88,443a67.49,67.49,0,0,1,0,10.89,67.49,67.49,0,0,1,0-10.89Z" style="fill:#fafafa"></path><path d="M75.55,443a72.4,72.4,0,0,1,0,11.28,72.4,72.4,0,0,1,0-11.28Z" style="fill:#fafafa"></path><path d="M87.45,442.86a75.38,75.38,0,0,1,0,11.51,75.38,75.38,0,0,1,0-11.51Z" style="fill:#fafafa"></path><path d="M94.46,443c0,.12-9.13.22-20.39.22s-20.41-.1-20.41-.22,9.14-.22,20.41-.22S94.46,442.83,94.46,443Z" style="fill:#fafafa"></path><path d="M461.39,333.53a12.1,12.1,0,0,0,7.21-11.19c0-6.68-5-12.12-11.29-12.14s-11.37,5.36-11.39,12a12.08,12.08,0,0,0,7.22,11.29c-17.45,2.63-16.66,21.59-16.66,21.59l41.27.19S478.69,336.14,461.39,333.53Z" style="fill:#ebebeb"></path><path d="M275.87,57.81a8,8,0,0,0,6.26-6.08,7.44,7.44,0,1,0-14.46-3.42,7.9,7.9,0,0,0,2.94,8.28c-11.53-.91-13.82,11.31-13.82,11.31l26.3,6.23S286.53,62,275.87,57.81Z" style="fill:#ebebeb"></path><path d="M462.52,159.61A7.6,7.6,0,0,0,466,152a7.14,7.14,0,1,0-14.11,2,7.57,7.57,0,0,0,5.51,6.37c-10.61,3.21-8.42,14.93-8.42,14.93l25.68-3.59S473.51,159.68,462.52,159.61Z" style="fill:#f5f5f5"></path><polygon points="50.48 163.24 36.61 152.21 40.45 147.37 49.76 154.76 63.34 139.57 67.95 143.69 50.48 163.24" style="fill:#f5f5f5"></polygon></g><g id="freepik--Floor--inject-2"><path d="M470.66,471.34c0,.15-100.15.26-223.65.26s-223.67-.11-223.67-.26,100.12-.26,223.67-.26S470.66,471.2,470.66,471.34Z" style="fill:#263238"></path></g><g id="freepik--Icon--inject-2"><path d="M69.4,179.21,38.73,194.6A6.21,6.21,0,0,0,35,200.32v14.35a66.61,66.61,0,0,0,10.93,36.74c5.53,8.42,12.86,19.18,25.05,25.33h5.5c13.58-4.14,23.71-15.17,29.9-24.61a66.62,66.62,0,0,0,10.94-36.74V200.32a6.23,6.23,0,0,0-3.78-5.72L78.55,179.71C77,179.05,71,178.55,69.4,179.21Z" style="fill:#A3C4BC"></path><path d="M69.4,179.21,38.73,194.6A6.21,6.21,0,0,0,35,200.32v14.35a66.61,66.61,0,0,0,10.93,36.74c5.53,8.42,12.86,19.18,25.05,25.33h5.5c13.58-4.14,23.71-15.17,29.9-24.61a66.62,66.62,0,0,0,10.94-36.74V200.32a6.23,6.23,0,0,0-3.78-5.72L78.55,179.71C77,179.05,71,178.55,69.4,179.21Z" style="opacity:0.30000000000000004"></path><path d="M68.17,179.71,33.22,194.6a6.23,6.23,0,0,0-3.78,5.72v14.35a67.18,67.18,0,0,0,41.49,62.07c13.57-4.14,23.7-15.17,29.9-24.61a66.62,66.62,0,0,0,10.94-36.74V200.32A6.23,6.23,0,0,0,108,194.6L73,179.71A6.24,6.24,0,0,0,68.17,179.71Z" style="fill:#A3C4BC"></path><circle cx="70.6" cy="223.44" r="22.91" transform="translate(-76.01 40.65) rotate(-21.2)" style="opacity:0.30000000000000004"></circle><circle cx="70.6" cy="215.2" r="9.51" style="fill:#fff"></circle><path d="M53.24,238.37a18.57,18.57,0,0,1,17-10.56A20.22,20.22,0,0,1,88,238.37s-5.61,8.3-18,8A21.74,21.74,0,0,1,53.24,238.37Z" style="fill:#fff"></path><path d="M93.51,223.44a2,2,0,0,1,0-.37c0-.27,0-.63-.09-1.08,0-.24,0-.51,0-.8s-.1-.61-.15-1a16.94,16.94,0,0,0-.48-2.35,22.14,22.14,0,0,0-2.55-6.06,22.82,22.82,0,0,0-5.8-6.44,22.49,22.49,0,0,0-9.56-4.22,22.75,22.75,0,0,0-11.91,1,21.88,21.88,0,0,0-3,1.3,24.2,24.2,0,0,0-2.78,1.78,27.82,27.82,0,0,0-2.57,2.19,26.69,26.69,0,0,0-2.22,2.62,22.28,22.28,0,0,0-3.23,6.24,22.43,22.43,0,0,0,0,14.3,22,22,0,0,0,3.23,6.24,26.82,26.82,0,0,0,2.22,2.63,26.24,26.24,0,0,0,2.57,2.18,20.82,20.82,0,0,0,5.73,3.09,22.75,22.75,0,0,0,11.91,1,22.88,22.88,0,0,0,15.36-10.67A21.78,21.78,0,0,0,92.7,229a17.35,17.35,0,0,0,.48-2.36c0-.34.12-.66.15-1s0-.56,0-.8l.09-1.09a2.24,2.24,0,0,1,0-.37,2.12,2.12,0,0,1,0,.37c0,.28,0,.64,0,1.1,0,.24,0,.51,0,.8s-.08.62-.13,1a14.59,14.59,0,0,1-.44,2.39,21.54,21.54,0,0,1-2.49,6.15,23,23,0,0,1-27.68,10,23.62,23.62,0,0,1-3-1.32A23.15,23.15,0,0,1,56.86,242a25.13,25.13,0,0,1-2.64-2.23A26.75,26.75,0,0,1,52,237.13a22.64,22.64,0,0,1-3.32-6.38,24.86,24.86,0,0,1-1.19-7.31,24.54,24.54,0,0,1,1.2-7.31A22.36,22.36,0,0,1,52,209.75a28,28,0,0,1,2.28-2.68,25.22,25.22,0,0,1,2.63-2.23A24.31,24.31,0,0,1,59.7,203a23.69,23.69,0,0,1,3-1.33,23.23,23.23,0,0,1,12.15-1A23.06,23.06,0,0,1,90.4,211.67a21.59,21.59,0,0,1,2.49,6.16,14.49,14.49,0,0,1,.44,2.38c0,.35.11.67.13,1l0,.81c0,.46,0,.82,0,1.09A2,2,0,0,1,93.51,223.44Z" style="fill:#263238"></path><path d="M111.65,211.5a3.23,3.23,0,0,1,.07.67c0,.48,0,1.11.08,1.9s.08,1.83,0,3c0,.59,0,1.21,0,1.88s0,1.37-.13,2.1c-.14,1.47-.24,3.09-.55,4.81-.13.86-.24,1.75-.42,2.66s-.4,1.84-.6,2.8a69.38,69.38,0,0,1-4,12.06,71.34,71.34,0,0,1-6.27,11.07c-1.16,1.57-2.23,3.09-3.39,4.4-.56.66-1.08,1.33-1.63,1.92l-1.59,1.68c-1,1.11-2,2-2.86,2.79a27.63,27.63,0,0,1-2.27,2l-1.48,1.2a3,3,0,0,1-.53.38,3.57,3.57,0,0,1,.47-.46l1.41-1.27c.63-.54,1.38-1.21,2.2-2s1.82-1.72,2.79-2.83l1.56-1.7c.54-.59,1-1.26,1.6-1.92,1.13-1.31,2.18-2.83,3.33-4.41a73,73,0,0,0,6.18-11,70.56,70.56,0,0,0,4-12l.62-2.78c.18-.9.3-1.79.45-2.64.32-1.7.44-3.31.6-4.77.09-.73.15-1.43.17-2.09l.09-1.87c.09-1.17.07-2.18.07-3s0-1.41,0-1.9A4.52,4.52,0,0,1,111.65,211.5Z" style="fill:#263238"></path></g><g id="freepik--Device--inject-2"><path d="M354.81,471.34H118.35a11.79,11.79,0,0,1-11.59-12V97.92a11.79,11.79,0,0,1,11.59-12H354.81a11.78,11.78,0,0,1,11.58,12V459.36A11.78,11.78,0,0,1,354.81,471.34Z" style="fill:#263238"></path><path d="M241.11,453.81a11,11,0,1,1-11-10.81A10.91,10.91,0,0,1,241.11,453.81Z" style="fill:#455a64"></path><path d="M263.18,106.3h-53a3.76,3.76,0,0,1-3.7-3.82h0a3.77,3.77,0,0,1,3.7-3.83h53a3.77,3.77,0,0,1,3.7,3.83h0A3.76,3.76,0,0,1,263.18,106.3Z" style="fill:#455a64"></path><rect x="114.73" y="113.43" width="243.26" height="321.86" style="fill:#fff"></rect><rect x="347.61" y="113.43" width="10.38" height="321.86" style="fill:#f5f5f5"></rect><path d="M352.79,229.07h0a3.24,3.24,0,0,1-3.23-3.24V154.64a3.24,3.24,0,0,1,3.23-3.24h0a3.24,3.24,0,0,1,3.24,3.24v71.19A3.24,3.24,0,0,1,352.79,229.07Z" style="fill:#e0e0e0"></path><path d="M326.26,186.68H146.9a5.16,5.16,0,0,1-5.16-5.16h0a5.16,5.16,0,0,1,5.16-5.16H326.26a5.16,5.16,0,0,1,5.16,5.16h0A5.16,5.16,0,0,1,326.26,186.68Z" style="fill:#e0e0e0"></path><path d="M298.67,149H185.84a5.16,5.16,0,0,1-5.16-5.16h0a5.16,5.16,0,0,1,5.16-5.16H298.67a5.16,5.16,0,0,1,5.16,5.16h0A5.16,5.16,0,0,1,298.67,149Z" style="fill:#A3C4BC"></path><path d="M300.79,207.45H172.37a5.16,5.16,0,0,1-5.16-5.16h0a5.16,5.16,0,0,1,5.16-5.16H300.79a5.16,5.16,0,0,1,5.16,5.16h0A5.16,5.16,0,0,1,300.79,207.45Z" style="fill:#e0e0e0"></path><path d="M242.81,298H144a5.16,5.16,0,0,1-5.16-5.16h0a5.16,5.16,0,0,1,5.16-5.16h98.81a5.16,5.16,0,0,1,5.16,5.16h0A5.16,5.16,0,0,1,242.81,298Z" style="fill:#e0e0e0"></path><path d="M323.36,276.37H144a5.16,5.16,0,0,1-5.16-5.16h0a5.15,5.15,0,0,1,5.16-5.15H323.36a5.15,5.15,0,0,1,5.16,5.15h0A5.16,5.16,0,0,1,323.36,276.37Z" style="fill:#e0e0e0"></path><rect x="161.21" y="335.65" width="167.31" height="10.32" rx="5.16" style="fill:#e0e0e0"></rect><path d="M323.36,368H144a5.16,5.16,0,0,1-5.16-5.16h0A5.16,5.16,0,0,1,144,357.7H323.36a5.16,5.16,0,0,1,5.16,5.16h0A5.16,5.16,0,0,1,323.36,368Z" style="fill:#e0e0e0"></path><path d="M323.36,390.42H144a5.16,5.16,0,0,1-5.16-5.16h0A5.16,5.16,0,0,1,144,380.1H323.36a5.16,5.16,0,0,1,5.16,5.16h0A5.16,5.16,0,0,1,323.36,390.42Z" style="fill:#e0e0e0"></path><path d="M152.07,340.81a5.36,5.36,0,1,1-5.35-5.36A5.36,5.36,0,0,1,152.07,340.81Z" style="fill:#A3C4BC"></path><path d="M323.36,256.22h-157a5.16,5.16,0,0,1-5.16-5.16h0a5.16,5.16,0,0,1,5.16-5.16h157a5.16,5.16,0,0,1,5.16,5.16h0A5.16,5.16,0,0,1,323.36,256.22Z" style="fill:#e0e0e0"></path><circle cx="146.72" cy="251.06" r="5.36" style="fill:#A3C4BC"></circle><path d="M318.35,423.23H278.1a8.22,8.22,0,0,1-8.22-8.22h0a8.22,8.22,0,0,1,8.22-8.22h40.25a8.22,8.22,0,0,1,8.22,8.22h0A8.22,8.22,0,0,1,318.35,423.23Z" style="fill:#A3C4BC"></path></g><g id="freepik--Padlock--inject-2"><path d="M111,35.35,69.28,56.28a8.46,8.46,0,0,0-5.15,7.78V83.58a90.6,90.6,0,0,0,14.88,50C86.53,145,96.49,159.64,113.08,168h7.48c18.46-5.63,32.24-20.64,40.67-33.47a90.6,90.6,0,0,0,14.88-50V64.06A8.46,8.46,0,0,0,171,56.28L123.44,36C121.32,35.13,113.12,34.45,111,35.35Z" style="fill:#A3C4BC"></path><path d="M111,35.35,69.28,56.28a8.46,8.46,0,0,0-5.15,7.78V83.58a90.6,90.6,0,0,0,14.88,50C86.53,145,96.49,159.64,113.08,168h7.48c18.46-5.63,32.24-20.64,40.67-33.47a90.6,90.6,0,0,0,14.88-50V64.06A8.46,8.46,0,0,0,171,56.28L123.44,36C121.32,35.13,113.12,34.45,111,35.35Z" style="opacity:0.30000000000000004"></path><path d="M109.32,36,61.79,56.28a8.45,8.45,0,0,0-5.14,7.78V83.58A91.38,91.38,0,0,0,113.08,168c18.46-5.63,32.24-20.64,40.66-33.47a90.52,90.52,0,0,0,14.88-50V64.06a8.45,8.45,0,0,0-5.14-7.78L116,36A8.48,8.48,0,0,0,109.32,36Z" style="fill:#A3C4BC"></path><path d="M168.47,79.27a.72.72,0,0,1,0,.23c0,.18,0,.4,0,.67,0,.64.05,1.5.09,2.59s.1,2.49,0,4.09c0,.8,0,1.65-.08,2.55,0,.46,0,.92,0,1.4s-.09,1-.14,1.47c-.2,2-.33,4.2-.75,6.53-.19,1.16-.34,2.38-.58,3.61s-.54,2.5-.82,3.8a93.64,93.64,0,0,1-5.49,16.39,97.54,97.54,0,0,1-8.5,15.05c-1.58,2.14-3,4.21-4.6,6-.77.9-1.47,1.81-2.22,2.61l-2.16,2.3c-1.34,1.5-2.72,2.69-3.87,3.8-.59.54-1.12,1.06-1.63,1.51L136.32,155l-2,1.64-.53.42c-.12.09-.19.13-.19.12s0-.06.15-.17l.5-.45,1.93-1.71,1.41-1.23c.51-.45,1-1,1.6-1.54,1.13-1.12,2.48-2.32,3.8-3.83l2.13-2.32c.74-.8,1.43-1.71,2.18-2.61,1.55-1.78,3-3.85,4.54-6a98.74,98.74,0,0,0,8.43-15,96.46,96.46,0,0,0,5.49-16.29c.29-1.29.56-2.55.84-3.77s.4-2.44.6-3.6c.44-2.32.59-4.51.81-6.5.06-.49.11-1,.16-1.45s0-.94.06-1.39q.06-1.35.12-2.55c.11-1.59.08-3,.08-4.08V80.18l0-.68A.6.6,0,0,1,168.47,79.27Z" style="fill:#263238"></path><path d="M131.46,105.5h-5.07V77.91a11.78,11.78,0,0,0-23.55,0V105.5H97.77V77.91a16.85,16.85,0,0,1,33.69,0Z" style="fill:#f5f5f5"></path><rect x="91.92" y="86.78" width="45.4" height="35.58" rx="5.81" style="fill:#fff"></rect><path d="M131.51,122.36a11.77,11.77,0,0,0,1.51-.26,5.77,5.77,0,0,0,4.17-5.6c0-1.17,0-2.44,0-3.81,0-2.73,0-5.84,0-9.28s0-7.19,0-11.23a5.59,5.59,0,0,0-3.3-4.69,6.69,6.69,0,0,0-3.11-.48h-3.36L97.73,87a5.55,5.55,0,0,0-5.4,4.26,7.42,7.42,0,0,0-.16,1.84v5.63c0,5,0,9.72,0,14.27.09,2.26-.38,4.59.78,6.37A5.62,5.62,0,0,0,98,122.14l11.25,0,16.29.09,4.42,0,1.15,0a2.12,2.12,0,0,1,.4,0,1.79,1.79,0,0,1-.4,0l-1.15,0-4.42,0-16.29.08-11.25,0a6.05,6.05,0,0,1-6.32-6.16V113c0-4.55,0-9.32,0-14.27V93.14a7.77,7.77,0,0,1,.17-2A6,6,0,0,1,94,87.84a6.12,6.12,0,0,1,3.78-1.32l29.58,0h3.36a7.08,7.08,0,0,1,3.3.54,6,6,0,0,1,3.54,5.07c0,4.08,0,7.82,0,11.26s0,6.55,0,9.28c0,1.37,0,2.64,0,3.81a5.88,5.88,0,0,1-.88,3.1,5.77,5.77,0,0,1-3.51,2.6A4.5,4.5,0,0,1,131.51,122.36Z" style="fill:#263238"></path><path d="M118.1,105.49a4.9,4.9,0,0,0,1.44-3.48,5,5,0,1,0-6.36,4.78l-1.07,4.74h4.75l-1-4.74a5,5,0,0,0,2.19-1.3" style="fill:#A3C4BC"></path></g><g id="freepik--Character--inject-2"><path d="M427.82,141.17v40.52c.09,7,1.12,18-10,17.64h0c-9.59-1-12.14-10.13-12.21-16.67,0-3.1-.07-5.69-.1-6,0,0-10.5-.86-11.39-11.24-.43-5-.47-15.41-.4-24.82a19.4,19.4,0,0,1,18-19.18l1-.07C423.59,121.19,428,130.32,427.82,141.17Z" style="fill:#ffbf9d"></path><path d="M405.54,176.66a25.18,25.18,0,0,0,13.23-5s-2.74,7.83-13.17,7.65Z" style="fill:#ff9a6c"></path><path d="M411.49,144.86c.21.21,1.41-.76,3.14-.8s3,.8,3.22.58-.12-.49-.69-.88a4.37,4.37,0,0,0-2.58-.74,4.26,4.26,0,0,0-2.5.91C411.56,144.37,411.39,144.76,411.49,144.86Z" style="fill:#263238"></path><path d="M411.46,149.77a1.4,1.4,0,0,0,1.46,1.32,1.34,1.34,0,0,0,1.35-1.37,1.41,1.41,0,0,0-1.45-1.32A1.36,1.36,0,0,0,411.46,149.77Z" style="fill:#263238"></path><path d="M407.14,157a10.81,10.81,0,0,0-2.63-.28c-.41,0-.8-.07-.89-.34a2.08,2.08,0,0,1,.18-1.23c.32-1,.64-2.07,1-3.19,1.35-4.54,2.3-8.26,2.12-8.31s-1.43,3.58-2.78,8.12q-.48,1.68-.93,3.21a2.37,2.37,0,0,0-.09,1.61,1,1,0,0,0,.71.55,3,3,0,0,0,.7,0A11,11,0,0,0,407.14,157Z" style="fill:#263238"></path><path d="M412.23,137.46c.17.39,1.56.1,3.23.18s3,.45,3.23.08c.08-.17-.18-.53-.74-.87a5.43,5.43,0,0,0-4.92-.2C412.44,136.94,412.16,137.28,412.23,137.46Z" style="fill:#263238"></path><path d="M395.72,140.06c.19.32,1.54,0,3.19-.08s3,.16,3.18-.17c.07-.16-.2-.44-.77-.69a5.73,5.73,0,0,0-2.43-.4,5.83,5.83,0,0,0-2.42.6C395.91,139.61,395.64,139.91,395.72,140.06Z" style="fill:#263238"></path><path d="M380,131.29a1.64,1.64,0,0,1,.79-1,5.1,5.1,0,0,1,2.65-.43,14.93,14.93,0,0,0,7.8-2.37,34.93,34.93,0,0,1,3.63-4.4c3.15-3.24,5.73-5.45,8.41-6.53,3.46-1.39,9.25-2,12.86-1s6.85,3.88,7.36,7.57c2-1.71,5.06-1.69,7.53-.7l.06,0c2.74,1,4.3,3.88,5.11,6.68s1.16,5.8,2.64,8.31c.31.52.68,1.15.41,1.7a1.16,1.16,0,0,1-1.21.52,3.3,3.3,0,0,1-1.28-.58c.31.74.61,1.47.92,2.2a6.44,6.44,0,0,1-3-.19,64.62,64.62,0,0,1-1.95,7.38,4.29,4.29,0,0,0-2.91.71c-1,.87-1.39,2.5-3,1.88-.81-.32-1.55-2-1.83-2.85A40.64,40.64,0,0,1,423.24,131a13.12,13.12,0,0,0-4-2.9l.12.11c-2.9-1-6.18-2-8.93-.64-2.13,1.06-3.38,3.27-5,5A16.26,16.26,0,0,1,393.82,138c-.15,2.92.09,7.05-.06,10l-2.46-4.68v0a11.31,11.31,0,0,1-.53-1l0-.1h0a17.28,17.28,0,0,0-.83-1.67l0,0a1.83,1.83,0,0,1-2.67-2.44,4.13,4.13,0,0,1,.88-.89,2.86,2.86,0,0,1-2.75.71,2.26,2.26,0,0,1-1.6-2.24,1.94,1.94,0,0,1,1.15-1.54,6.45,6.45,0,0,1-3.7-.82C380.45,132.9,379.73,132.21,380,131.29Z" style="fill:#263238"></path><path d="M420.21,124.34a8.13,8.13,0,0,1,1,1,7.35,7.35,0,0,1,1.59,3.44,12.75,12.75,0,0,1,.27,2.64c0,1-.07,2-.15,3.06a27.16,27.16,0,0,0-.07,3.4,11.23,11.23,0,0,0,.23,1.8,3.8,3.8,0,0,0,.73,1.74,1.57,1.57,0,0,0,1.47.49,2.3,2.3,0,0,0,1.31-.74,5.31,5.31,0,0,0,1-2.64l-.21,0a8.51,8.51,0,0,0,1.26,2.18,3.11,3.11,0,0,0,2,1.1,2,2,0,0,0,1.07-.19,1.75,1.75,0,0,0,.73-.72,1.89,1.89,0,0,0,.22-.92,1.27,1.27,0,0,0-.34-.8l-.11.1a6.72,6.72,0,0,0,2.23,1.67q.45.2.69.27l.25.06-.23-.1c-.16-.07-.39-.16-.67-.3a7,7,0,0,1-2.16-1.7l-.11.1a1.33,1.33,0,0,1,.07,1.54,1.52,1.52,0,0,1-.65.63,1.77,1.77,0,0,1-1,.16,2.91,2.91,0,0,1-1.88-1,8.62,8.62,0,0,1-1.21-2.13l-.15-.33-.07.36a5.25,5.25,0,0,1-1,2.52,2.18,2.18,0,0,1-1.18.66,1.33,1.33,0,0,1-1.25-.41,3.47,3.47,0,0,1-.67-1.63,12,12,0,0,1-.24-1.76,26.88,26.88,0,0,1,.07-3.38c.06-1.08.13-2.1.12-3.07a12.82,12.82,0,0,0-.3-2.67,7.37,7.37,0,0,0-1.69-3.48A4,4,0,0,0,420.21,124.34Z" style="fill:#455a64"></path><path d="M388.1,134.43l.09.07a2.21,2.21,0,0,0,.26.19,2.57,2.57,0,0,0,.44.29,7.11,7.11,0,0,0,.63.33,9.21,9.21,0,0,0,4.44.8,11.77,11.77,0,0,0,6.26-2.32,20.1,20.1,0,0,0,5.38-6.2c.76-1.25,1.37-2.54,2-3.73A14,14,0,0,1,410,120.7a7.1,7.1,0,0,1,3-1.82,5.09,5.09,0,0,1,1.58-.18A5.49,5.49,0,0,1,416,119a6,6,0,0,1,2.17,1.3,5.91,5.91,0,0,1,1.17,1.52,6.51,6.51,0,0,1,.53,1.56s0,0,0-.11,0-.19-.05-.32a4.88,4.88,0,0,0-.4-1.17,6,6,0,0,0-3.36-2.94,5.88,5.88,0,0,0-1.49-.31,5.47,5.47,0,0,0-1.64.18,7.21,7.21,0,0,0-3.09,1.85,13.57,13.57,0,0,0-2.37,3.2c-.69,1.2-1.31,2.48-2.05,3.73a20.31,20.31,0,0,1-5.31,6.14,11.65,11.65,0,0,1-6.14,2.33,9.31,9.31,0,0,1-4.39-.72A13.53,13.53,0,0,1,388.1,134.43Z" style="fill:#455a64"></path><path d="M387.16,129.87s.12.11.37.26a8.34,8.34,0,0,0,1.1.56,10.59,10.59,0,0,0,1.75.57,11.56,11.56,0,0,0,2.23.3,12.38,12.38,0,0,0,2.25-.15,10.5,10.5,0,0,0,1.77-.46,8.11,8.11,0,0,0,1.14-.49,2.06,2.06,0,0,0,.39-.23s-.59.25-1.58.56a13.71,13.71,0,0,1-1.76.4,13.93,13.93,0,0,1-2.2.13,14.09,14.09,0,0,1-2.19-.27,12,12,0,0,1-1.73-.52C387.74,130.16,387.18,129.83,387.16,129.87Z" style="fill:#455a64"></path><path d="M395.65,144.86c.2.21,1.4-.76,3.14-.8s3,.8,3.22.58-.13-.49-.69-.88a4.41,4.41,0,0,0-2.59-.74,4.22,4.22,0,0,0-2.49.91C395.71,144.37,395.54,144.76,395.65,144.86Z" style="fill:#263238"></path><path d="M397.42,149.77a1.41,1.41,0,0,0,1.45,1.32,1.35,1.35,0,0,0,1.36-1.37,1.42,1.42,0,0,0-1.46-1.32A1.35,1.35,0,0,0,397.42,149.77Z" style="fill:#263238"></path><path d="M427.55,148.92c.17-.09,7-2.63,7.27,4.48s-6.91,5.93-6.93,5.73S427.55,148.92,427.55,148.92Z" style="fill:#ffbf9d"></path><path d="M430,156.35s.13.08.34.17a1.29,1.29,0,0,0,.93,0,3.06,3.06,0,0,0,1.3-2.81,4,4,0,0,0-.41-1.76,1.42,1.42,0,0,0-1-.91.64.64,0,0,0-.71.37c-.09.2,0,.34-.08.36s-.15-.11-.11-.41a.87.87,0,0,1,.26-.46,1,1,0,0,1,.68-.21,1.76,1.76,0,0,1,1.34,1.05,4.17,4.17,0,0,1,.51,2c0,1.43-.66,2.8-1.68,3.14a1.33,1.33,0,0,1-1.14-.14C430,156.52,429.93,156.36,430,156.35Z" style="fill:#ff9a6c"></path><path d="M412.2,158.42c.06,0,.06.42-.18,1a4.36,4.36,0,0,1-1.64,1.9A4,4,0,0,1,408,162c-.65-.06-1-.28-1-.33s.4,0,1,0a4.55,4.55,0,0,0,2.14-.72,5.06,5.06,0,0,0,1.59-1.63C412,158.77,412.12,158.4,412.2,158.42Z" style="fill:#263238"></path><path d="M448,439.59l2.12,24,7.52,18.56a2.44,2.44,0,0,1-1.7,3.24h0a2.71,2.71,0,0,1-2.36-.4c-4.29-3.12-19.76-14.6-19.93-16.09-.22-1.94-4.17-25.57-4.17-25.57Z" style="fill:#455a64"></path><path d="M456,485.42l-22.72-19.23.23,1.78c.15,1,.17,1.5.85,2.11a215.11,215.11,0,0,0,19,15.34,3.07,3.07,0,0,0,2.6,0Z" style="fill:#263238"></path><path d="M437.7,458.69a1.46,1.46,0,0,1,.66,1.9,1.59,1.59,0,0,1-2,.63,1.54,1.54,0,0,1-.68-2,1.64,1.64,0,0,1,2.15-.43" style="fill:#fff"></path><path d="M448.94,475.52c.15.06.58-1.26,2-2.08a8.7,8.7,0,0,1,2.87-.83c0-.06-.33-.21-.93-.23a4.32,4.32,0,0,0-2.25.61,3.91,3.91,0,0,0-1.54,1.64C448.87,475.15,448.87,475.51,448.94,475.52Z" style="fill:#263238"></path><path d="M451.12,478.55c.13.1.86-.77,2.14-1.25a20.41,20.41,0,0,1,2.46-.55,3.06,3.06,0,0,0-2.67.06C451.59,477.37,451,478.5,451.12,478.55Z" style="fill:#263238"></path><path d="M445.09,471.75a25.57,25.57,0,0,1,3.17-2.15,27.24,27.24,0,0,1,3.69-1.21,6.12,6.12,0,0,0-3.95.74C445.94,470.12,445,471.69,445.09,471.75Z" style="fill:#263238"></path><path d="M443.8,464.49c.08.14,1.43-.56,3.25-.8s3.33,0,3.37-.13a5.33,5.33,0,0,0-3.45-.4A5.19,5.19,0,0,0,443.8,464.49Z" style="fill:#263238"></path><path d="M443,457.45a8.84,8.84,0,0,1,6.84-.46c0-.06-.27-.33-.9-.59a6,6,0,0,0-2.61-.4,5.7,5.7,0,0,0-2.52.75C443.21,457.09,442.94,457.4,443,457.45Z" style="fill:#263238"></path><path d="M446.15,455.19s.06-.33-.06-.91a6.3,6.3,0,0,0-1-2.3,2.94,2.94,0,0,0-1.42-1.21,1.11,1.11,0,0,0-1.16.34,1.51,1.51,0,0,0-.28,1.13,3.64,3.64,0,0,0,3.6,2.89,4.32,4.32,0,0,0,4-2.53,1.34,1.34,0,0,0-.06-1.17,1.09,1.09,0,0,0-1.14-.41,3.81,3.81,0,0,0-1.59,1,7.27,7.27,0,0,0-1.53,2,2.16,2.16,0,0,0-.3.87,11.56,11.56,0,0,1,2.11-2.63,3.46,3.46,0,0,1,1.4-.84.57.57,0,0,1,.62.22.93.93,0,0,1,0,.77,3.86,3.86,0,0,1-3.47,2.16,3.18,3.18,0,0,1-3.1-2.42,1.1,1.1,0,0,1,.16-.79.59.59,0,0,1,.64-.19,2.68,2.68,0,0,1,1.23,1A9,9,0,0,1,446.15,455.19Z" style="fill:#263238"></path><path d="M387.46,440.83l.94,20.35s-21.69,7.74-21.9,11.52l42.05-.31-.09-31.77Z" style="fill:#455a64"></path><path d="M401.39,459.37a1.61,1.61,0,0,1,1.2,1.84,1.65,1.65,0,0,1-1.92,1.13,1.69,1.69,0,0,1-1.26-1.94,1.74,1.74,0,0,1,2.14-1" style="fill:#e0e0e0"></path><path d="M408.55,472.39l-.14-3.2-40.27,1.49s-1.86.78-1.64,2Z" style="fill:#263238"></path><path d="M387.72,461c0,.19,1,.27,2,.88s1.56,1.42,1.75,1.34-.13-1.19-1.37-1.91S387.67,460.81,387.72,461Z" style="fill:#263238"></path><path d="M383.32,462.73c0,.19.85.51,1.55,1.32s.92,1.68,1.12,1.67.33-1.11-.57-2.1S383.33,462.55,383.32,462.73Z" style="fill:#263238"></path><path d="M380.86,467.71c.19,0,.46-.92-.07-2s-1.5-1.46-1.59-1.3.52.72.94,1.59S380.66,467.7,380.86,467.71Z" style="fill:#263238"></path><path d="M388.05,456.32c.09.18,1-.09,2.19,0s2.07.4,2.17.24-.76-.85-2.13-.91S388,456.17,388.05,456.32Z" style="fill:#263238"></path><path d="M380.14,294.68c0,1.17,4.88,163.85,4.88,163.85h26l5.27-139.16s6.15,72.76,6.15,74.33,5.42,65.61,5.42,65.61l24.1-1.85L450.37,311l-2.94-21.48Z" style="fill:#263238"></path><path d="M419,314.22a4.2,4.2,0,0,1-1.05.42c-.69.24-1.7.57-2.94,1l-.23.07,0-.23c-.14-1.95-.31-4.57-.46-7.44-.17-3.11-.29-5.92-.35-8,0-1-.05-1.85-.05-2.42a2.69,2.69,0,0,1,.06-.89,3.55,3.55,0,0,1,.14.88c.07.57.14,1.4.21,2.41.16,2,.34,4.85.5,8,.16,2.87.27,5.49.33,7.45l-.25-.16c1.26-.35,2.28-.63,3-.81A5.78,5.78,0,0,1,419,314.22Z" style="fill:#455a64"></path><path d="M417,297.31s.08-.13.35-.22a1.69,1.69,0,0,1,1.14.1,1.33,1.33,0,0,1,.87,1.33A1.66,1.66,0,0,1,418,300a2,2,0,0,1-1.92-.81,1.42,1.42,0,0,1,0-1.55,1.73,1.73,0,0,1,.86-.67c.26-.09.41-.07.42-.05s-.59.19-.95.87a1.08,1.08,0,0,0,.06,1.18,1.5,1.5,0,0,0,1.41.58,1.26,1.26,0,0,0,1-1,1,1,0,0,0-.57-1A2.15,2.15,0,0,0,417,297.31Z" style="fill:#455a64"></path><path d="M428.94,299c-.14,0-.34-.7-.44-1.58s-.07-1.61.07-1.62.34.69.44,1.57S429.08,299,428.94,299Z" style="fill:#455a64"></path><path d="M430.74,298.81c-.14,0-.26-.75-.26-1.68s.1-1.68.25-1.68.26.75.26,1.68S430.89,298.81,430.74,298.81Z" style="fill:#455a64"></path><path d="M399.41,299.93c-.14,0-.36-.83-.49-1.88s-.12-1.93,0-1.94.36.83.49,1.89S399.55,299.92,399.41,299.93Z" style="fill:#455a64"></path><path d="M401.6,300.09a2.83,2.83,0,0,1-.64-2,2.8,2.8,0,0,1,.45-2c.15,0,0,.92.07,2S401.74,300.05,401.6,300.09Z" style="fill:#455a64"></path><path d="M393.38,297.92a2.11,2.11,0,0,1-.09.71,13.27,13.27,0,0,1-.52,1.91,19.92,19.92,0,0,1-3.22,5.8,22.22,22.22,0,0,1-5.08,4.62,17.52,17.52,0,0,1-1.84,1.06,3.6,3.6,0,0,1-.73.31c0-.06.94-.58,2.37-1.61a24.35,24.35,0,0,0,4.9-4.62,22.79,22.79,0,0,0,3.29-5.65C393.07,298.9,393.3,297.9,393.38,297.92Z" style="fill:#455a64"></path><path d="M449.58,308.88a2.91,2.91,0,0,1-.79.12,13.83,13.83,0,0,1-2.18,0,14.88,14.88,0,0,1-6.66-2.32,12.71,12.71,0,0,1-4.43-5,9.27,9.27,0,0,1-.68-1.85,1.87,1.87,0,0,1-.11-.7c.08,0,.3,1,1.09,2.43a13.44,13.44,0,0,0,4.41,4.79,15.61,15.61,0,0,0,6.42,2.36C448.44,308.91,449.57,308.8,449.58,308.88Z" style="fill:#455a64"></path><path d="M407.23,391.26c0,.11-4.34-.83-9.62-2.08s-9.54-2.37-9.5-2.48,4.34.82,9.62,2.08S407.26,391.15,407.23,391.26Z" style="fill:#455a64"></path><path d="M449.11,385.34c.06.1-3.69,2.05-8.37,4.37s-8.54,4.11-8.6,4,3.69-2.06,8.37-4.37S449.05,385.24,449.11,385.34Z" style="fill:#455a64"></path><path d="M367.52,239.59l3.55,4.45v-7.65h11.2s1.24,17.51,1,21.24a29.49,29.49,0,0,1-1.37,5.71A6.57,6.57,0,0,1,371,266.06a38.66,38.66,0,0,1-3.5-3.9c-5-6.4-13.24-22-13.24-22L362.9,235Z" style="fill:#ffbf9d"></path><path d="M366.81,238.77a13.24,13.24,0,0,0,1.46,2c1,1.17,2.26,2.78,3.75,4.52s2.91,3.28,4,4.33a8.16,8.16,0,0,0,1.9,1.54,18.84,18.84,0,0,0-1.64-1.8c-1-1.1-2.38-2.67-3.87-4.41C369.46,241.41,366.94,238.65,366.81,238.77Z" style="fill:#ff9a6c"></path><polygon points="393.06 185.8 404.87 181.16 426.62 179.93 436.84 183.82 422.83 191.6 410.75 191.16 393.06 185.8" style="fill:#ffbf9d"></polygon><path d="M379.13,296.9c1.07.18,72.33,3.21,72.33,3.21L449,236l-.21-12.58-4-38.11s-10.66-3.67-16.09-5.42c0,0-5.72,6-16.6,5.8-10.63-.15-12.85-2.55-12.85-2.55l-14.86,5.7s-10.57,3.79-12.39,8.47-5,30.55-5,30.55h15.41L382,273.83Z" style="fill:#455a64"></path><g style="opacity:0.2"><polyline points="423.94 211.38 426.15 227.54 436.84 232.31 444.74 225.58 444.74 210.58 423.94 211.38"></polyline></g><path d="M444.46,216c0,.13-4.44.24-9.92.24s-9.93-.11-9.93-.24a98.21,98.21,0,0,1,9.93-.25A97.92,97.92,0,0,1,444.46,216Z" style="fill:#263238"></path><path d="M374.33,204a2.93,2.93,0,0,1,.12.43c.07.32.16.72.28,1.23a40.7,40.7,0,0,0,1.42,4.55c.71,1.91,1.71,4.16,2.94,6.68s2.21,5.53,3.3,8.73l0,0v0c0,3.84,0,8-.08,12.43-.1,9.8-.2,18.67-.26,25.14-.06,3.18-.1,5.77-.14,7.62q0,1.29-.06,2.07a4.08,4.08,0,0,1-.05.72,5.15,5.15,0,0,1,0-.73q0-.76,0-2.07c0-1.84,0-4.44,0-7.62,0-6.47.08-15.34.13-25.13,0-4.39.08-8.59.11-12.43v.07c-1.07-3.2-2.1-6.17-3.22-8.72a70.52,70.52,0,0,1-2.86-6.74,35.18,35.18,0,0,1-1.31-4.6c-.1-.55-.18-1-.22-1.26A2.09,2.09,0,0,1,374.33,204Z" style="fill:#263238"></path><path d="M449.88,196.52a9,9,0,0,1,0,1.37c0,1-.08,2.22-.14,3.72-.13,3.22-.3,7.52-.49,12.27s-.41,9.06-.55,12.28c-.09,1.5-.16,2.75-.22,3.72a7,7,0,0,1-.14,1.36,8.66,8.66,0,0,1,0-1.37c0-1,0-2.22.07-3.72.08-3.15.22-7.49.42-12.28s.42-9.14.62-12.27c.1-1.57.2-2.84.29-3.72A7.77,7.77,0,0,1,449.88,196.52Z" style="fill:#263238"></path><g style="opacity:0.30000000000000004"><path d="M374.37,206.35a26.74,26.74,0,0,0,7,19.09C379.92,218.83,376.3,212.68,374.37,206.35Z"></path></g><g style="opacity:0.30000000000000004"><path d="M405.67,269.78a13.34,13.34,0,0,0,8.55-4.76,40.53,40.53,0,0,0,5.75-8.31,32.76,32.76,0,0,0,3.36-13.08C419.18,254.76,413.1,263.56,405.67,269.78Z"></path></g><path d="M424.65,238.78a2.13,2.13,0,0,1-.06.41c-.07.32-.16.7-.26,1.16s-.26,1.11-.48,1.81-.43,1.5-.75,2.37a54.62,54.62,0,0,1-2.46,6,57.33,57.33,0,0,1-8.75,13.17,50,50,0,0,1-4.6,4.56c-.67.63-1.34,1.13-1.91,1.59s-1.07.83-1.5,1.12l-1,.67c-.23.14-.35.22-.36.2a1.65,1.65,0,0,1,.3-.28l.93-.74c.41-.3.9-.69,1.45-1.17s1.2-1,1.86-1.63a58.82,58.82,0,0,0,4.49-4.6,67.68,67.68,0,0,0,4.77-6.26,69.38,69.38,0,0,0,3.92-6.81,61.39,61.39,0,0,0,2.53-5.91c.34-.85.58-1.65.81-2.34s.42-1.29.56-1.78.24-.82.34-1.13S424.63,238.77,424.65,238.78Z" style="fill:#263238"></path><path d="M422.59,218.72a5.06,5.06,0,0,1-.09.66c-.08.47-.19,1.09-.32,1.86s-.33,1.79-.62,2.92-.55,2.44-1,3.84c-.2.7-.42,1.44-.65,2.21s-.53,1.55-.81,2.36c-.53,1.65-1.25,3.35-2,5.15A85.66,85.66,0,0,1,404,259.21c-1.27,1.46-2.46,2.88-3.68,4.1-.6.62-1.16,1.24-1.74,1.79s-1.13,1.09-1.67,1.59c-1,1-2.08,1.87-3,2.63s-1.66,1.39-2.32,1.88l-1.51,1.14a2.76,2.76,0,0,1-.54.37,3.47,3.47,0,0,1,.48-.44l1.45-1.21c.64-.51,1.42-1.14,2.27-1.93s1.88-1.63,2.91-2.68l1.64-1.6c.57-.56,1.12-1.18,1.71-1.8,1.21-1.23,2.38-2.65,3.64-4.12a88.32,88.32,0,0,0,13.08-21.38c.74-1.79,1.46-3.47,2-5.1.29-.82.59-1.59.83-2.35s.46-1.49.68-2.19c.46-1.39.75-2.68,1.06-3.81s.53-2.1.69-2.9.31-1.37.41-1.84A3.1,3.1,0,0,1,422.59,218.72Z" style="fill:#263238"></path><path d="M366.28,198.79l27.44,41.72a1.23,1.23,0,0,1-1.19,1.9l-31.6-4a1.26,1.26,0,0,1-.84-.5l-30.18-41.22a1.24,1.24,0,0,1,1.09-2l32.51,2.4A3.66,3.66,0,0,1,366.28,198.79Z" style="fill:#e0e0e0"></path><path d="M366.28,198.79a1.93,1.93,0,0,0-.25-.38,3.65,3.65,0,0,0-1-.86,4.49,4.49,0,0,0-2.11-.51L360,196.8l-18.74-1.47-6.21-.48-3.3-.25c-.29,0-.54,0-.87,0a1.42,1.42,0,0,0-.91.37,1.45,1.45,0,0,0-.24,1.86l8.78,12.05c6.2,8.47,13,17.78,20.15,27.56.46.61.87,1.2,1.37,1.84a1.43,1.43,0,0,0,.56.38,2.18,2.18,0,0,0,.61.12l1.12.14,4.42.56,8.64,1.08,16.34,2c.34,0,.62.09,1,.11a1.47,1.47,0,0,0,1.05-.43,1.52,1.52,0,0,0,.43-1,1.69,1.69,0,0,0-.38-1L391.7,237l-4-6-7.16-10.83c-4.38-6.59-7.92-11.94-10.39-15.65l-2.85-4.25c-.32-.46-.57-.83-.76-1.09a3,3,0,0,0-.27-.37,3.87,3.87,0,0,0,.23.4l.71,1.12c.64,1,1.57,2.45,2.76,4.3l10.26,15.75,7.11,10.86,4,6.05,2.08,3.17a1.26,1.26,0,0,1,.3.75,1.06,1.06,0,0,1-.3.7,1,1,0,0,1-.7.29c-.27,0-.64-.08-.95-.11L375.4,240l-8.64-1.09-4.42-.56-1.11-.14a2.54,2.54,0,0,1-.49-.09,1,1,0,0,1-.37-.25c-.44-.6-.88-1.19-1.32-1.8-7.16-9.76-14-19.06-20.18-27.53-3.11-4.22-6.05-8.24-8.81-12a1,1,0,0,1,.8-1.57c.23,0,.55,0,.82.05l3.3.24,6.22.44L360,197l2.94.2a4.32,4.32,0,0,1,2.07.45A4,4,0,0,1,366.28,198.79Z" style="fill:#263238"></path><path d="M329.91,196.72a3.29,3.29,0,0,0,.66.1l1.92.2,7.14.63,24.28,2-.19-.11c1.52,2.26,3.09,4.6,4.66,7,6.41,9.85,12,18.91,16.23,25.35,2.1,3.23,3.85,5.81,5.07,7.59l1.42,2a4.26,4.26,0,0,0,.53.68,7.16,7.16,0,0,0-.44-.74l-1.34-2.09-4.93-7.67c-4.14-6.49-9.69-15.57-16.1-25.43-1.57-2.43-3.15-4.77-4.68-7l-.07-.1H364l-24.29-1.8-7.15-.48-1.93-.11A4.84,4.84,0,0,0,329.91,196.72Z" style="fill:#263238"></path><path d="M349.5,202.62Z" style="fill:#fff"></path><path d="M348.72,203.09a.63.63,0,0,1,.78-.47,1.75,1.75,0,0,1,.85.47.86.86,0,0,1,.15,1.09c-.31.39-1,.24-1.34-.08A1.13,1.13,0,0,1,348.72,203.09Z" style="fill:#fff"></path><path d="M363.48,226.47s1.24-3-1.92-3.36a110.52,110.52,0,0,0-11.47,0s-4.55.48-3.59,3.74c0,0-2.68,2.4-1.24,5s2,1.82,2,1.82-.38,3.17,2,3.64c0,0,2.6,3.07,5,2.88s12.55-5.08,13.22-6,1.63-1.5,1.06-2.57c0,0,1.24-2.81-1.44-3.24C367.12,228.33,366.93,226,363.48,226.47Z" style="fill:#ffbf9d"></path><path d="M349.06,227.54a8.22,8.22,0,0,0,2.14.16c1.32,0,3.14,0,5.15,0a29.87,29.87,0,0,0,5.18-.3c1.36-.32,1.9-1.12,1.84-1.14a5.67,5.67,0,0,1-1.92.77c-1.25.21-3.1.08-5.11.15s-3.83.09-5.15.15A8.93,8.93,0,0,0,349.06,227.54Z" style="fill:#ff9a6c"></path><path d="M351.32,232.34a1.76,1.76,0,0,0,.69.23,7.41,7.41,0,0,0,2,.13,13.85,13.85,0,0,0,2.88-.53c1.06-.29,2.19-.7,3.38-1.06a15.27,15.27,0,0,1,3.41-.71,5.17,5.17,0,0,0,2.9-.58,1.67,1.67,0,0,0,.69-1,1.36,1.36,0,0,0-.12-.9c-.25-.45-.59-.48-.58-.46s.24.14.39.55a1.23,1.23,0,0,1-.59,1.49,5.25,5.25,0,0,1-2.72.41,14.07,14.07,0,0,0-3.53.68l-3.36,1.11a17.4,17.4,0,0,1-2.78.62A22,22,0,0,1,351.32,232.34Z" style="fill:#ff9a6c"></path><path d="M354.72,236.39a8.27,8.27,0,0,0,2.14-.41c1.3-.33,3.08-.84,5-1.47s3.68-1.28,4.92-1.79a8.45,8.45,0,0,0,2-.93c-.06-.14-3.18,1-7,2.21S354.68,236.25,354.72,236.39Z" style="fill:#ff9a6c"></path><path d="M353.91,240.15a4.48,4.48,0,0,0,1.77-.2,21.25,21.25,0,0,0,4.05-1.43c1.52-.69,2.85-1.4,3.81-1.91a6.17,6.17,0,0,0,1.52-.92,34.28,34.28,0,0,0-5.55,2.35C356.52,239.48,353.89,240,353.91,240.15Z" style="fill:#ff9a6c"></path><path d="M454.93,211.56S448.47,237.44,440.4,247c-7.82,9.26-20.07,5-24.31-7s-11.8-39.31-11.8-39.31l9.28-7.1,16,31.09,7.23-21.19Z" style="fill:#ffbf9d"></path><path d="M404.72,201.43l-6.81-9.87a17.21,17.21,0,0,1-2.9-.9c-.77-.45-1.53-4.37-1.51-5.13s-1.32-2.55-.78-3.06,2.36-.54,2.26-1.27c0-.16-1.35-1.8-.29-3a5.67,5.67,0,0,1,1.92-.81l-.11-3.77s2-4.44,4.11-2.83c0,0,7.83,6,8.62,7s3.81,13.49,4.34,15.84" style="fill:#ffbf9d"></path><path d="M413.57,193.61a3.27,3.27,0,0,0-.1-.66c-.11-.48-.24-1.1-.41-1.88-.36-1.64-.91-4-1.65-6.91-.38-1.46-.79-3-1.32-4.75-.13-.42-.27-.85-.45-1.29a2.93,2.93,0,0,0-.92-1.13c-.72-.63-1.47-1.25-2.24-1.88-1.55-1.25-3.2-2.55-4.91-3.88a6,6,0,0,0-1.44-.95,2,2,0,0,0-1.76.42,8.15,8.15,0,0,0-2.09,2.82l0,0v.06c0,.37,0,.76,0,1.15,0,.88,0,1.76.08,2.62l.18-.24a8.59,8.59,0,0,0-1.38.46,2.15,2.15,0,0,0-.67.44,1.94,1.94,0,0,0-.38.69,2.32,2.32,0,0,0,.12,1.5,3.87,3.87,0,0,0,.31.65l.17.29,0,.07s0,0,0,0a.17.17,0,0,1,0,.07c0,.08-.2.2-.39.27s-.4.14-.61.21a6,6,0,0,0-.64.21,1.21,1.21,0,0,0-.65.46,1.06,1.06,0,0,0,0,.8,4.29,4.29,0,0,0,.23.63c.17.4.36.78.5,1.15a1.55,1.55,0,0,1,.12.53,4.34,4.34,0,0,0,.06.64c.06.41.13.81.22,1.21a16.48,16.48,0,0,0,.63,2.27,3,3,0,0,0,.6,1.05,3.71,3.71,0,0,0,1.06.47c.69.21,1.37.38,2,.53l-.11-.07,5,7.16,1.4,1.94a5.14,5.14,0,0,0,.52.66,6.71,6.71,0,0,0-.43-.72l-1.32-2c-1.19-1.77-2.86-4.24-4.91-7.26l0-.06H398c-.64-.16-1.31-.34-2-.55a3.66,3.66,0,0,1-.91-.4,2.67,2.67,0,0,1-.48-.89,15.37,15.37,0,0,1-.6-2.22c-.08-.39-.15-.78-.21-1.18,0-.19,0-.4,0-.58a2.11,2.11,0,0,0-.14-.68c-.15-.41-.34-.79-.5-1.18a3.28,3.28,0,0,1-.21-.57.67.67,0,0,1,0-.46.92.92,0,0,1,.42-.25,5.45,5.45,0,0,1,.61-.2c.21-.07.43-.13.65-.22a1.09,1.09,0,0,0,.64-.53.58.58,0,0,0,.05-.26.41.41,0,0,0-.05-.18l0-.08-.17-.29a4.53,4.53,0,0,1-.28-.59,1.89,1.89,0,0,1-.1-1.19,1.32,1.32,0,0,1,.28-.52,1.72,1.72,0,0,1,.51-.31,8.63,8.63,0,0,1,1.3-.44l.18-.05v-.19c0-.86-.05-1.73-.08-2.61,0-.39,0-.79,0-1.15l0,.11a7.62,7.62,0,0,1,1.93-2.64,1.47,1.47,0,0,1,1.34-.35,5.91,5.91,0,0,1,1.29.86c1.72,1.33,3.37,2.62,4.92,3.86.78.62,1.53,1.23,2.24,1.84a2.52,2.52,0,0,1,.83,1c.17.41.31.84.45,1.25.53,1.68,1,3.27,1.36,4.71.75,2.87,1.37,5.2,1.8,6.87.21.77.37,1.39.49,1.86A3.14,3.14,0,0,0,413.57,193.61Z" style="fill:#ff9a6c"></path><path d="M396.61,177.39c0,.08.79,0,2,.14a15.25,15.25,0,0,1,2.14.49,9.86,9.86,0,0,0,2.77,0,5.24,5.24,0,0,1,4.37,1.42,5.77,5.77,0,0,1,1.05,1.67,2.6,2.6,0,0,0-.8-1.91,5.15,5.15,0,0,0-1.88-1.31,5.77,5.77,0,0,0-2.77-.35,10.72,10.72,0,0,1-2.65,0,11.59,11.59,0,0,0-2.21-.39A5.18,5.18,0,0,0,396.61,177.39Z" style="fill:#ff9a6c"></path><path d="M399.38,177.18c.11.06.43-.4.39-1.05s-.41-1.06-.51-1,0,.5,0,1S399.25,177.13,399.38,177.18Z" style="fill:#ff9a6c"></path><path d="M394.74,181.34a17.19,17.19,0,0,0,5.9-.46,5.83,5.83,0,0,1,2.17-.28,2.36,2.36,0,0,1,1.41.93A11.68,11.68,0,0,1,405,183a2.67,2.67,0,0,0-.49-1.7,2.6,2.6,0,0,0-1.6-1.16,5.59,5.59,0,0,0-2.36.23C397.38,181.09,394.74,181.2,394.74,181.34Z" style="fill:#ff9a6c"></path><path d="M393.7,184.9a3.19,3.19,0,0,0,1.45,0c.89-.1,2.09-.41,3.39-.67a7.6,7.6,0,0,1,1.83-.18,2.13,2.13,0,0,1,1.31.48,2.16,2.16,0,0,1,.65,1.15s.09-.13.08-.4a1.63,1.63,0,0,0-.49-1,2.34,2.34,0,0,0-1.51-.67,7,7,0,0,0-2,.15c-1.34.26-2.5.62-3.36.8A6.85,6.85,0,0,0,393.7,184.9Z" style="fill:#ff9a6c"></path><path d="M396,187.72c-.08.06.59.76,1.81.76l-.24-.21c0,.21,0,.42.07.63a7,7,0,0,0,.56,2.49,6.81,6.81,0,0,0-.08-2.54l-.09-.63,0-.22h-.21A8.29,8.29,0,0,1,396,187.72Z" style="fill:#ff9a6c"></path><path d="M444.71,185.35s13.23,3.2,13.2,20.75-4,26.21-4,26.21L429.52,219,435,205.37Z" style="fill:#455a64"></path><path d="M453.91,232.31a2.09,2.09,0,0,1-.5-.22l-1.42-.72-5.2-2.74-17.39-9.37-.2-.1.08-.21,1.31-3.42c1.56-4.05,3-7.91,4.4-11.42.68-1.75,1.32-3.42,1.93-5a30.21,30.21,0,0,1,1.93-4.26,13.26,13.26,0,0,1,4.4-5.09,5.24,5.24,0,0,1,1.72-.69,2.82,2.82,0,0,1,.47-.06h.17a6.68,6.68,0,0,0-2.25.92,13.26,13.26,0,0,0-4.19,5.1,31.72,31.72,0,0,0-1.85,4.23c-.59,1.57-1.22,3.24-1.89,5l-4.36,11.44-1.31,3.42-.12-.32L447,228.33l5.12,2.88,1.37.8A2.36,2.36,0,0,1,453.91,232.31Z" style="fill:#263238"></path></g></svg>
