<?xml version="1.0" encoding="UTF-8"?>
<svg width="700pt" height="700pt" version="1.1" viewBox="0 0 700 700" xmlns="http://www.w3.org/2000/svg" xmlns:xlink="http://www.w3.org/1999/xlink">
 <defs>
  <symbol id="u" overflow="visible">
   <path d="m18.766-1.125c-0.96875 0.5-1.9805 0.875-3.0312 1.125-1.043 0.25781-2.1367 0.39062-3.2812 0.39062-3.3984 0-6.0898-0.94531-8.0781-2.8438-1.9922-1.9062-2.9844-4.4844-2.9844-7.7344 0-3.2578 0.99219-5.8359 2.9844-7.7344 1.9883-1.9062 4.6797-2.8594 8.0781-2.8594 1.1445 0 2.2383 0.13281 3.2812 0.39062 1.0508 0.25 2.0625 0.625 3.0312 1.125v4.2188c-0.98047-0.65625-1.9453-1.1406-2.8906-1.4531-0.94922-0.3125-1.9492-0.46875-3-0.46875-1.875 0-3.3516 0.60547-4.4219 1.8125-1.0742 1.1992-1.6094 2.8555-1.6094 4.9688 0 2.1055 0.53516 3.7617 1.6094 4.9688 1.0703 1.1992 2.5469 1.7969 4.4219 1.7969 1.0508 0 2.0508-0.14844 3-0.45312 0.94531-0.3125 1.9102-0.80078 2.8906-1.4688z"/>
  </symbol>
  <symbol id="b" overflow="visible">
   <path d="m13.734-11.141c-0.4375-0.19531-0.87109-0.34375-1.2969-0.4375-0.41797-0.10156-0.83984-0.15625-1.2656-0.15625-1.2617 0-2.2305 0.40625-2.9062 1.2188-0.67969 0.80469-1.0156 1.9531-1.0156 3.4531v7.0625h-4.8906v-15.312h4.8906v2.5156c0.625-1 1.3438-1.7266 2.1562-2.1875 0.82031-0.46875 1.8008-0.70312 2.9375-0.70312 0.16406 0 0.34375 0.011719 0.53125 0.03125 0.19531 0.011719 0.47656 0.039062 0.84375 0.078125z"/>
  </symbol>
  <symbol id="a" overflow="visible">
   <path d="m17.641-7.7031v1.4062h-11.453c0.125 1.1484 0.53906 2.0078 1.25 2.5781 0.70703 0.57422 1.7031 0.85938 2.9844 0.85938 1.0312 0 2.082-0.14844 3.1562-0.45312 1.082-0.3125 2.1914-0.77344 3.3281-1.3906v3.7656c-1.1562 0.4375-2.3125 0.76562-3.4688 0.98438-1.1562 0.22656-2.3125 0.34375-3.4688 0.34375-2.7734 0-4.9297-0.70312-6.4688-2.1094-1.5312-1.4062-2.2969-3.3789-2.2969-5.9219 0-2.5 0.75391-4.4609 2.2656-5.8906 1.5078-1.4375 3.582-2.1562 6.2188-2.1562 2.4062 0 4.332 0.73047 5.7812 2.1875 1.4453 1.4492 2.1719 3.3828 2.1719 5.7969zm-5.0312-1.625c0-0.92578-0.27344-1.6719-0.8125-2.2344-0.54297-0.57031-1.25-0.85938-2.125-0.85938-0.94922 0-1.7188 0.26562-2.3125 0.79688s-0.96484 1.2969-1.1094 2.2969z"/>
  </symbol>
  <symbol id="f" overflow="visible">
   <path d="m9.2188-6.8906c-1.0234 0-1.793 0.17188-2.3125 0.51562-0.51172 0.34375-0.76562 0.85547-0.76562 1.5312 0 0.625 0.20703 1.1172 0.625 1.4688 0.41406 0.34375 0.98828 0.51562 1.7188 0.51562 0.92578 0 1.7031-0.32812 2.3281-0.98438 0.63281-0.66406 0.95312-1.4922 0.95312-2.4844v-0.5625zm7.4688-1.8438v8.7344h-4.9219v-2.2656c-0.65625 0.92969-1.3984 1.6055-2.2188 2.0312-0.82422 0.41406-1.8242 0.625-3 0.625-1.5859 0-2.8711-0.45703-3.8594-1.375-0.99219-0.92578-1.4844-2.1289-1.4844-3.6094 0-1.7891 0.61328-3.1016 1.8438-3.9375 1.2383-0.84375 3.1797-1.2656 5.8281-1.2656h2.8906v-0.39062c0-0.76953-0.30859-1.332-0.92188-1.6875-0.61719-0.36328-1.5703-0.54688-2.8594-0.54688-1.0547 0-2.0312 0.10547-2.9375 0.3125-0.89844 0.21094-1.7305 0.52344-2.5 0.9375v-3.7344c1.0391-0.25 2.0859-0.44141 3.1406-0.57812 1.0625-0.13281 2.125-0.20312 3.1875-0.20312 2.7578 0 4.75 0.54688 5.9688 1.6406 1.2266 1.0859 1.8438 2.8555 1.8438 5.3125z"/>
  </symbol>
  <symbol id="c" overflow="visible">
   <path d="m7.7031-19.656v4.3438h5.0469v3.5h-5.0469v6.5c0 0.71094 0.14062 1.1875 0.42188 1.4375s0.83594 0.375 1.6719 0.375h2.5156v3.5h-4.1875c-1.9375 0-3.3125-0.39844-4.125-1.2031-0.80469-0.8125-1.2031-2.1797-1.2031-4.1094v-6.5h-2.4219v-3.5h2.4219v-4.3438z"/>
  </symbol>
  <symbol id="i" overflow="visible">
   <path d="m12.766-13.078v-8.2031h4.9219v21.281h-4.9219v-2.2188c-0.66797 0.90625-1.4062 1.5703-2.2188 1.9844s-1.7578 0.625-2.8281 0.625c-1.8867 0-3.4336-0.75-4.6406-2.25-1.2109-1.5-1.8125-3.4258-1.8125-5.7812 0-2.3633 0.60156-4.2969 1.8125-5.7969 1.207-1.5 2.7539-2.25 4.6406-2.25 1.0625 0 2 0.21484 2.8125 0.64062 0.82031 0.42969 1.5664 1.0859 2.2344 1.9688zm-3.2188 9.9219c1.0391 0 1.8359-0.37891 2.3906-1.1406 0.55078-0.76953 0.82812-1.8828 0.82812-3.3438 0-1.457-0.27734-2.5664-0.82812-3.3281-0.55469-0.76953-1.3516-1.1562-2.3906-1.1562-1.043 0-1.8398 0.38672-2.3906 1.1562-0.55469 0.76172-0.82812 1.8711-0.82812 3.3281 0 1.4609 0.27344 2.5742 0.82812 3.3438 0.55078 0.76172 1.3477 1.1406 2.3906 1.1406z"/>
  </symbol>
  <symbol id="h" overflow="visible">
   <path d="m10.5-3.1562c1.0508 0 1.8516-0.37891 2.4062-1.1406 0.55078-0.76953 0.82812-1.8828 0.82812-3.3438 0-1.457-0.27734-2.5664-0.82812-3.3281-0.55469-0.76953-1.3555-1.1562-2.4062-1.1562-1.0547 0-1.8594 0.38672-2.4219 1.1562-0.55469 0.77344-0.82812 1.8828-0.82812 3.3281 0 1.4492 0.27344 2.5586 0.82812 3.3281 0.5625 0.77344 1.3672 1.1562 2.4219 1.1562zm-3.25-9.9219c0.67578-0.88281 1.4219-1.5391 2.2344-1.9688 0.82031-0.42578 1.7656-0.64062 2.8281-0.64062 1.8945 0 3.4453 0.75 4.6562 2.25 1.207 1.5 1.8125 3.4336 1.8125 5.7969 0 2.3555-0.60547 4.2812-1.8125 5.7812-1.2109 1.5-2.7617 2.25-4.6562 2.25-1.0625 0-2.0078-0.21094-2.8281-0.625-0.8125-0.42578-1.5586-1.0859-2.2344-1.9844v2.2188h-4.8906v-21.281h4.8906z"/>
  </symbol>
  <symbol id="e" overflow="visible">
   <path d="m0.34375-15.312h4.8906l4.125 10.391 3.5-10.391h4.8906l-6.4375 16.766c-0.64844 1.6953-1.4023 2.8828-2.2656 3.5625-0.86719 0.6875-2 1.0312-3.4062 1.0312h-2.8438v-3.2188h1.5312c0.83203 0 1.4375-0.13672 1.8125-0.40625 0.38281-0.26172 0.67969-0.73047 0.89062-1.4062l0.14062-0.42188z"/>
  </symbol>
  <symbol id="g" overflow="visible">
   <path d="m0.14062-20.406h5.2812l5.4219 15.062 5.4062-15.062h5.2812l-7.5625 20.406h-6.2656z"/>
  </symbol>
  <symbol id="t" overflow="visible">
   <path d="m2.3594-21.281h4.8906v21.281h-4.8906z"/>
  </symbol>
  <symbol id="s" overflow="visible">
   <path d="m2.3594-15.312h4.8906v15.312h-4.8906zm0-5.9688h4.8906v4h-4.8906z"/>
  </symbol>
  <symbol id="r" overflow="visible">
   <path d="m12.422-21.281v3.2188h-2.7031c-0.6875 0-1.1719 0.125-1.4531 0.375-0.27344 0.25-0.40625 0.6875-0.40625 1.3125v1.0625h4.1875v3.5h-4.1875v11.812h-4.8906v-11.812h-2.4375v-3.5h2.4375v-1.0625c0-1.6641 0.46094-2.8984 1.3906-3.7031 0.92578-0.80078 2.3672-1.2031 4.3281-1.2031z"/>
  </symbol>
  <symbol id="d" overflow="visible">
   <path d="m9.6406-12.188c-1.0859 0-1.9141 0.39062-2.4844 1.1719-0.57422 0.78125-0.85938 1.9062-0.85938 3.375s0.28516 2.5938 0.85938 3.375c0.57031 0.77344 1.3984 1.1562 2.4844 1.1562 1.0625 0 1.875-0.38281 2.4375-1.1562 0.57031-0.78125 0.85938-1.9062 0.85938-3.375s-0.28906-2.5938-0.85938-3.375c-0.5625-0.78125-1.375-1.1719-2.4375-1.1719zm0-3.5c2.6328 0 4.6914 0.71484 6.1719 2.1406 1.4766 1.418 2.2188 3.3867 2.2188 5.9062 0 2.5117-0.74219 4.4805-2.2188 5.9062-1.4805 1.418-3.5391 2.125-6.1719 2.125-2.6484 0-4.7148-0.70703-6.2031-2.125-1.4922-1.4258-2.2344-3.3945-2.2344-5.9062 0-2.5195 0.74219-4.4883 2.2344-5.9062 1.4883-1.4258 3.5547-2.1406 6.2031-2.1406z"/>
  </symbol>
  <symbol id="q" overflow="visible">
   <path d="m16.547-12.766c0.61328-0.94531 1.3477-1.6719 2.2031-2.1719 0.85156-0.5 1.7891-0.75 2.8125-0.75 1.7578 0 3.0977 0.54688 4.0156 1.6406 0.92578 1.0859 1.3906 2.6562 1.3906 4.7188v9.3281h-4.9219v-7.9844-0.35938c0.007813-0.13281 0.015625-0.32031 0.015625-0.5625 0-1.082-0.16406-1.8633-0.48438-2.3438-0.3125-0.48828-0.82422-0.73438-1.5312-0.73438-0.92969 0-1.6484 0.38672-2.1562 1.1562-0.51172 0.76172-0.77344 1.8672-0.78125 3.3125v7.5156h-4.9219v-7.9844c0-1.6953-0.14844-2.7852-0.4375-3.2656-0.29297-0.48828-0.8125-0.73438-1.5625-0.73438-0.9375 0-1.6641 0.38672-2.1719 1.1562-0.51172 0.76172-0.76562 1.8594-0.76562 3.2969v7.5312h-4.9219v-15.312h4.9219v2.2344c0.60156-0.86328 1.2891-1.5156 2.0625-1.9531 0.78125-0.4375 1.6406-0.65625 2.5781-0.65625 1.0625 0 2 0.25781 2.8125 0.76562 0.8125 0.51172 1.4258 1.2305 1.8438 2.1562z"/>
  </symbol>
  <symbol id="p" overflow="visible">
   <path d="m17.75-9.3281v9.3281h-4.9219v-7.1094c0-1.3438-0.03125-2.2656-0.09375-2.7656s-0.16797-0.86719-0.3125-1.1094c-0.1875-0.3125-0.44922-0.55469-0.78125-0.73438-0.32422-0.17578-0.69531-0.26562-1.1094-0.26562-1.0234 0-1.8242 0.39844-2.4062 1.1875-0.58594 0.78125-0.875 1.8711-0.875 3.2656v7.5312h-4.8906v-21.281h4.8906v8.2031c0.73828-0.88281 1.5195-1.5391 2.3438-1.9688 0.83203-0.42578 1.75-0.64062 2.75-0.64062 1.7695 0 3.1133 0.54688 4.0312 1.6406 0.91406 1.0859 1.375 2.6562 1.375 4.7188z"/>
  </symbol>
  <symbol id="o" overflow="visible">
   <path d="m2.5781-20.406h5.875l7.4219 14v-14h4.9844v20.406h-5.875l-7.4219-14v14h-4.9844z"/>
  </symbol>
  <symbol id="n" overflow="visible">
   <path d="m2.1875-5.9688v-9.3438h4.9219v1.5312c0 0.83594-0.007813 1.875-0.015625 3.125-0.011719 1.25-0.015625 2.0859-0.015625 2.5 0 1.2422 0.03125 2.1328 0.09375 2.6719 0.070313 0.54297 0.17969 0.93359 0.32812 1.1719 0.20703 0.32422 0.47266 0.57422 0.79688 0.75 0.32031 0.16797 0.69141 0.25 1.1094 0.25 1.0195 0 1.8203-0.39062 2.4062-1.1719 0.58203-0.78125 0.875-1.8672 0.875-3.2656v-7.5625h4.8906v15.312h-4.8906v-2.2188c-0.74219 0.89844-1.5234 1.5586-2.3438 1.9844-0.82422 0.41406-1.7344 0.625-2.7344 0.625-1.7617 0-3.1055-0.53906-4.0312-1.625-0.92969-1.082-1.3906-2.6602-1.3906-4.7344z"/>
  </symbol>
  <symbol id="m" overflow="visible">
   <path d="m17.75-9.3281v9.3281h-4.9219v-7.1406c0-1.3203-0.03125-2.2344-0.09375-2.7344s-0.16797-0.86719-0.3125-1.1094c-0.1875-0.3125-0.44922-0.55469-0.78125-0.73438-0.32422-0.17578-0.69531-0.26562-1.1094-0.26562-1.0234 0-1.8242 0.39844-2.4062 1.1875-0.58594 0.78125-0.875 1.8711-0.875 3.2656v7.5312h-4.8906v-15.312h4.8906v2.2344c0.73828-0.88281 1.5195-1.5391 2.3438-1.9688 0.83203-0.42578 1.75-0.64062 2.75-0.64062 1.7695 0 3.1133 0.54688 4.0312 1.6406 0.91406 1.0859 1.375 2.6562 1.375 4.7188z"/>
  </symbol>
  <symbol id="l" overflow="visible">
   <path d="m2.5781-20.406h8.7344c2.5938 0 4.582 0.57812 5.9688 1.7344 1.3945 1.1484 2.0938 2.7891 2.0938 4.9219 0 2.1367-0.69922 3.7812-2.0938 4.9375-1.3867 1.1562-3.375 1.7344-5.9688 1.7344h-3.4844v7.0781h-5.25zm5.25 3.8125v5.7031h2.9219c1.0195 0 1.8047-0.25 2.3594-0.75 0.5625-0.5 0.84375-1.2031 0.84375-2.1094 0-0.91406-0.28125-1.6172-0.84375-2.1094-0.55469-0.48828-1.3398-0.73438-2.3594-0.73438z"/>
  </symbol>
  <symbol id="k" overflow="visible">
   <path d="m2.3594-15.312h4.8906v15.031c0 2.0508-0.49609 3.6172-1.4844 4.7031-0.98047 1.082-2.4062 1.625-4.2812 1.625h-2.4219v-3.2188h0.85938c0.92578 0 1.5625-0.21094 1.9062-0.625 0.35156-0.41797 0.53125-1.2461 0.53125-2.4844zm0-5.9688h4.8906v4h-4.8906z"/>
  </symbol>
  <symbol id="j" overflow="visible">
   <path d="m14.719-14.828v3.9844c-0.65625-0.45703-1.3242-0.79688-2-1.0156-0.66797-0.21875-1.3594-0.32812-2.0781-0.32812-1.3672 0-2.4336 0.40234-3.2031 1.2031-0.76172 0.79297-1.1406 1.9062-1.1406 3.3438 0 1.4297 0.37891 2.543 1.1406 3.3438 0.76953 0.79297 1.8359 1.1875 3.2031 1.1875 0.75781 0 1.4844-0.10938 2.1719-0.32812 0.6875-0.22656 1.3203-0.56641 1.9062-1.0156v4c-0.76172 0.28125-1.5391 0.48828-2.3281 0.625-0.78125 0.14453-1.5742 0.21875-2.375 0.21875-2.7617 0-4.9219-0.70703-6.4844-2.125-1.5547-1.4141-2.3281-3.3828-2.3281-5.9062 0-2.5312 0.77344-4.5039 2.3281-5.9219 1.5625-1.4141 3.7227-2.125 6.4844-2.125 0.80078 0 1.5938 0.074219 2.375 0.21875 0.78125 0.13672 1.5547 0.35156 2.3281 0.64062z"/>
  </symbol>
 </defs>
 <g>
  <path d="m601.84 117.07c-0.50781-5.3242-0.60547-10.684-1.6055-15.973-0.34766-1.8242-0.23438-3.7344 0.26953-5.6406 0.37891-1.4609 0.88672-3.1289 0.10547-4.625-2.6641-5.1289-1.9531-10.445-1.2227-15.836 0.60938-4.5312 3.3828-9.1992-0.52734-13.613-0.4375-0.49219-0.82812-1.5117-0.60547-2.0117 1.8203-4.1562-1.3984-3.9297-3.8125-4.4141-1.1406-0.23047-2.2852-0.48828-3.4375-0.60547-2.2227-0.23047-4.9727-1.0312-6.5391 0.3125-2.5156 2.1562-4.8398 1.4219-7.2969 0.8125-2.4141-0.59766-4.6328-0.44141-7.1523-0.20312-9.6328 0.92969-19.363 1.5586-29.031 1.2695-7.957-0.23438-15.949 0.70703-23.879-0.47656-3.3438-0.5-6.4727 0.90234-9.7617 1.0312-10.902 0.42578-21.727-1.3477-32.621-1.0078-0.72656 0.023438-1.4375 0.11328-1.7656-0.87891-0.55469-1.6758-2.0273-1.5352-3.4453-1.5898-7.4766-0.28125-14.801 0.91797-22.191 1.7578-6.0703 0.6875-12.207 1.0938-18.312 1.5586-5.3555 0.41016-10.73-0.13281-16.184-1.2305-5.7188-1.1523-11.781-1.6914-17.773-1.4492-10.555 0.42578-21.117 0.75-31.691 0.52734-4.207-0.089843-8.4336-0.19531-12.602-0.71875-2.168-0.26953-4.2852-1.0039-6.5312-1.2109-7-0.63672-14.074 0.47656-21.035-1.0625-1.5391-0.33984-3.1992-0.039063-2.2188 2.3477 0.58984 1.4375-0.69922 1.2031-1.3281 1.2266-2.5586 0.085937-5.1914 0.42188-7.6758-0.011719-10.27-1.7656-20.57 0.51953-30.855-0.33984-2.5078-0.20703-5.3438 0.83984-7.8945 0.29297-10.602-2.2891-21.387-1.7266-32.082-2.3594-10.125-0.59766-20.156 0.86328-30.211 1.8555-7.8242 0.77344-15.727-0.53125-23.625 0.56641-13.887 1.9336-27.797-1.3086-41.719-0.29688-0.41016 0.027344-0.83594-0.16797-1.2539-0.23438-9.0664-1.5-18.148-1.6133-27.328-0.95703-5.4062 0.37891-10.871 1.4961-16.352 0.19922-1.3828-0.32422-1.625 0.78516-1.8438 1.9609-0.90234 4.8086-1.0352 9.7031-0.4375 14.469 1.8125 14.449 0.57031 28.984 1.5234 43.469 0.37891 5.7617 1.0938 11.77-0.39062 17.613-0.17188 0.67188-0.22266 1.7852 0.17188 2.1211 1.6914 1.4375 1.0117 3.2773 1.1719 4.9766 0.33594 3.6406-0.027344 7.2695-0.074219 10.902-0.074219 6.1094 0.25781 12.23-0.035156 18.324-0.42188 8.6914-1.0938 17.375-1.9648 26.035-0.67578 6.7031-0.17969 13.266 0.67188 19.918 0.85156 6.6641 0.99609 13.43 1.2227 20.156 0.29688 8.7266 0.99609 17.438 0.58984 26.18-0.40234 8.5586-0.82422 17.121-1.0039 25.688-0.09375 4.7109 0.76172 9.4023-0.039063 14.156-0.30078 1.7812-1.5586 3.332-1.2617 5.1445 1.4609 8.8438-0.21875 17.746 0.875 26.691 0.91797 7.4922 0.99219 15.25 0.375 22.922-0.4375 5.4922-0.16406 5.5156 5.2461 5.4336 1.2812-0.023438 2.5703 0.035156 3.8359-0.11719 11.93-1.4219 23.844 0.58203 35.773 0.11328 0.21094-0.011719 0.46094-0.050782 0.63281 0.035156 4.8555 2.3633 9.8828 1.1367 14.879 0.72266 3.1016-0.25781 6.5742-1.3164 9.2109-0.30859 2.3672 0.90625 4.543 1.4297 6.9492 1.4297 4.0156-0.003906 7.9297-0.95703 11.918-1.332 10.879-1.0234 21.668-0.28125 32.465 0.80469 1.1016 0.11328 2 0.27344 2.75-0.83594 1.2109-1.7852 2.8008-1.9219 4.9375-1.4062 4.1094 0.99219 8.293 1.7539 12.617 1.0703 8.5195-1.3398 17.062-2.5469 25.574-1.2227 0.88672 7.2109-0.25781 14.504 0.28516 21.836 0.25391 3.4102 1.3203 6.6484 1.0039 10.32-1.1094 12.762-1.2383 25.602-1.8047 38.414-0.13281 3.0508-0.53125 6.0859-0.76562 9.1328-0.09375 1.2148-0.57031 1.4062-1.8125 1.3203-3.5-0.23438-6.957-0.85156-10.5-0.86328-5.3125-0.015625-10.68-0.10547-15.91-1.1367-4.1094-0.80469-7.3359 0.64844-10.426 2.9688-0.48047 0.35938-0.66797 0.80469-0.64844 1.3477 0.20703 5.7852 0.3125 11.57 0.68359 17.344 0.14062 2.1406 1.5391 3.1406 3.9492 3.0469 5.2188-0.20313 10.426 0.050781 15.625 0.73828 2.2773 0.30078 4.6211 0.35156 6.9844 0.015625 5.6602-0.80469 11.277-2.0117 17.125-0.98047 2.8672 0.50781 6.0352 0.50781 8.8633-0.13281 6.7773-1.5469 13.5-0.13281 20.215-0.039062 5.3086 0.074219 10.668 0.58984 15.949 0.14062 5.207-0.44922 10.219-1.2695 15.613-0.66016 6.9102 0.78516 14.016-0.16406 21.039-0.19141 3.293-0.015624 6.6484-1.8047 9.7617-0.54297 4.7109 1.8984 9.6055 2.1836 14.254 1.2695 7.0234-1.3789 14.016-0.62109 20.934-0.44141 7.9453 0.20312 15.844 0.83594 23.781-0.14453 2.5039-0.30859 5.0625-0.62891 7.5977 0.15625 3.3086 1.0234 3.3867 0.89453 3.3672-2.6758-0.027344-5.0664-0.42188-10.188 0.17969-15.18 0.30859-2.5586-0.78516-3.1289-2.418-3.4961-3.4648-0.77734-6.9844-1.3672-10.566-1.3594-8.0703 0.015625-16.141-0.074219-24.203 0.0625-2.0273 0.035156-2.5859-0.58984-2.4414-2.457 0.53125-6.9453 0.23438-13.883-0.21094-20.828-0.26172-4.0273-0.92578-8.25 1.8555-11.871 0.078125-13.586 0.95703-27.176-0.015625-40.762-0.14062-1.9922 0.44141-2.4766 2.2461-1.7656 1.8945 0.74609 3.8867 1.0977 5.9023 1.2148 1.1523 0.066406 2.7031 0.09375 2.7227-1.4492 0.023437-1.8242 0.99609-1.6523 2.2344-1.6758 4.375-0.085938 8.7812 0.55859 12.965 1.2617 5.4102 0.90234 11.234-2.7422 16.207 1.5469 0.19141 0.16406 0.71094 0.19531 0.92969 0.054687 2.9727-1.9258 3.2656 1.043 4.2266 2.3984 0.63672 0.89453 0.63672 2.2344 1.4883 3.0977 5.3945 5.5039 10.613 11.148 16.879 15.805 4.1094 3.0469 7.543 6.9258 9.0898 12.074 1.4961 4.9883 1.043 5.7969-4.1445 6.5391-0.41406 0.0625-0.85547-0.054688-1.2695 0.011718-0.86328 0.13281-0.99609 0.75-0.6875 1.3945 2.1992 4.6523 2.8164 9.7812 4.4688 14.594 1.6914 4.9336 2.2969 10.203 5.0977 14.805 1.1602 1.9102 1.9883 2.7734 4.1328 1.3984 1.1367-0.72656 2.0664-0.86328 2.3125 1.25 0.53906 4.5703 1.6875 9.1172 3.8906 13.172 2.6484 4.8711 3.8789 10.086 4.9609 15.395 0.94141 4.6328 2.0312 9.2344 4.3398 13.406 2.3008 4.1602 4.0547 8.5586 5.5625 13.016 1.6016 4.7422 3.7852 9.3906 3.4961 14.648-0.054687 1.0039 0.71875 2.7539 2.1914 2.5547 1.6758-0.23047 1.9141-1.668 1.4766-3.2266-0.93359-3.3281-1.7852-6.668-2.6719-10.008-0.23047-0.86719-0.90625-1.7695 0.14453-2.5586 1.1406-0.85547 0.63281-1.7422 0.21094-2.7734-3.7578-9.2305-6.5117-18.781-8.9805-28.402-2.6094-10.176-6.1367-20.043-9.5977-30.012 3.6328 0.0625 6.5469-2.3789 9.9531-3.4766 5.8906-1.8945 12.176-2.6875 17.5-6.3633 6.668-4.6016 14.141-7.5039 22.242-8.7305 2.8281-0.42969 5.6445-0.96875 8.4297-1.6055 8.1367-1.8828 16.258-3.8242 24.395-5.6992-0.18359 0.375-0.003906 0.71875 0.25781 1.1133 1.5078 2.2773 2.3125 4.8711 3.2773 7.3906 2.4141 6.3438 4.793 12.699 7.1641 19.062 0.34766 0.93359 0.8125 1.9336 1.8984 1.7031 1.25-0.26172 1.4844-1.4961 1.2656-2.5703-0.22266-1.1016-0.73828-2.1445-1.1406-3.2656 1.0234-0.5 3.0859 0.09375 2.9062-1.6641-0.15234-1.4766-1.8594-1.0859-2.9336-0.89453-1.5508 0.28125-1.5273-0.94531-1.7656-1.7031-1.332-4.1836-3.2812-8.3008-3.4062-12.691-0.11719-4.2109-3.4102-4.9688-5.9766-6.6484-0.078125-0.050782-0.19531-0.078126-0.29688-0.125 0.73438-0.16797 1.4688-0.34766 2.1992-0.51563 1.3008-0.29687 2.2383-0.92578 1.6914-2.0273-0.78516-1.5781-0.58984-3.2578-1.1211-4.8594-2.4062-7.2578-7.1562-13.293-10.566-20.02-1.2773-2.5195-3.6719-3.8086-6.8828-3.6445-2.8242 0.14453-5.5 0.70703-8.082 1.625-1.8867 0.67188-2.8047 0.25391-3.8789-1.3906-3.2812-5.0117-5.918-10.316-8.2695-16.027 6.6211 0.066407 13.094-0.4375 19.5 0.84375 2.3672 0.46875 4.6914 1.0859 7.125-0.074218 0.86719-0.41406 2.4141-0.49219 3.1133 0.003906 2.7148 1.9336 5.6992 0.95703 8.5586 1.1367 2.3125 0.14453 4.9219 1.6953 6.8438 0.39844 3.1484-2.1289 6.4336-1.6875 9.7148-1.5742 2.8516 0.09375 5.2461-0.23047 7.3203-2.4648 1.0312-1.1133 1.3906-1.5508 0.074219-2.6445-2.0117-1.6641-1.8242-3.3828 0.25391-4.4062 0.375 0.99609-0.23047 2.2344 0.50781 3.1523 0.95312-0.15234 1.0586-0.69922 1.0742-1.2031 0.24219-7.6484 0.46094-15.293 0.67188-22.941 0.039063-1.3672-0.44141-2.4141-2.2891-2.4453 2.1328-1.6133 2.5039-2.1445 2.6719-3.9688 0.90625-9.9727-0.19531-19.965 0.14453-29.941 0.15625-4.5469-1.7969-8.7148-1.5625-13.43 0.40234-8.2109 0.83594-16.488 0.15234-24.734-0.10156-1.2305-0.089844-2.4961 0.44922-3.7227 1.2656-2.918 0.73828-5.7305-0.76172-8.4219-0.41016-0.72656-1.1523-1.6406-0.035157-2.1406 2.0039-0.88672 1.5898-2.5078 1.6055-4.0391 0.042969-4.1992 0.16797-8.5273-0.44922-12.562-1.2812-8.3828 0.28516-16.645-0.09375-24.949-0.066406-1.4961 1.0195-3.3594-1.5586-3.9922-0.58984-0.14453-0.69531-0.99609 0.042969-1.4727 1.1094-0.71094 0.86328-1.832 0.86328-2.8555-0.015625-6.1445 0.91797-12.219 0.75-18.414-0.27344-9.8281 0.14062-19.691 0.59766-29.523 0.30078-6.5312 0.64453-13.047 0.58203-19.582-0.011718-0.99219 0.054688-2.1992 1.1992-2.2109 2.5117-0.023437 1.8984-1.5859 1.7578-3.0352zm-366.77 328.28c-0.33203 1.6758-1.7305 2.6328-2.9062 4.1445-0.90234-3.082-1.3164-5.4492 2.9062-4.1445zm4.9023 0.33594c-2.5547 3.8711-5.0195 7.5938-7.8164 11.832-0.52734-4.7383 4.2812-11.789 7.8164-11.832zm-5.0859 11.828c2.4805-4.082 4.7227-7.8359 7.043-11.543 1.125-1.793 2.457 0.15234 4.4453-0.57812-2.7344 4.25-4.9883 7.8242-7.3242 11.344-0.58984 0.89453-0.69922 0.82031-4.1641 0.77734zm9.582-1.9258c-0.85547 2.2305-0.78906 2.2578-3.4492 1.9414 2.2969-3.7305 4.3867-7.4688 6.8359-10.965 1.1602-1.6523 3.1133-0.71875 4.918-0.52734-2.3867 2.5586-4.5703 4.8672-6.6992 7.2188-0.63281 0.69922-1.2773 1.4727-1.6055 2.332zm2.2969 2.0664c-1.0078-0.24609-0.48828-1.3281 0.074219-1.9609 3.0625-3.4727 6.1367-6.9375 9.2383-10.375 0.29688-0.32422 0.79688-0.17187 1.1484 0.12891-2.1172 4.0586-5.5391 7.3203-7.168 11.711-0.52734 1.4297-2.293 0.74219-3.293 0.49609zm5.375 0.13281c1.7695-4.3047 4.7773-7.7266 6.8984-11.652 0.96484-1.7852 2.6211-1.3672 4.6641-1.7344-2.6445 4.3125-5.1367 8.1719-7.3906 12.152-1.1055 1.9453-2.6602 1.0312-4.1719 1.2344zm6.1875-0.23047c2.1992-3.8086 4.3906-7.4688 6.4531-11.195 1.2812-2.3203 2.5742-0.50781 4.207-0.30859-2.3203 3.543-4.5703 6.7969-6.6094 10.176-1.0039 1.6602-2.2031 1.8711-4.0508 1.3281zm12.996-85.328c4.4414 1.1406 4.4258-2.75 5.4492-4.9727 0.71875-1.5469 1.1641-3.3086 1.9375-4.8984 1.2109-2.5078 1.3828-2.5859 5.0859-2.082-2.9727 4.1094-3.3672 9.25-6.5117 13.164-0.88672 1.0977-0.69922 2.2969 0.40234 3.0469 1.0469 0.71875 1.9414-0.15234 2.3203-0.99609 1.5195-3.4141 3.7734-6.3008 6.2734-9.0391 0.42578-0.46875 0.83594-1.1719 0.17188-1.6445-0.62109-0.44922-1.0977 0.41016-1.6875 0.54688-0.066406 0.27344-0.12891 0.62891-0.50391 0.41406-0.09375-0.054687 0.039062-0.50391 0.074219-0.77344 2.043-4.9492 2.043-4.9492 8.7656-4.6758-2.8789 3.832-3.9258 8.3594-6.7891 11.938-0.85547 1.0703-0.79688 1.8828 0.17188 2.6836 1.1016 0.91406 1.7812-0.054687 2.3789-0.71875 1.1602-1.2773 1.625-2.9453 2.168-4.5195 1.0703-3.1211 3.2695-5.6328 4.5469-8.6289 0.17969-0.42188 0.39062-0.85547 0.86328-0.76562 2.1797 0.42578 4.0039-0.81641 6.832-1.6055-4.1992 5.1641-5.4023 10.871-7.9844 15.953-0.42187 0.82812-0.55859 1.6367 0.32422 2.2344 1.082 0.73438 1.4453-0.22266 1.9492-0.875 2.9336-3.7969 3.1602-8.7266 5.6172-12.789 2.4805-4.1094 2.1602-4.2969 7.3867-2.7891-1.418 2.4922-2.8164 4.9336-4.1953 7.3867-0.46484 0.82422-1.082 1.8828 0.054687 2.4414 1.1211 0.54688 1.5742-0.51562 2.0391-1.3984 1.0703-2.0508 2.4414-3.9688 3.3086-6.0938 0.98437-2.4062 2.4961-3.1602 5.2188-2.3359-1.0586 1.9492-2.1172 3.832-3.1016 5.75-0.42969 0.83594-0.8125 1.7148-1.043 2.6133-0.20703 0.81641-0.20312 1.8047 0.82812 2.1055 1.082 0.32031 1.4336-0.58984 1.7969-1.3672 0.87891-1.8945 1.9336-3.7188 2.6328-5.6719 1.2773-3.5547 3.793-4.6914 7.7969-4.0586-1.9414 3.2812-3.8242 6.4531-5.6992 9.625-0.37109 0.63281-0.66016 1.3164-1.0469 1.9375-0.63672 1.0469-1.2539 2.1797 0.125 3 1.3398 0.80078 2.043-0.57812 2.457-1.332 2.0898-3.832 4.0391-7.7461 5.9648-11.66 0.99609-2.0273 4.0938-2.8672 5.9141-1.5234 0.88672 0.65625 0.37891 1.1875-0.023438 1.8555-1.793 2.9727-3.5039 5.9922-5.293 8.9648-0.62109 1.043-1.3203 2.1445 0 3 1.2773 0.82812 2.0781-0.19531 2.8555-1.1133 2.0039-2.3672 2.3594-5.4805 3.7539-8.1602 1.8047-3.457 3.9766-4.418 7.7188-3.1523-1.7031 2.9062-3.3672 5.7852-5.0664 8.6406-0.64844 1.0859-1.7656 2.3633-0.30859 3.293 1.6367 1.0352 2.1289-0.88672 2.7109-1.793 1.4062-2.1992 2.8047-4.457 3.8008-6.8555 1.4844-3.5859 3.9766-4.4297 7.7734-3.3047-1.9727 3.3867-3.9141 6.7148-5.8516 10.047-0.64844 1.1133-1.4492 2.4531-0.0625 3.332 1.2227 0.77344 2.043-0.62109 2.9531-1.3047 3.1367-2.3477 2.5977-6.3047 4.1602-9.3633 1.2266-2.4023 2.3125-3.707 5.1758-2.8633 1.0586 0.3125 2.2969 0.050781 3.8984 0.050781-2.6445 4.3242-5.0977 8.293-7.5039 12.297-0.57031 0.94531-1.6758 2.0625-0.33203 3.0391 1.418 1.0312 2.3398-0.20312 3.1523-1.1875 1.2227-1.4688 2.6445-2.832 3.5117-4.4844 0.63281-1.1992 3.6133-1.6797 1.2617-4.25-1.0117-1.1094 4.1094-6.3008 6.1055-6.3164 0.83984-0.003906 1.6758 0 2.75 0-1.1719 3.4336-3.1523 6.1445-4.8594 9.0117-0.65625 1.0977-2.1016 2.5195-0.28516 3.457 1.707 0.88672 2.918-0.80469 3.3047-2.1328 0.875-2.9805 2.7734-5.4023 4.0039-8.1719 1.9883-4.4844 2.6445-4.7109 7.6562-3.2266-1.4492 2.7031-2.8789 5.3867-4.3281 8.0625-0.66797 1.2266-1.5391 2.7344 0.042969 3.5664 1.4062 0.73828 2.0664-1.0117 2.9609-1.8242 2.1953-1.9922 1.2031-5.2422 3.1367-7.4492 1.4297-1.6406 4.25-2.2852 5.8086-0.77734 0.6875 0.66797 0.14453 1.0938-0.17188 1.6016-1.1133 1.7812-2.25 3.5547-3.3047 5.3711-0.53125 0.91797-1.8555 2-0.44141 2.9727 1.6445 1.1367 2.082-0.75 2.8633-1.5859 1.1758-1.2656 1.1719-3.2812 2.8945-4.4961 0.87891 2.4375 0.82422 4.918 0.76172 7.2109-0.3125 11.793-0.64453 23.582-1.418 35.371-0.48828 7.4414 0.10156 14.969 0.45313 22.449 0.12891 2.7617-0.94141 5.3828-0.53906 8.1367 0.19531 1.3203-1.1406 1.2305-1.7812 1.2773-10.59 0.75-21.102 2.1953-31.812 1.4961-6.3672-0.41406-12.84 1.0938-19.273 1.2227-8.5781 0.16797-17.293 3.1094-25.625 0.50391-3.2383-1.0117-5.4023 0.96484-8.25 0.22266-3-0.77734-6.3242-0.32422-9.5039-0.49219-1.3281-0.066406-3.0195 0.57031-3.5859-1.5078-0.074219-0.25391-1.0312-0.54297-1.4102-0.39844-3.5547 1.3711-7.2578-0.98438-10.82 0.45312-0.55859 0.22266-1.625 0.73828-1.9805-0.17188-0.74609-1.9219-1.4219-0.69531-1.8945 0.011719-1.1094 1.6562-2.7773 1.1328-4.0703 0.82422-1.3008-0.3125-0.64844-1.8242-0.57031-2.7422 0.82422-9.2188 0.69531-18.555 1.9141-27.652 0.96484-7.1836 1.4375-14.359 1.7461-21.531 0.20703-5.6289-0.67188-11.305-1.0547-17.059zm-0.23438-11.832c1.8828-0.44141 2.5273 1.1523 3.9297 1.1914 1.4297 0.039062 0.46094 0.98047 0.20703 1.5352-0.93359 2.0781-1.8945 4.1367-3.2461 7.0938-0.18359-3.9336 0.25781-6.9648-0.89062-9.8203zm-5.8164 97.234c-0.90234-0.3125-0.33594-1.1914 0.050781-1.8086 1.9648-3.0898 3.9805-6.1445 5.8672-9.2773 1.0234-1.7031 2.4453-0.54688 4.0898-0.89062-2.6055 4.1367-4.9375 7.8281-7.2422 11.535-0.76953 1.2305-1.9609 0.71875-2.7656 0.44141zm5.6992 0.50781c-0.32422-0.24219-0.64844-0.48047-0.98047-0.72656 3.5156-3.9375 5.0195-9.5078 9.6875-12.512 0.29297 0.23438 0.58984 0.46875 0.88672 0.69922-3.1992 4.1836-6.3945 8.3633-9.5938 12.539zm6.2031-0.30078c-1.4453-0.074219-2.0938-0.40234-1.1367-1.8477 2.0312-3.0586 4.082-6.0977 6.0469-9.1953 1.3438-2.1211 3.2812-0.54688 5.3867-1.2148-2.9062 4.0039-5.4336 7.3594-7.8008 10.82-0.66797 0.97266-1.2695 1.5-2.4961 1.4375zm4.5273 0.23047c2.3203-4.6211 5.0859-8.0547 7.8242-11.457 0.90625-1.125 2.7539-0.69922 4.7773-0.85156-2.8906 3.9922-5.6914 7.293-7.8008 11.059-1.0273 1.8125-2.7852 0.64844-4.8008 1.25zm8.6406-0.31641c-0.89453-0.3125-0.81641-1.3398-0.57031-1.8203 1.793-3.4727 4.2578-6.5 6.8047-9.4414 0.26172-0.30859 1.2031-0.039063 2.2227-0.039063-2.3906 3.6836-4.5977 7.0156-6.707 10.406-0.46094 0.73828-0.9375 1.1797-1.75 0.89453zm3.9688-0.28906c2.1328-3.3281 4.2773-6.5469 6.2773-9.8516 0.94531-1.5664 2.3125-1.0977 3.6641-1.1914-2.0898 5.9844-6.9453 11.484-9.9414 11.043zm6.2227 0.015625c2.0625-3.4219 4.0938-6.8672 6.2031-10.258 0.83984-1.3477 2.1953-0.875 3.8633-0.69531-3.2031 3.9883-6.2383 7.7656-9.2734 11.547-0.26562-0.19531-0.53125-0.39062-0.79297-0.59375zm4.8945 0.14453c2.2461-3.3555 4.5352-6.6016 6.6211-9.9727 0.78906-1.2773 1.7812-1.6797 2.8516-0.98438 1.3711 0.88672-0.19531 1.6172-0.56641 2.2617-1.2422 2.1836-2.832 4.1875-3.9883 6.418-1.0547 2.0391-2.375 3.0469-4.918 2.2773zm7.3086 0.019531c-1.3203-0.69922-0.078125-1.8203 0.37109-2.6211 0.91406-1.6406 2.1914-3.1133 2.9453-4.8086 1.2227-2.75 2.8789-3.8477 5.8867-2.1172-1.9258 2.9102-3.9023 5.8594-5.8281 8.8438-0.91016 1.4023-2.4453 1.1875-3.375 0.70312zm8.9492-0.29297c-0.29688 1.2422-2.1406 0.40234-4.1445 0.49219 3.9531-3.1875 3.9414-8.8438 9.5312-10.633-1.3047 4.1641-4.5156 6.4688-5.3867 10.141zm2.2461 0.35156c3.0117-3.1367 2.6602-9.1445 9.0156-9.7617-1.3828 3.7109-3.5039 6.3281-5.1875 9.1719-0.96094 1.6328-2.5195 0.28906-3.8281 0.58984zm6.1133-0.16797c1.332-2.457 2.7031-4.9062 3.9883-7.3906 0.50391-0.98047 1.2656-1.6875 2.2188-1.0938 1.1719 0.72656-0.17969 1.418-0.5 1.9414-1.5 2.4805-2.7148 5.207-5.707 6.543zm4.9492 1.0664c-0.37109-0.40234-0.73438-0.8125-1.0977-1.2148 3.3711-2.543 2.8672-8.8711 9.625-8.7188-3.1211 3.4375-3.957 8.4258-8.5273 9.9336zm4.9961-0.54297c2.9922-3.8086 3.7695-9.2695 9.1836-10.953-1.1719 3.6953-3.6133 6.6406-4.9062 10.227-0.75 2.082-2.7891 0.17188-4.2773 0.72656zm6.5117 0.27734c1.0703-4.5312 3.7422-7.9531 5.75-11.652 0.79688-1.4688 2.2891-0.085938 3.4609-0.28516-1.2109 4.3125-4.9727 6.832-5.2031 11.258-0.058594 1.1797-2.3867 0.25-4.0078 0.67969zm5.3984-0.36328c3.6836-4.2188 3.6133-11.402 11.34-13.352-2.6875 4.5625-5.0625 8.3828-7.2109 12.324-1.0312 1.8867-2.5703 0.92578-4.1289 1.0273zm6.2773-0.40625c2.2227-3.9688 4.4727-7.8555 6.5781-11.816 0.8125-1.5234 1.9727-1.2695 3.2422-1.1094-2.0781 5.2852-7.8359 12.965-9.8203 12.926zm3.7773 0.89844c2.9531-4.8594 5.4883-8.8203 7.7891-12.902 1.2383-2.1953 3.0352-0.44141 5.0625-1.4688-2.7656 4.7227-5.168 8.8242-7.582 12.926-1.1562 1.957-2.9297 0.87109-5.2695 1.4453zm7.7812-0.082032c-1.0078-0.33203-0.3125-0.93359-0.050781-1.4102 2.0625-3.7539 4.2188-7.4531 6.1562-11.262 0.71094-1.3984 1.6016-1.418 3.0234-1.0859-2.3984 4.6602-5.9805 8.3828-7.6094 13.188-0.30859 0.89844-1.0312 0.72656-1.5195 0.57031zm5.0938-0.46094c-1.3086-0.60938 0.054688-1.6445 0.42969-2.3242 1.5781-2.8438 3.5156-5.5 4.6367-8.5859 1.1094-3.0508 3.5742-2.6836 6.4023-2.3281-2.7773 4.4531-5.3594 8.5234-7.8633 12.641-1.0039 1.6523-2.6055 1.0703-3.6055 0.59766zm9.7891-1.3867c-0.87891 1.3906-1.793 1.9414-3.4883 1.4961 2.3008-4.0547 4.5938-8.0703 6.8594-12.102 0.53125-0.94531 1.4453-1.2695 2.375-1.2422 0.47656 0.011719 1.6289 0.20703 0.64844 1.3477-2.707 3.1445-4.2031 7.0312-6.3945 10.5zm42.344-11.594c0.94141 0.55859 0.87891 1.9375 0.10156 3.0781-1.7148 2.5156-3.4375 5.0391-4.582 7.8867-0.37109 0.92969-1.2812 2 0.29688 2.5938 1.3672 0.51562 1.8086-0.66016 2.2969-1.5898 0.70703-1.3477 1.4062-2.6992 2.3125-4.4414 0.98047 2.4531-1.5 4.457 0.64844 6.5469-2.1797 0-3.8594-0.050781-5.5312 0.011719-4.1445 0.15234-4.4336-0.21094-2.7422-4.043 1.3086-2.9609 2.8008-5.8477 4.1055-8.8086 0.67578-1.5352 2.0703-1.8477 3.0938-1.2344zm-13.496 0.84766c1.25 0.39844 0.14453 1.043-0.015625 1.3281-1.2812 2.2852-2.6602 4.5195-4.0391 6.7539-0.54297 0.87891-0.87891 1.9258 0.035157 2.5312 0.89062 0.59375 1.8828-0.015625 2.4375-0.875 1.332-2.0508 3.3086-3.5742 3.707-6.3711 0.37109-2.6211 2.3086-4.4258 5.7695-3.7734-2.0117 4.168-4.0156 8.1484-5.8359 12.215-0.375 0.83594-0.73828 0.73438-1.3789 0.72656-2.6484-0.035157-5.3047-0.011719-8.2266-0.011719 1.0977-4.8008 4.207-8.3047 6.2344-12.332 0.35547-0.71484 0.88672-0.33203 1.3125-0.19141zm-5.1289 0.83203c-1.7852 3.7617-4.2383 6.9375-5.582 10.719-0.61719 1.7305-2.3281 0.94531-3.2891 0.70703-1.3711-0.34766-0.51562-1.5508-0.0625-2.2734 1.6875-2.6758 3.4648-5.2852 5.1758-7.9453 0.92969-1.4414 2.6328-0.28125 3.7578-1.207zm-7.4961 0.73438c1.1367 0.68359-0.30859 1.3203-0.65625 1.9375-1.3906 2.457-2.918 4.8438-4.2266 7.3398-0.69531 1.3281-1.4453 1.9922-3.1133 1.25 1.5664-3.3945 3.0391-6.8086 4.7227-10.125 0.72266-1.4375 2.3984-0.92969 3.2734-0.40234zm-8.207 0.11719c0.54688-0.69922 0.41016-2.2695 2.1289-1.3203 1.6523 0.90234 0.10547 1.5898-0.14453 2.1289-1.3477 2.8242-2.9023 5.5508-4.3281 8.3438-0.55469 1.0859-1.0352 2.1094-2.9453 1.2383 3.4766-2.8125 2.8672-7.3086 5.2891-10.391zm158.17-66.723c0.035156-1.9727-1.7031-1.7188-2.3125-2.6719 6.9062-0.50391 8.5352 0.98438 10.695 6.6758 1.9141 5.0391 4.8945 9.6875 7.2734 14.262-8.7734 3.3203-18.07 4.457-26.852 7.5977-9.6367 3.4492-19.738 5.6797-29.223 9.4648-10.73 4.2852-22.035 7.5195-31.5 14.59-2.7266 2.0391-3.3203 1.707-4.4453-1.3984-2.5352-6.9883-4.4336-14.164-6.2422-21.359-0.375-1.4961-0.085937-2.1445 1.5625-2.6953 10.305-3.4375 20.352-7.4023 29.855-12.797 4.0273-2.2773 8.9531-3.1367 13.57-4.207 2.0664-0.48047 4.0781-0.79688 6.0312-1.7578 2.7422-1.3477 5.6328-2.543 8.8359-2.1289 3.8867 0.50391 5.8906-3.1211 9.3086-4 4.5742-1.1641 8.8398-1.6523 13.441 0.42578zm-11.977-3.6641c-18.105 1.9883-34.59 7.3867-49.965 16.391-4.6797 2.7422-10.512 3.0117-15.508 5.4414-0.41016-2.9023-0.78516-5.5547-1.1484-8.1758 1.6875-0.36328 3.4141 2.5469 4.5742 0.15625 1.043-2.1562-1.7656-2.3359-2.8281-3.4492-1.6133-1.6914-3.7852-1.9922-5.8242-2.7734-4.0703-1.5586-7.2812-4.5195-9.7773-7.8906-3.5039-4.7422-8.5742-7.8906-12.051-12.723-3.0234-4.207-6.8828-7.9141-9.832-12.195-3.6172-5.2578-8.0977-9.7422-12.164-14.594-3.6836-4.3945-7.8164-8.3789-12.59-11.613-3.0781-2.0898-6.0039-4.7305-7.9805-7.4492-2.1914-3.0195-4.0586-7.2227-2.082-11.738 1.9258-4.3906 2.9609-9.1562 5.2422-13.422 2.9414-5.4922 2.9219-11.766 5.0234-17.68 3.9219 4.4648 8.4336 8.5469 8.6797 15.277-1.6367-0.70703-2.1836-2.2461-3.4375-3.1289-0.80469 0.5-1.1484 1.2617-0.54687 2.0156 1.7812 2.2461 1.2891 6.4922 5.7344 6.4336 0.20703 0 0.53906 0.39062 0.62109 0.66016 0.94141 2.9805 1.832 3.4648 2.8438 0.023438 0.19531-0.66797 0.91797-0.49219 1.3477-0.27344 1.1094 0.56641 2.4766 0.72266 3.2539 1.8438 3.0078 4.3359 8.3281 2.8789 12.355 4.7031 0.66797 0.30078 2.1719-0.58984 3.0508-2.0664 3.2383-5.4141 4.0156-11.602 6.1758-17.336 1.0586-2.8125-2.4531-4.4844-3.4062-4.5234-3.4766-0.12891-4.4453-2.8164-6.1836-4.6484-6.9492-7.3516-12.402-15.91-19.074-23.52 3.1367-2.6602 6.3711-3.5352 10.227-1.4375 3.4258 1.8633 7.2109 3.125 10.527 5.1562 5.168 3.1641 11.137 3.9219 16.637 6.0312 2.5938 0.99219 3.5898-1.6289 4.4844-2.8047 1.0117-1.3203-1.1523-2.1406-2.4375-2.4297-1.8945-0.4375-3.2422-1.6758-4.832-2.625 6.0352-0.37891 11.82 0.16406 17.023 3.5156 0.37891 0.24219 1.2773 0.3125 1.5078 0.074219 2.582-2.7422 4.793-0.33594 6.6758 0.74609 6.0703 3.4883 13.074 4.8047 19.105 8.2617 6.043 3.4648 13.195 4.5625 18.871 8.7422 2.0547 1.5195 1.3789 3.9805 1.9531 5.9961 0.36328 1.2773-0.0625 2.7539 0.17188 4.0938 0.35156 2.0625-0.054688 3.9297 1.8945 6.0938 2.1328 2.3672 3.7852 7.3203 2.6836 9.8945-1.7305 4.0195-1.2383 7.7656-1.3906 11.609-0.14062 3.6562 0.83984 7.3203 0.57812 11.02-0.16406 2.2617 0.074219 4.4453-0.98438 6.7383-1.0547 2.2773-0.09375 4.9883 0.53125 7.4258 0.56641 2.207 0.37891 4.2344-0.15234 6.4531-1.5469 6.4531 0.29297 12.48 3.3047 18.129 2.7773 5.1719 5.9297 10.152 9.1172 15.57zm-129.87-123.06c-0.015626-0.71875-0.16797-1.5781-1.0938-1.6133-0.83594-0.027344-0.77344 0.86328-0.98438 1.4102-0.58203 1.5273-0.27344 3.1367-0.39062 4.7031-0.042969 0.60937 0.027343 1.4453-0.79688 1.4844-0.6875 0.035157-1.0625-0.56641-1.0859-1.3008-0.089844-2.6055 1.2305-5.4102-1.1367-7.707-0.050781-0.050781 0.33594-0.77344 0.64844-0.91406 2.1562-1.0117 3.1523-3.0391 4.5234-4.7695 2.0312-2.5664 3.4336-2.6445 5.3438-0.066406 6.8945 9.3125 14.852 17.801 21.352 27.418 2.1406 3.168 4.9688 5.8594 7.9805 8.1523 3.1914 2.4258 3.5117 5.3555 2.6875 8.668-0.51953 2.1055-1.5625 4.0938-2.3594 6.1367-0.65625 1.6914-2.2578 0.96875-3.3281 1.0234-0.89062 0.050781-1.7656-1.0195-1.7305-2.2188 0.0625-1.9922 0.27344-3.9883 0.22266-5.9805-0.027344-1.0742 0.09375-2.7031-1.3594-2.8125-1.4336-0.10547-0.50391 1.5195-0.96484 2.25-0.85156 1.3672-0.20703 3.0469-0.78906 4.7148-1.4688-1.4609-1.1133-3.0742-1.0547-4.5859 0.09375-2.543-0.11328-5.0508-1.0312-7.4297-0.33203-0.86328-1.0312-1.8242-2.1836-1.3398-1.0977 0.46484-0.015626 1.2266-0.003907 1.8594 0.035157 1.9922 0.011719 3.9883 0.011719 6.25-3.8633-2.75-2.582-6.7773-2.9805-10.293-0.054687-0.48828 0.30859-1.0078 0.375-1.5234 0.11719-0.92578-0.20312-1.8477-1.1641-1.9375-1.0742-0.09375-1.2148 0.83594-1.2539 1.7539-0.09375 2.1797-0.28125 4.3555-0.44141 6.7461-2.6758-1.1406-3.7461-2.7773-3.5234-5.2969 0.14062-1.5742 0.11719-3.1641 0.078125-4.7422-0.015625-0.62891 0.46875-1.707-0.69922-1.7148-0.77344 0-1.1914 0.78906-1.2031 1.6172-0.023438 1.3828-0.97266 2.5703-0.82422 4.043-2.1016-3.4883-0.75-7.9961-3.707-11.473-1.2891 2.0234-0.16797 4.0938-0.77344 5.9805-1.1719-1.3984-1.1406-3.0234-1.1211-4.6523 0.015625-1.0547 0.19141-2.1719-0.089844-3.1523-0.38672-1.3281-0.089844-3.7812-1.625-3.6641-1.7461 0.13281-0.63281 2.3789-0.8125 3.6797-0.19531 1.3984-0.042969 2.8516-0.042969 4.7891-1.9766-2.0625-3.2812-3.5508-2.7383-6.2383 0.48047-2.3281 0.12109-4.832 0.070313-7.2539zm-14.168-1.6133c-0.5 0.62891-1.0547 1.3438-2.9414 1.5781 9.8438-19.848 22.977-36.727 37.633-53.562-0.050781-0.19141-0.14062-0.46875-0.085937-0.55859 0.16406-0.25391 0.011718-0.90234 0.59766-0.68359 0.15234 0.054687 0.20703 0.55859 0.16406 0.83594-0.035156 0.23047-0.28125 0.42578-0.60938 0.88672-0.003906-0.027344-0.003906-0.027344-0.003906-0.054688-0.64453 3.3359-1.1602 5.875-2.9336 8.5352-5.8398 8.7344-12.738 16.699-18.367 25.602-3.9023 6.1602-8.8984 11.652-13.453 17.422zm8.3438-1.3047c0.44141 1.9375-0.58984 3.6914-0.50391 5.7344-3.7383-3.5352-3.7109-3.7266 0.50391-5.7344zm-129.42-122.26c1.0977-2.2188 2.6992-4.0898 4.2344-6.0039 6.707-10.605 14.285-20.625 21.477-30.906 1.2656-1.8047 3.1016-3.125 6.2031-2.8125-6.9102 7.9961-11.367 17.32-18.832 24.434-3.1289 2.9805-4.8477 7.1523-8.4727 9.7031-1.0312 2.2188-2.4688 4.168-4 6.0664-4.0273 6.5625-9.3633 12.227-13.254 18.891-2.5742 4.4141-5.3047 8.7422-8.3086 13.688-0.37109-3.2266 0.039063-5.4375 1.6406-7.5781 6.3906-8.5273 12.305-17.402 19.312-25.48zm-17.469 17.098c8.2227-17.84 21.113-32.484 32.766-47.965 1.0234-1.3555 2.8125-1.8125 4.6016-2.3281-12.387 16.828-23.707 34.41-37.367 50.293zm177.52 7.0508c0.11328 0.875 0.30859 1.8047-0.19531 2.4375-3.1914 4-5.6523 8.4961-8.9727 13.266-0.35156-3.2383-0.25781-5.5 1.6055-7.582 2.4062-2.6875 3.3594-6.2891 5.4219-9.1953 1.0234-1.4375-0.089844-2.75 0.23438-4.1562 0.21094-0.91797-1.0312-0.95312-1.9219-0.46484-1.7656 0.97266-2.2305 2.7344-2.7891 4.4141-0.60938 1.8438-0.74609 3.9023-2.9297 5.5117-0.79688-2.4766-1.4219-4.5469-2.1328-6.5898-0.3125-0.90234-0.050782-1.5664 0.39844-2.3516 2.2344-3.8867 4.3945-7.8047 6.7461-12.023 1.6016 5.7227 3.8125 11.016 4.5352 16.734zm-0.75 31.227c0.73828 3.0703 0.375 5.8672-1.4727 8.293-5.9961 7.8867-11.832 15.898-18.504 23.262-0.13281 0.15234-0.33984 0.23437-0.80078 0.16797 5.2891-11.602 14.812-20.508 20.777-31.723zm-23.273 27.73c-5.0859 8.1406-11.266 15.227-17.793 22.148-1.6445 1.7461-3.6406 2.9336-5.6953 3.9609-8.6406 4.3359-16.918 9.4805-26.488 11.777-2.0664 0.49219-4.1055 1.1641-7.0664 0.66016-4.6602 2.8242-10.289 0.89453-15.82 0.76562-3.7539-0.085938-7.5898-0.41016-11.207-1.3281-3.7539-0.95312-7.7617 0.25391-11.352-1.9336-4.4648-2.7148-9.9688-4.25-13.535-7.7617-3.8477-3.7852-8.4102-6.0039-12.699-8.8477-6.2266-4.1367-7.8906-11.109-11.008-17.18-0.82422-1.6016-0.39844-4.2734-3.5156-4.0078-0.25391 0.023437-0.66016-0.98438-0.88672-1.5586-3.5938-9.1992-6.1758-18.547-6.7969-28.547-0.42187-6.7188 1.0742-13.109 1.3008-19.656 0.41406-12.129 7.5977-21.453 12.582-31.73 3.1641-6.5312 9.4805-9.918 14.219-14.863 4.4141-4.6016 10.254-7.3633 16.039-10.059 3.2969-1.5352 5.6523-4.7305 9.5273-5.3477 0.97266-0.15234 1.9609-1.2695 2.4023 0.56641 0.24609 1.043 1.2031 0.94141 1.8125 0.71094 5.9531-2.2383 12.023 0.10547 18.004-0.55469 1.2227-0.13281 2.8906 0.73828 3.3047-1.457 0.13281-0.69531 1.1406-0.58984 1.6914-0.42969 6.7383 1.8828 14.035 1.1016 20.5 4.2617 4.0664 1.9883 7.6445 4.6602 11.301 7.2812 2.9023 2.0781 6.4961 3.2891 9.8945 4.582 3.7695 1.4336 6.4805 4.6875 10.457 5.707 0.089843 0.023437 0.23047 0.14062 0.22266 0.20703-0.26172 4.6367 5.7852 4.0469 6.5781 7.7266 0.84375 3.9258 3.6055 6.8438 5.3086 10.309 0.28125 0.56641 0.5 1.1758 0.86328 1.6875 7.7773 10.887 9.1523 23.336 9.0898 36.152-0.023438 5.3633 0.027343 10.746-1.6406 15.914-2.3633 7.3125-5.4609 14.215-9.5938 20.844zm21.789-30.328c-3.2891 3.7695-5.1875 8.6172-8.7461 12.324 1.4844-10.059 8.6445-17.602 12.066-26.82 0.94922 5.3789 0.46094 10.16-3.3203 14.496zm0.95312-14.008c-3.1289 3.8633-5.3633 8.4336-7.543 13.816-1.332-5.3984 0.17188-9.0664 2.8164-12.672 2.5195-3.4453 4.4688-7.293 6.6406-10.914 1.7031 3.7031 0.66016 6.5898-1.9141 9.7695zm-11.805-21.488c-0.6875-1.9141-2.8906-3.332 0.77344-4.4062 1.7148-0.50391 1.9727-3.0859 2.9336-4.6992 0.80078-1.3438 1.5508-2.7148 2.3281-4.0781 0.375 0.21094 0.75 0.42188 1.125 0.63281-2.3125 4.0508-4.625 8.1016-7.1602 12.551zm3.3047-13.418c-1.8828 2.75-3.3945 5.75-5.0977 8.7031-1.418-1.6562-1.3008-3.2695-0.078125-5.0352 1.8242-2.6484 3.6641-5.2969 4.918-8.3906 1.75 1.6953 1.4258 3.0156 0.25781 4.7227zm-1.957-4.7344c-2.0898 1.5234-3.2812 4.25-4.8711 6.4414-0.41016 0.46484-0.81641 0.93359-1.332 1.5195-0.57812-1.1914 0.24609-1.5352 0.875-1.9727 1.4062-3.6914 4.0977-6.707 5.4414-10.809 0.92578 1.9062 2.3633 3.0117-0.11328 4.8203zm-1.7734-5.0977c-2.2383 2.8672-4.0156 6.0859-6.0273 9.207-2.6836-3.0898-2.9805-5.9062-0.015625-8.8086 0.875-0.85547 1.1484-2.3125 2.0273-3.1523 0.76562-0.73438 0.46094-3.3555 2.5156-1.9883 1.5117 1 3.5273 2.1445 1.5 4.7422zm-5.3047-4.7773c-1.7266 2.0703-3.2891 4.2734-4.8945 6.3828-2.5664-1.6562-2.4062-3.6016-0.81641-5.7695 0.73828-1.0117 1.3984-2.0898 2.0312-3.168 0.78516-1.3398 1.3008-2.3125 3.2422-1.0078 1.918 1.2969 1.6445 2.1133 0.4375 3.5625zm-8.8867 0.99219c-0.91797 1.0312-1.7188-0.68359-2.5703-1.1211-1.1133-0.57031-0.125-0.98047 0.23047-1.5195 1.7148-2.5938 3.3555-5.2305 5.293-8.2812 0.72656 1.7148 2.0391 3.3281 1.6445 4.168-1.1406 2.4414-2.7891 4.7266-4.5977 6.7539zm-0.59766-9.2188c-1.4883 1.8633-2.5586 4.0547-3.8789 6.2031-0.51562-1.6797-2.2461-1.6133-3.6797-2.1094 1.1992-1.6758 2.2227-3.1875 3.3281-4.6484 1.1406-1.5078 2.3594-2.957 3.4844-4.3633 2.6211 1.3672 2.3633 2.8906 0.74609 4.918zm-3.5234-4.7148c-2.0273 2.1523-3.7031 4.543-5.2539 7.0117-3.168-1.0117-2.8945-2.6211-1.1758-4.7305 1.1094-1.3672 1.8047-3.0586 2.832-4.5039 0.46094-0.64844 0.11328-2.207 1.6367-1.8047 1.2383 0.32422 2.4453 0.98047 3.1016 2.0625 0.54687 0.90234-0.625 1.4219-1.1406 1.9648zm-5.0391-3.2539c-1.3984 2.0898-2.832 4.1484-4.2734 6.2109-0.20703 0.29688-0.25391 0.83594-1.1016 0.68359-0.49219-0.33984-1.2227-0.76562-1.8633-1.3047-0.93359-0.78516 0.09375-1.2891 0.40234-1.8086 1.1328-1.8867 2.5078-3.6445 3.4883-5.6016 0.75781-1.5195 1.3945-1.6289 2.8672-0.89062 1.6289 0.83594 1.1523 1.7109 0.48047 2.7109zm-5.625-1.7617c-1.043 1.1484-1.7188 2.6133-2.7031 3.8242-0.42969 0.53906-0.49219 2.2188-1.9375 0.99219-0.90625-0.77344-2.1602-1.2422-0.95703-2.8828 1.5898-2.168 2.8789-4.5469 4.2773-6.8047 2.7656 1.2031 3.3281 2.6641 1.3203 4.8711zm-3.0781-5.5977c-1.4453 2.1953-2.9102 4.375-4.3867 6.5469-0.37891 0.55859-0.47656 1.5-1.4961 1.2148-2.4961-0.085938-3.3555-1.4883-2.0781-3.4609 1.4844-2.2969 3.1211-4.4922 4.5547-6.8164 1.3477-2.1953 2.5469-0.42969 3.6445 0.10156 1.7344 0.83594 0.26172 1.6602-0.23828 2.4141zm-4.7227-3.4102c-1.9922 2.7109-3.9648 5.4492-5.75 8.3008-0.77734 1.2422-1.4219 0.70703-2.3359 0.41406-1.8086-0.57031-0.59375-1.4727-0.24219-2.1328 1.0859-2.0273 2.2617-4.0156 3.4492-5.9883 0.40234-0.66797 0.71094-1.2656-0.035156-2.1055-2.0781 1.6016-3.3047 3.8867-4.3125 6.043-1.5078 3.2148-3.9922 2.3906-6.3633 2.1719-1.2031-0.11328-0.63281-1.1758-0.29688-1.7266 1.9805-3.2148 4.0469-6.3828 6.0469-9.5859 0.37891-0.61719 0.8125-1.1211 1.4844-0.69531 2.4453 1.5586 5.3828 1.8984 7.9453 3.1797 1.2539 0.63672 1.1406 1.1367 0.41016 2.125zm-17.785 4.1914c-1.1016 1.793-2.75 0.67578-4.0938 1.0312-0.60937 0.15625-0.61719-0.82422-0.074218-1.3828 2.8672-2.9844 4.9219-6.4922 6.8555-10.121 0.92969-1.7422 2.6055 0.37109 4.6406-0.62109-2.8398 4.2734-5.1875 7.6211-7.3281 11.094zm-6.6172-0.61328c-1.3945 1.4883-3.2461 0.16797-5.4492 1.0469 2.2227-4.625 4.2109-8.5859 6.0273-12.621 0.63281-1.4062 1.7031-1.1797 2.6445-0.98047 1.5195 0.32031 2.9688 0.93359 4.5938 1.4727-1.9805 4.2109-4.7188 7.7812-7.8164 11.082zm-2.3867-10.219c-1.0039 2.4023-2.3008 4.6875-3.3984 7.0547-0.86719 1.8594-2 2.9336-4.2383 1.7461 1.8203-3.2266 3.7305-6.3633 5.3711-9.6328 0.64844-1.2891 1.2031-2.3906 2.7031-1.5781 1.6562 0.90625-0.14453 1.707-0.4375 2.4102zm-10.348 7.6992c-1.4609 1.6875-3.4062-0.21094-5.6992 0.76562 2.2109-3.8008 4.0156-7.0742 5.9883-10.23 1.6289-2.5977 4.1602-0.91797 6.6992-1.4375-1.9844 4.2695-4.2578 7.7461-6.9883 10.902zm-7.6055-0.68359c-0.46094 0.71875-0.82422 1.8359-2.1445 0.73828-0.93359-0.77734-1.3672-1.2695-0.53125-2.4414 1.3398-1.8867 2.6133-3.8477 3.6445-5.9062 1.1211-2.2344 2.2383-3.9805 5.0859-2.1055-2.0469 3.3047-4.0234 6.5312-6.0547 9.7148zm-5.9805-0.64844c-1.1719 1.9375-3.1289 1.2266-4.9062 2.1797 2.2617-3.8633 4.3047-7.3633 6.3516-10.863 1.1016-1.8867 3.0625-0.82812 4.9102-1.0312-2.1289 3.2266-4.3516 6.3984-6.3555 9.7148zm-12.613 3.2617c2.1914-3.832 4.168-7.3086 6.1641-10.77 0.85547-1.4844 0.88672-1.4688 6.5469-1.8086-4.4141 4.4883-4.8633 11.719-12.711 12.578zm-2.9883 0.36328c-0.83984 1.2539-0.97266 1.1641-4.8086 1.3711 2.4258-3.7227 4.6992-7.1133 6.8594-10.566 1.1367-1.8242 2.8633-1.7266 5.125-1.9414-2.543 3.9688-4.8008 7.5898-7.1758 11.137zm-21.422 13.043c-0.09375 0.30078-0.26953 0.58984-0.59375 0.33984-0.10547-0.078126 0.0625-0.50391 0.10156-0.76563 4.168-5.9688 8.3438-11.922 12.48-17.91 1.1016-1.5977 1.9805-3.0469 4.5078-2.2578 1.043 0.32422 2.5039-0.65625 4.3164-1.2109-5.625 9.0117-12.164 16.375-20.812 21.805zm-42.137 58.535c4.1953-7.6992 8.3047-15.449 13.664-22.488-3.1133 10.332-10.035 18.75-14.789 29.047-1.2344-3.043 0.16016-4.7891 1.125-6.5586zm0.007813 8.4961c3.1641-5.5273 6.125-11.148 9.1719-16.805-0.74609 4.0664 0.003906 8.4492-2.6328 12.062-2.9688 4.0703-5.5938 8.3398-8.0117 13.156-1.7891-3.5859 0.12891-6.0703 1.4727-8.4141zm0.17969 9.9375c2.5273-4.0586 4.4453-8.4844 7.4688-12.594 2.5078 9.0508-4.832 13.57-8.0195 20.637-1.0547-3.375-0.98047-5.5664 0.55078-8.043zm1.9766 7.7852c2.2461-3 4.1055-6.2891 6.2227-9.5977 2.8828 7.9844-4.9297 11.457-6.7266 17.859-1.9023-3.3711-1.3711-5.7539 0.50391-8.2617zm1.7812 8.707c2.1406-3.0391 3.6523-6.5195 5.6172-10.148 3.2539 7.5273-3.1523 11.73-5.0586 18.121-1.6055-3.1172-2.4844-5.2266-0.55859-7.9727zm2.2852 9.4336c2.3867-3.0703 3.6172-6.7773 5.2148-10.344 2.5742 3.9805 1.4883 6.8594-5.5938 14.965-1.1953-1.7852-0.80078-3.1016 0.37891-4.6211zm7.4766-2.668c4.5625 4.1562 2.1172 7.3633-0.99609 10.566-1.3047 1.3438-2.3789 2.9062-3.6055 4.4258-4.1289-7.0781 3.6055-9.9648 4.6016-14.992zm-1.3984 15.113c1.3555-1.5859 2.2734-3.5273 3.5742-5.1758 0.57812-0.73438 0.91406-2.7344 2.2461-1.6797 1.0195 0.80078 2.2617 2.3242 0.98438 4.1289-2.0625 2.9102-4.0273 5.8906-6.1484 9.0156-2.5273-2.0977-2.6055-4.0195-0.65625-6.2891zm2.7578 7.6523c2.5859-2.5859 3.5781-6.3047 5.7969-9.2734 2.2852 2.5742 2.3516 4.6523-0.26172 6.9336-1.9727 1.7148-3.4648 3.9531-5.168 5.9531-1.6406-1.0391-2-1.9805-0.36719-3.6133zm3.832 3.6289c1.9922-2.1328 3.625-4.5977 5.3945-6.8945 2.3867 1.5273 3.6172 3.1602 1.043 5.707-1.0742 1.0625-1.5078 2.7422-2.4805 3.9492-0.64844 0.80469-0.59766 3.2031-2.6445 1.7852-1.5312-1.0664-3.5977-2.1016-1.3125-4.5469zm6.9844 2.9219c1.1211-1.4492 1.6953-3.3086 2.6836-5.3125 4.5312 4.4922 4.5312 4.4844 1.1523 9.4023-0.65625 0.95312-1.2773 1.9258-1.9805 2.9844-0.26172-0.15234-0.5-0.27344-0.71875-0.41406-2.918-1.8008-3.2773-3.8867-1.1367-6.6602zm3.9141 8.6953c2.082-2.4023 3.0234-5.5039 4.6914-8.5273 1.3281 0.86719 2.4648 1.6133 3.6055 2.3633-1.7305 2.7812-3.4609 5.5391-5.1562 8.3164-0.64453 1.0586-1.2773 1.6133-2.4023 0.50391-0.78516-0.77344-2.0625-1.125-0.73828-2.6562zm4.3281 4.2969c1.5391-2.7227 3.0625-5.4609 4.6016-8.1797 0.29688-0.52734 0.59375-1.1914 1.3672-0.875 0.46094 0.19141 0.88672 0.59766 0.55469 1.8086-1.5625 2.4062-3.4219 5.2969-5.3125 8.1641-0.25781 0.39062-0.72656 0.37891-1.125 0.13281-0.48828-0.30078-0.30469-0.66016-0.085938-1.0508zm4.2383 1.0625c1.3008-2.7109 2.6562-5.3945 3.9922-8.1016 2.6641 1.0742 2.9102 2.6367 1.625 4.7539-0.97266 1.5977-1.707 3.3281-2.6328 4.9492-0.6875 1.2109-1.5586 1.293-2.8789 0.59375-1.6016-0.83984-0.43359-1.5-0.10547-2.1953zm4.5273 3.0977c1.5664-2.1523 2.4062-4.6211 3.3203-7.0625 0.19141-0.5 0.33594-1.3555 1.2812-0.73828 0.72266 0.47656 1.5508 0.91406 0.88672 1.9531-1.457 2.2969-2.9414 4.5703-4.4297 6.8477-0.10156 0.15625-0.29688 0.25781-0.45312 0.38672-0.77344-0.22266-1.1055-0.70312-0.60547-1.3867zm4.3789-0.21875c0.6875-1.2812 1.7539-2.3906 2.3086-3.7109 0.67188-1.6016 1.332-1.7266 3.0312-1.2227 2.4375 0.72656 2.7891 1.6445 1.5391 3.7031-0.91406 1.5078-1.5742 3.1641-2.3203 4.7695-0.30859 0.66797-0.59766 1.3047-1.5508 1.5742-1.332-0.70703-2.957-1.1875-4.0039-2.2305-1.043-1.0352 0.50781-1.9688 0.99609-2.8828zm9.7969-1.543c0.44141-1.0234 0.92578-1.4727 2.1523-0.875 1.1133 0.53906 0.96484 1.1406 0.54688 1.9492-0.99609 1.9531-2.0391 3.8906-2.9961 5.8672-0.69531 1.4336-1.7305 1.668-3.2539 1.0742 1.1992-2.6992 2.3945-5.3516 3.5508-8.0156zm2.0156 7.2969c0.52734-1.2383 1.2656-2.4062 1.6406-3.6836 0.73828-2.4883 2-3.0508 4.0898-1.3438-1.1094 2.0117-2.3477 4.0586-3.3867 6.2031-0.62109 1.2812-1.5 1.4062-2.5312 0.84375-1.25-0.6875-0.078126-1.3789 0.1875-2.0195zm7.2031-3.4414c0.64844-1.3828 1.2812-1.4961 2.8281-1.0312 2.6445 0.78906 2.1562 1.9531 1.1758 3.7031-2.6953 4.8203-2.6602 4.8398-7.168 3.3828 1.1367-2.1602 2.2305-4.0703 3.1641-6.0547zm4.4141 6.3867c0.85156-1.668 1.707-3.3438 2.4062-5.0781 0.96484-2.3867 2.8047-0.76172 4.5312-0.875-1.3828 2.543-2.8047 5.0586-4.1328 7.6289-0.73828 1.4375-1.5117 0.4375-2.3477 0.20703-1.3633-0.39063-0.87109-1.0781-0.45703-1.8828zm5.1836 2.0078c1.2617-2.1523 2.3203-4.457 3.1133-6.8086 0.42188-1.25 1.1367-1.3438 2.1172-1.7578 1.1133-0.46484 2.3086-0.63281 2.9297 0.0625 0.72656 0.81641-0.49219 1.6133-0.92969 2.3984-1.2773 2.2773-2.6055 4.543-3.7852 6.8672-0.45312 0.89062-0.72266 1.7695-2.168 1.5664-0.94141-0.34375-2.4648-0.28906-1.2773-2.3281zm6.2773 0.89062c1.3008-2.7227 2.6719-5.4141 3.8359-8.1875 0.81641-1.9609 2.2227-0.73437 3.4102-1.0352-1.8594 3.4258-4.1094 6.4453-5.5039 9.9297-0.3125 0.78516-0.73828 1.3281-1.6367 0.86719-0.81641-0.41797-0.37109-1.0078-0.10547-1.5742zm8.9844-7.957c1.2656-2.0039 3.2969-0.71875 4.9492-0.85547 0.69922-0.054687 0.28516 0.94141-0.003906 1.4844-1.332 2.4883-2.6836 4.9727-3.9688 7.4805-1.293 2.5273-3.5156 0.8125-5.4609 1.4688 0.93359-3.6875 2.6523-6.6641 4.4844-9.5781zm4.1641 7.2578c0.62891-1.4375 1.5898-2.7734 1.9766-4.2617 1.1133-4.2656 4.9727-4.2773 8.6875-6.0586-2.6445 4.4688-4.8711 8.2148-7.0742 11.977-0.78516 1.3438-1.9727 2.0508-3.3672 1.3398-1.3594-0.69531-0.66797-1.9766-0.22266-2.9961zm11.617-9.4141c0.44922-1.2266 4.2617-1.2422 6.957-1.9219-2.75 4.2617-5.2031 8.1367-7.7461 11.957-1.0742 1.6172-2.9336 1.2227-4.7617 1.6172 1.4219-4.2812 4.0938-7.6641 5.5508-11.652zm12.41-5.7852c1.0547-1.2812 3.3047-1.6016 5.3359-2.0312-4.9492 6.5078-7.0859 15.215-15.656 18.75 2.8164-6.0273 6.168-11.656 10.32-16.719zm19.336-10.477c-4.6719 7.2344-9.4023 14.074-14.352 20.758-1.5078 2.0312-3.1484 3.6562-6.2656 2.3008 5.8438-8.582 9.5117-18.824 20.617-23.059zm10.145-9.5273c-2.1094 5.3945-6.3008 9.4531-8.6172 14.629-1.3984 3.1367-3.5117 5.9141-4.375 9.3398-0.89062 3.543-4.0195 4.0703-7.7266 4.8164 7.4258-9.8125 13.137-19.977 20.719-28.785zm191.35-131.38c-0.3125 3.0352 0.69922 5.8359 0.98047 8.7539 0.5 5.1289-1.5078 9.9531-1.6172 14.934-0.25781 11.465-0.042969 22.938-0.11719 34.402-0.015624 2.832-0.375 5.668-0.61719 8.5-0.30859 3.5625 0.30078 7.0898 0.15234 10.684-0.42969 10.551-1.4062 21.039-0.67578 31.719 0.54297 7.9414 1.5586 16.09 0.58203 24.164-0.14453 1.2031 0.33203 2.6133-1.2617 3.2422-0.86328 0.33984-0.64453 0.94531-0.44922 1.5508 3.0781 9.3984 1.0352 18.898 0.55859 28.363-0.19531 3.8711-0.85156 7.7383 0.46875 11.559 1.3711 3.9531 0.26172 7.9141-0.28125 11.828-0.14453 1.0312-0.42188 2.0781-0.30859 3.0898 0.50391 4.7266 0.28125 9.4375-0.42188 14.113-0.41406 2.7656 1.6562 5.1406 1.4961 7.5547-0.64453 9.375 0.375 18.793-0.70703 28.09-0.42969 3.7305-1.5195 7.3008-0.42969 11.047 0.44141 1.5273-0.55859 1.8438-1.7422 1.8828-5.0117 0.19141-9.9609 2.0625-14.836 1.7734-7.5469-0.44141-15.227-0.18359-22.652-2.1211-0.59766-0.15625-1.3203-0.29297-1.875-0.10547-5.9023 1.9141-12.059-0.35156-17.988 1.1211-1.9023 0.46875-1.6016-1.2109-1.7031-2.2461-0.70703-7.4688-0.72266-14.945 0.28125-22.383 0.50781-3.7812-0.042968-7.5781 0.63672-11.355 0.29297-1.6172 0.83984-1.8359 2.3359-2.0273 6.5-0.83594 12.809 0.76172 19.203 1.2383 2.6328 0.19531 5.1133 0.12891 7.6562-1.3906 2.0156-1.2031 4.8008-0.50391 7.2422-0.4375 1.8477 0.050781 3.5508-0.11719 5.168-1.1914 0.80078-0.53125 1.9102-0.69531 1.5898-1.9414-0.35156-1.3672-1.5898-1.2422-2.6211-1.1602-2.5469 0.20312-5.0781 0.60547-7.6289 0.74609-8.5 0.46094-17 0.91406-25.484-0.22266-2.4141-0.32031-4.8789-0.89453-7.2812 1.8984 0.035157-9.0938-1.5742-17.148-2.7617-25.266-0.66016-4.5312-2.4922-8.9531-2.25-13.637 0.074218-1.4297-0.78906-2.3516-2.0039-2.9688-2.8398-1.4336-5.5664-3.1914-8.5586-4.1992-6.5352-2.207-12.582-5.4414-18.91-8.0703-5.4375-2.2617-10.961-4.375-16.574-6.1602-5.0625-1.6055-10.289-2.7383-15.469-3.9609-1.4336-0.33984-3.0234-0.58984-4.4336-0.32031-6.793 1.3047-13.469-0.96875-20.242-0.54297-1.9023 0.11719-4.0195-1.2305-5.8594-2.2305-3.9102-2.1172-7.5898-1.668-11.094 0.69922-1.5273 1.0312-2.4648 1.4062-3.6836-0.48047-1.418-2.1836-3.1133-4.25-5.875-5.0586 1.9531-3.1133 4.2461-5.6719 4.7266-9.1406 0.039063-0.29688 0.18359-0.77734 0.36328-0.82422 4.6641-1.1523 5.2344-5.5508 6.5898-8.875 2.9805-7.3125 8.3477-13.52 9.6211-21.633 1.4961-9.5312 4.5703-18.848 4.0781-28.633-0.21875-4.2773-0.50391-8.4961 0.63672-12.699 0.22266-0.83594-0.042969-1.9219-0.39062-2.7656-3.0078-7.3711-4.1836-15.328-7.2539-22.645-0.59766-1.4336-1.1328-2.9023-1.6562-4.3672 0.33984-0.19141 0.62891-0.55469 0.98047-0.76562 0.84375-0.50781 1.7734-2.1562 2.8242-1.0117 1.7344 1.8945 3.1523 0.88672 4.7891 0.10547 1.3906-0.66016 2.5586-1.793 4.3242-1.9922 0.125 1.6172-1.6523 3.3438 0.20703 4.6758 1.3086 0.94141 2.6875 0.15625 3.9297-0.32422 1.4453-0.55859 3.6953-1.4727 3.2383-2.8438-0.70703-2.1172-2.4375 0.38672-3.7695 0.09375-0.26172 0.027344-0.64453 0.17188-0.75781 0.0625-0.25781-0.26172-0.015626-0.48828 0.27344-0.61719 0.35938-4.6484-0.82422-5.1914-6.4336-2.9688-1.0195-3.125-1.7305-3.3555-4.5117-1.3555-1.9766 1.418-3.9531 2.8398-5.3867 4.8594-0.10547 0.14453-0.20312 0.30078-0.32031 0.44922-1.1914-3.2266-2.5352-6.3828-4.9453-9.043-0.63672-0.70703-1.5078-1.6133-0.6875-2.8125 0.41016-0.58984-0.066407-1.1875-0.46094-1.3164-5.3828-1.7422-7.4688-6.8281-10.809-10.566-5.5312-6.1953-12.336-10.668-19.633-14.242-4.8555-2.3789-9.3398-5.2734-14.016-7.8945-3.7461-2.1016-7.3398-4.2109-12.105-3.1797-3.0859 0.66797-6.2656-0.85156-9.3789-1.3828-6.3125-1.0703-12.578-1.6172-18.906-0.72266-4.1328 0.58984-8.2383-0.64844-12.375 0.14062-1.5586 0.29688-3.2539 0.125-4.582 1.082-4.0391 2.9102-8.6562 3.9805-13.484 4.7383-3.625 0.57031-7.1562 1.6953-10.723 2.5938-0.40234 0.10156-1.0039 0.20703-1.1406 0.48828-2.2188 4.543-7.7383 4.9375-10.754 8.3789-3.7188 4.25-8.9219 6.5742-13.027 10.438-8.3008 7.7969-13.059 17.348-17.852 27.367-3.6797 7.6836-5.4531 15.625-7.5703 23.609-0.65625 2.4805-0.5 4.9336-0.011718 7.6172 0.58203 3.2266-0.66797 6.7773-1.125 10.18-3-0.14453-3.8516 3.6836-6.7422 3.5898-0.68359-0.023438-1.3828-1.2656-2.0938-0.12891-0.3125 0.5-0.14453 1.2305 0.3125 1.7695 0.66797 0.79688 1.5273 1.293 2.5312 0.93359 1.6797-0.59766 3.4766-1.082 4.6094-2.625 0.41016-0.55859 0.70703-1.1992 1.2148-2.0781 0.67188 6.9727 0.62109 13.781 2.1289 20.391 1.7344 7.6055 3.332 15.293 6.668 22.41 1.1992 2.5586 0.30859 3.4219-1.9023 3.707-1.7656 0.22266-3.9688 2.2344-5.1562-1.2617-0.39062-1.1484-2.4258-0.71875-3.7305 0-2.3125 1.2656-4.582 2.6602-7.0117 3.6445-1.8203 0.73828-3.4609 0.89453-3.0781-2.2617 0.63672-5.2734-1.1992-6.4023-6.3047-4.4141-4.0039 1.5625-6.957 4.7031-10.551 6.9375-0.19531-0.35156-0.35938-0.51562-0.36328-0.67578-0.22266-6.6602-2.957-8.1484-8.9375-4.8672-2.9805 1.6367-5.2852 4.1484-8.0547 6.1211-0.15625-0.26953-0.32422-0.42188-0.32422-0.57812-0.003907-5.9062-1.0977-6.5586-6.4062-3.793-1.2148 0.63281-2.418 1.293-3.6641 1.8633-1.7266 0.79687-3.4453 1.9375-3.9883-1.3555-0.28516-1.7422-1.9375-2.0781-3.5547-1.3945-1.3594 0.57031-2.6719 1.2656-4 1.8984-0.54688-3.3984-1.5742-4.043-4.9102-3.2383-2.6836 0.64844-4.8555 2.1055-6.7539 4-0.63672 0.63281-1.7812 1.4375-1.0742 2.3477 0.84375 1.0938 1.8945 0.24609 2.7539-0.42969 1.8867-1.4844 3.668-3.1914 6.6016-3.2539-0.14453 2.1797-1.4492 3.6836-2.4062 5.3359-0.52734 0.90234-1.3477 1.8203-0.10547 2.7539 1.0586 0.79688 1.8047-0.054688 2.4922-0.65625 2.5352-2.207 4.8164-4.75 8.043-6.1367 1.3086 4.0977 2.6367 4.7539 6.5586 3.2422 1.2773-0.49219 2.4883-1.1484 3.7227-1.7344 1.125-0.53906 2.2383-1.0859 3.5273-1.7148 0 1.5625 0.015625 2.8672-0.003906 4.1719-0.015625 1.0742-0.054688 2.082 1.1719 2.6836 1.2031 0.58984 2.0664-0.023438 2.8711-0.66797 1.5742-1.2539 3.0234-2.6602 4.5977-3.9141 1.4062-1.1211 2.8906-2.1523 4.375-3.168 1.1523-0.78906 2.6758-1.5742 3.8242-1.082 1.2539 0.53906 0.5 2.2695 0.52734 3.4453 0.027344 1.3945-0.25781 2.8906 1.1797 3.6719 1.4727 0.80078 2.8281 0.0625 4.1562-0.75 3.0703-1.8867 5.4766-4.7266 8.9102-6.0742 0.96484-0.37891 2.2227-1.1328 2.918-0.8125 1.1328 0.51953 0.30078 1.8555 0.19141 2.8555-0.38672 3.5156 2.0039 5.4727 5.543 4.6523 2.6445-0.60938 4.8281-2.0938 7.1055-3.4062 0.82813-0.47656 1.6172-1.3984 2.2734 0.42578 0.47656 1.3086 2.0508 1.3281 3.3359 1.1406 1.2539-0.17969 2.6367-0.24219 3.707-0.82422 3.4766-1.875 4.6523-0.085937 6.3047 2.7617 3.0234 5.2188 6.7695 10.035 12.117 13.273 1.9141 1.1602 2.8242 3.0703 4.082 4.7383 4.4258 5.8633 10.785 9.2695 16.852 13.113 4.7812 3.0391 9.8242 4.9062 15.395 6.0859 4.6406 0.98438 9.0898 3.0781 13.469 5.0195 5.5703 2.4648 11.375 3.0781 17.359 3.0234 1.6016-0.015625 3.1367 0.29297 4.7617 0.89453 1.25 0.46484 4.0195-0.035156 5.3828-0.84375 3.3828-2.0156 7.0508-1.1641 10.512-1.8125 8.2227-1.5352 16.172-3.9766 23.793-7.1289 4.8477-2.0039 8.9922-5.6719 13.402-8.5625 3.5898 5.3086 6.7812 10.875 11.426 15.41 1.1875 1.1602 2.2109 2.3477 0.77734 4.2734-0.88672 1.1914-1.0039 2.9336-1.4766 4.4258-1.7812 5.5508-4.4727 10.797-6.3555 16.223-1.9922 5.7461-5.3359 11.531-3.5156 18.355-5.6602-1.3438-10.875-0.64844-16.055-1.125-17.773-1.6172-35.676 1.2148-53.457-1.293-1.8555-0.26172-4.2578-0.74609-4.5078 2.8945-0.58984-4.043-3.1914-3.2031-5.3711-2.8828-2.5078 0.37109-4.9102 1.2422-7.5195 1.25-1.832 0.003906-2.8555-1.6523-4.8789-1.5195-6.1641 0.41016-12.375-0.14453-18.543 0.69922-2.4414 0.33594-5.1797-0.99219-7.1953-0.33203-2.7383 0.89453-5.3828 0.78516-8.0703 1.0938-7.5781 0.875-15.102-0.19141-22.645-0.48828-0.63672-0.023437-1.3008-0.23047-1.9102-0.13281-8.6758 1.3906-17.375 0.56641-26.066 0.6875-10.348 0.14453-20.641 0.20312-30.934-0.73438-2.043-0.18359-3.3203 1.4375-5.3945 1.3047-5.0742-0.32422-10.102-0.16797-15.094-1.8555-5.4023-1.8203-11.188 0.066407-16.789-0.6875-4.4414-0.59766-8.9141-0.95703-13.406-0.72656-0.73828 0.039062-2.0039-0.078125-2.1289 0.23047-1.2773 3.2188-3.7852 1.5508-5.7305 1.3789-2.5664-0.23047-4.6211 1.8086-7.3203 1.125-1.3555-0.34766-1.6641-0.63281-1.6641-1.9219 0.054687-25.609-0.21094-51.211-0.67578-76.816-0.10547-5.8086-0.027344-11.613-0.042968-17.422-0.089844-26.926-0.125-53.844-0.29297-80.77-0.09375-15.082-0.41016-30.16-0.63672-45.242-0.050781-3.2656-0.20312-6.5234-0.26953-9.7891-0.042969-2.1797-0.35938-4.3789 1.9766-5.8984 1.5352-1.0039-0.40234-2.5195 0.26953-4.0391 17.32 1.6953 34.805 1.0938 52.238 2 5.9688 0.3125 11.949 0.42969 17.926 0.46875 26.164 0.15625 52.336-0.042969 78.496 0.42969 35.777 0.64844 71.559 0.11328 107.32 0.65625 34.602 0.52734 69.199 0.36328 103.8 0.39062 2.7344 0 3.4961 0.48828 3.457 3.3867-0.074219 5.4922-0.63281 10.953-0.78516 16.438-0.054688 2.0117 0.91406 3.1914 2.7891 2.9922 6.0469-0.63672 12.074 0.63672 18.031 0.25391 5.6094-0.36328 11.277-1.0039 16.777-0.30859 10.23 1.3008 20.508 0.3125 30.723 1.3164 4.5352 0.44922 9.0938-0.95312 13.707-0.51953 2.1445 0.19531 2.6953-1.3477 2.6055-3.1289-0.22266-4.6133 0.50391-9.2578-0.57031-13.867-0.34766-1.4844 0.09375-3.1367 0.10547-4.7148 0.011719-1.6367 0.80469-2.1445 2.4023-2.0664 2.4062 0.11328 4.8047 3.0195 4.6328 5.4336-0.20703 2.9453-0.15625 5.9062-0.15625 8.8633-0.011719 39.273 0.39844 78.547-0.17188 117.81-0.33203 22.797 0.71094 45.566 0.35156 68.355-0.16406 10.32-0.32031 20.648-0.50391 30.973-0.039062 2.1289 0.15234 4.1992 1.2891 6.0938 0.41016 0.68359 0.89063 1.293 1.7539 1.0078 0.94531-0.3125 1.2148-1.1406 1.0703-2.0508-1.4219-9.0156 0-18.031-0.011719-27.047-0.023437-18.469 0.19531-36.938-0.28125-55.406-0.19141-7.2812 0.11328-14.578-0.023437-21.855-0.42578-22.477 0.066406-44.953 0.47656-67.418 0.375-20.898 0.46094-41.793 0.62109-62.691 0.015625-2.4258-1.4062-4.1875-1.793-6.3828-0.21875-1.2422-1.7266-1.2305-2.7148-1.1641-17.891 1.2109-35.836 0.53906-53.742 1.3203-9.3867 0.41016-18.801 0.11719-28.195 0.19531-19.641 0.15625-39.285 0.58203-58.922 0.46484-23.91-0.14062-47.82-0.83594-71.734-0.91797-16.207-0.054687-32.43-0.16406-48.621-1.1523-2.9805-0.18359-5.9688-0.33984-8.9492-0.35938-19.227-0.125-38.449-0.46094-57.668-0.23437-31.078 0.35937-62.164 0.15625-93.246 0.15234-6.6992 0-13.418-0.75-20.094-0.85156-6.1992-0.09375-12.449-1.6562-18.664-0.003907-0.95312 0.25391-2.1406 0.26172-2.2578 1.3555-0.12891 1.1602 0.86719 1.4844 1.9609 1.4844 1.9414 0.003906 1.0742 1.5117 1.082 2.3242 0.0625 12.355-0.10547 24.711 0.078124 37.066 0.68359 47.922 0.26953 95.859 0.80469 143.79 0.22266 19.941 0.33984 39.891 0.39844 59.832 0.003906 1.2891 0.21094 2.4766 0.68359 3.668 0.33984 0.87891 0.39062 2.0234 1.5742 2.1172 0.99609 0.085938 1.3594-0.73438 1.5781-1.6406 0.29688-1.2305 1.457-0.75781 2.1445-0.70703 7.6836 0.59766 15.328-1.0195 23.004-0.37109 1.4961 0.12891 2.9531 0.023438 4.3789-0.59766 2.4141-1.0469 4.9219-0.46484 7.4492-0.41016 7.4648 0.17188 14.973-0.12891 22.371 0.83984 7.4609 0.98047 14.707-1.2031 22.16-0.54687 11.672 1.0234 23.418 0.25781 35.129 0.51562 4.7773 0.10547 9.5312 1.0586 14.301 1.125 3.0195 0.042969 5.875-1.5234 9.0938-1.2305 12 1.0859 24.086 1.4766 36.086 1.043 12.059-0.4375 24.102 0.039063 36.137-0.46094 9.0508-0.375 18.109-1.3203 27.137-0.44922 6.7422 0.65625 13.406 0.28125 20.109-0.074218 3.6445-0.19141 7.1523 0.58984 10.723 1.2656 3.0195 0.57813 5.0586 1.7539 7.4531 3.7539 8.1133 6.7812 15.008 14.66 22.121 22.355 3.1211 3.3711 4.1875 8.2422 7.9727 11.207 0.26953 0.066406 0.59375 0.16406 0.36328 0.49219-0.066407 0.10156-0.48828-0.035156-0.73828-0.0625-13.57-1.082-27.156-1.1758-40.758-0.6875-2.75 0.09375-5.5312-0.25391-8.2773-0.58203-5.5703-0.67188-11.047-0.10156-16.535 0.83594-1.7578 0.30078-3.5234 0.30078-5.3359-0.3125-2.5547-0.86328-5.0586 0.17188-7.4219 1.0312-1.6562 0.59766-3.2969 0.92969-4.9766 0.68359-9.0117-1.3281-18.094-0.13281-27.094-0.82812-7.9922-0.61719-15.965-0.50391-23.941-0.49219-6.6992 0.003906-13.395 0.83594-20.098 1.1719-2 0.10156-4.0898 0.82812-5.9375-1.1133-0.99219-1.0469-2.582 0.42578-4.1055 0.36328-5.582-0.22266-11.137-2.4648-16.555-1.5352-7.2227 1.2422-14.391 1.0586-21.605 1.1875-0.32031 0.003907-0.77344-0.11328-0.94141 0.054688-4.1367 4.0938-8.8242 1.5234-13.352 1.1602-1.5742-0.125-3.1914 0.11719-4.7773 0.30078-3.293 0.38672-6.5625 0.42187-9.8672-0.042969-2.2344-0.3125-4.5234-1.0117-6.7188 0.69531-0.75 0.58203-2.3281 0.46875-3.4219 0.21875-6.793-1.5508-13.602-0.027343-20.383-0.29688-8.3008-0.32422-16.676 1.0352-24.824-0.17188-4.957-0.73828-10.129 0.44141-14.633-1.1914-4.8047-1.7422-9.0938-0.6875-13.648-0.16406-3.3047 0.37891-6.5781-0.3125-9.8047-0.82812-1.1875-0.19141-1.2773-2.1172-1.2812-3.5625-0.027344-8.5234 1.1602-17.047 0.26172-25.559-0.39844-3.7734-0.60547-7.4492-0.09375-11.25 0.83594-6.1992-1.0586-12.398-0.46484-18.609 0.64844-6.8164-0.28125-13.621 0.39844-20.48 0.89453-9.043 1.2227-18.176 0.46875-27.305-0.25391-3.1133 0.28516-6.2773 0.375-9.4258 0.29297-10.168-1.1367-20.289-0.80469-30.477 0.085938-2.6094-1.0977-5.2578-1.6367-7.8945-0.18359-0.92578-0.82422-2.0117 1.0078-2.3125 1.1602-0.19141 1.5195-1.2695 1.2422-2.4922-1.3047-5.8672 0.29297-11.711 0.5-17.543 0.14453-4.1367 0.30859-8.3438 0.15234-12.434-0.36328-9.6094 0.28125-19.215-0.18359-28.84-0.28906-6.5312-1.0156-13-1.5195-19.496-0.63281-8.1797-0.80469-16.375-0.19531-24.578 0.30078-4.0977 0.55859-8.2031-0.52734-12.266-0.69922-2.6094 0.61719-5.2852 0.023438-7.8516-1.0117-4.4023 0.87891-8.6562 0.34766-12.996-0.19141-1.5391 0.6875-1.6133 1.9023-1.668 13.57-0.64453 27.137-0.53125 40.699 0.089844 4.5312 0.20703 8.8828 2.1523 13.508 1.832 3.7617-0.25781 7.5039-0.24609 11.289-0.11328 6.0156 0.21875 11.969-0.0625 18.039-1.4688 5.0859-1.1758 10.785 0.15234 16.199 0.53906 2.0703 0.14453 4.0586 1.0586 5.9805-0.69922 0.53125-0.48047 1.9102-0.37109 2.7812-0.125 4.6641 1.332 9.3633 0.73438 13.898-0.22266 3.0859-0.64844 6.5117 0.53125 9.2891-1.6523 0.11719-0.089843 0.42187-0.14062 0.48047-0.074218 3.1406 3.4648 6.9727 1.25 10.527 1.2695 7.9922 0.050781 15.895-0.3125 23.973 0.64453 14.246 1.6914 28.684 1.8594 43.086 0.56641 6.3008-0.56641 12.609-1.0547 19.039-0.89062 9.5547 0.24609 19.152 0.46875 28.727 0.33594 3.2031-0.042969 6.3906 0.11328 9.5703 0.55859 3.5938 0.50391 6.8594-1.8945 10.512-1.2109 1.5586 0.29297 3.4062-0.63281 4.4336 1.5078 0.34766 0.72266 1.5781 0.42969 2.4141 0.41016 15.805-0.46484 31.578 0.91797 47.383 0.68359 2.6562-0.039063 5.3125 0.35156 7.9688 0.59375 1.6367 0.14453 3.2695-0.066406 4.6875-0.72656 6.8086-3.1797 14.086-1.5195 20.789-0.78906 7.9023 0.85547 15.715 0.91797 23.582 1.0117 5.4023 0.0625 10.824-0.72266 16.207 0.375 1.7695 0.35937 2.8047-1.5234 4.75-1.2383 3.5664 0.51953 7.207 0.58984 10.824 0.67578 2.9688 0.074218 5.918 0.078124 8.9102-0.42578 2.3594-0.39844 4.7656 0.054688 7.3008 0.85547 4.1719 1.3164 8.7969 1.4336 13.277 1.1484 3.1875-0.20703 6.3047-0.19531 9.5156 0.20703 3.0742 0.38672 6.0977-1.6523 9.3789-1.1367 1.25 0.19531 2.5156 0.19141 3.7852 0.46094 1.1328 0.24219 3.1211 2.6484 3.5039-0.82812 0.015624-0.13281 1.1641-0.23438 1.7734-0.20313 3.4062 0.17969 6.8086 0.40234 10.215 0.61719 0.70703 0.042969 1.4219-0.15234 1.2891 1.1328-0.42188 4.0195-0.42578 8.0312 1.0938 11.895 0.17969 0.46094 0.20703 1.0117 0.16797 1.5078-0.61719 7.7539-1.1602 15.52-1.957 23.258zm-105.19-21.34c-0.15234-1.4375 0.21875-2.0664 1.8633-2 3.3047 0.12891 6.6211 0.039063 9.9219 0.039063 2.9922 0.003906 5.9883 0.125 8.9648-0.039063 1.8242-0.10156 2.7891 0.25391 2.7891 2.2734-0.003906 5.1172 0.20312 10.238 0.11719 15.355-0.042968 2.8008-2.8555 2.3477-4.3867 2.5938-2.3359 0.37891-4.832 0.44922-7.2734-0.27344-3.332-0.98438-6.7812-0.074219-10.176-0.125-1.9375-0.027344-2.2852-0.65625-2.1562-2.375 0.38672-5.1406 0.87109-10.293 0.33594-15.449zm26.805 7.3516c0-2.5273 0.16406-5.0625-0.0625-7.5664-0.13281-1.4961 0.29297-1.7695 1.6523-1.7812 6.9102-0.035156 13.82-0.089843 20.73-0.28516 1.8555-0.054687 2.582 0.69922 2.5469 2.3008-0.125 5.5312-0.28516 11.059-0.53125 16.586-0.050782 1.0586-0.60938 1.6641-2.0312 1.8242-6.9062 0.77344-13.691-1.0547-20.559-0.66797-1.5977 0.089844-1.6641-0.70703-1.6406-1.8984 0.054687-2.8398 0.015625-5.6797 0.015625-8.5195-0.042969 0.007813-0.082032 0.007813-0.12109 0.007813zm27.871-7.3008c-0.089844-1.5117-0.30859-2.3516 1.6797-2.3203 5.9414 0.089844 11.891 0.035156 17.859 0.035156 0.17188 1.2656-1.5391 1.625-1.082 2.8047 2.0938 0.51953 3.0078-1.6641 4.9844-2.082-0.90234 6.2734 1.4727 12.324 0.75 18.559-0.125 1.0625-0.13281 1.9102-1.5273 1.7344-5.7383-0.72266-11.434 0.86719-17.191 0.30859-2.0156-0.19531-4.0078-0.33984-5.8477-0.80078 1.168-6.1328 0.73047-12.199 0.375-18.238z"/>
  <path d="m429.7 200.17c-0.074219 0.085937-0.14062 0.17188-0.21875 0.25781 0.035156 0.14453 0.023437 0.21094 0.0625 0.42578 0.054687-0.25391 0.10547-0.42578 0.15625-0.68359z"/>
  <path d="m561.7 77.617c-0.011718-0.027344 0.003907-0.039063-0.003906-0.066407-0.023437-0.003906-0.039062 0.003907-0.0625 0z"/>
  <path d="m453.84 217.31c-0.054688 0.011719-0.0625 0.042969-0.11328 0.054688 0.015625 0.011718 0.039063 0.039062 0.054688 0.042968 0.011718-0.046875 0.046875-0.046875 0.058594-0.097656z"/>
  <path d="m485.57 217.78c-3.0586 1.7461-6.1992 3.1484-9.8281 3.2383-1.7305 0.042969-2.3867-0.29297-2.1055-2.2891 0.46484-3.2891-0.91406-4.1562-4.1484-2.9844-1.3711 0.5-2.7344 1.0312-4.1367 1.5625-0.28125-4.3906-1.4609-5.0977-5.4102-3.1406-1.6055 0.79688-3.0312 1.9414-4.582 2.8516-0.44141 0.25781-0.93359 0.75781-1.5859 0.40234-0.27344 1.1367-0.98438 1.4297-1.7812 1.8438 0.042968-1.0703 0.53906-1.6055 1.7266-1.8945-0.15234-0.09375-0.30078-0.17969-0.46875-0.37891 0.90625-1.293 1.9219-2.6094 2.7812-4.0273 0.55859-0.91797 0.85156-2.0664 0.050782-2.9609-0.82422-0.91406-1.8867-0.56641-2.9219-0.14453-3.1484 1.293-5.375 3.7344-7.7617 5.9805-0.85547 0.80469-1.4336 2.1836-3.1875 1.7422 2.8008-6.0273 5.582-11.969 8.3008-17.938 0.73828-1.625 2.5859-3.6641 0.35938-5.0273-2.1953-1.3477-3.3555 1.1875-4.4805 2.5195-6.0938 7.2109-10.438 15.598-15.746 23.34-0.23438 0.33984-0.41406 0.75-0.50391 1.1602-0.27344 1.2617 0.34766 2.2305 1.5352 2.2891 0.94141 0.042969 2.3242-0.28125 2.0156-1.7695-0.16797-0.80078-0.039062-1.3047 0.39063-1.9531 3.2656-4.8984 6.4844-9.8281 9.7148-14.75 0.18359-0.4375 0.24219-0.97266 0.84375-1.0938 0.066407-0.26953 0.16406-0.59375 0.50391-0.37109 0.10547 0.066406-0.027344 0.48828-0.050782 0.74609-0.21094 0.42188-0.42969 0.84375-0.64453 1.2656-0.375 0.85547-0.75 1.7148-1.1367 2.5664-2.082 4.6758-4.2109 9.3281-6.2148 14.039-0.42969 1.0117-0.78516 2.3359 0.56641 3.0977 1.1719 0.65625 2.0547-0.21875 2.7891-0.90234 1.6953-1.5898 3.2422-3.3438 4.9336-4.9375 0.96875-0.91406 1.5352-2.4531 3.3359-2.5664 0.11719 1.5391-1.0352 2.2188-1.4336 3.2383-0.49219 1.2773-2.0234 2.5586-0.50781 3.9375 1.4297 1.3008 2.7617 0.089844 3.9688-0.66797 3.1367-1.9609 5.7695-4.625 9.1211-6.2773 0.38672-0.26172 0.77734-0.51953 1.1641-0.78516 0.26953-0.039062 0.72656-0.17969 0.76563-0.10156 0.20703 0.39062-0.14453 0.42578-0.42578 0.47656-0.28516 0.33203-0.57812 0.66016-0.86328 0.99219-0.19531 0.24609-0.35156 0.55469-0.59766 0.73438-1.2109 0.88672-1.625 2.1016-0.80078 3.2773 0.85547 1.2266 2.1211 0.54687 3.1758 0.039062 1.4297-0.6875 2.8125-1.4766 4.2227-2.1953 1.6055-0.8125 2.9453-2.2891 5.0977-2.2617-1.8477 4.8398-1.25 6.3281 5.0742 6.0469 3.8594-0.17188 7.0938-2.0508 10.047-4.3945 0.59766-0.47656 1.9609-0.71875 1.3281-1.7695-0.68359-1.1406-1.707-0.25-2.4883 0.19531zm-35.266-1.6562c-0.4375 0.3125-0.60547 1.4688-1.2891 0.84375-0.67578-0.62891 0.20703-0.96875 0.76172-1.2148 0.18359-0.17969 0.46094-0.54688 0.54297-0.50781 0.60547 0.26953 0.12109 0.58203-0.015625 0.87891z"/>
  <path d="m321.55 340.57c3.6562 0.53906 7.3789 0.66797 11.078 0.96875 5.2578-0.039062 10.031-1.0078 13.703-5.2188 0.60547-0.69531 1.418-1.457 0.875-1.9414-2.0547-1.8359-3.0469-4.9609-6.5312-5.1523-1.7695-0.09375-3.5-0.87891-5.2812-1.0469-5.7695-0.54297-11.547-0.71875-16.367 3.2383-1.4062 1.1523-3.0508 2.4531-2.4141 4.7773 0.69922 2.5312 2.5156 4.0156 4.9375 4.375z"/>
  <path d="m513.78 186.87c0.53125 0.66797 1.6055 0.65625 2.4062 0.26172 4.418-2.1602 9.1016-1.6953 13.77-1.4453 1.1641 0.0625 2.3359-0.09375 3.5039-0.16406 0.98047-0.054687 1.7031-0.59375 1.7656-1.5195 0.089844-1.3047-0.78906-2.0625-1.9375-2.582-0.89453-0.41016-2.3594-0.85156-2.5312-0.050781-0.50391 2.2773-2.0508 1.5273-3.3477 1.5273-3.6055 0-7.2344-0.39844-10.684 1.1719-0.64453 0.29297-1.5859 0.64844-2.2305-0.42188-1.0938-1.8086-2.8047-1.5117-4.5352-1.1133-3.375 0.78516-6.9648 1.043-10.16 0.10547-9.1914-2.6992-18.418-2.8633-27.797-1.7422-1.0117 0.125-2.4258 0.72266-3.125-0.72266-1.1523-2.375-3.1758-2.2305-5.2031-1.6914-2.4414 0.64453-4.8086 1.5742-7.2539 2.2188-1.9414 0.51562-3.9102 1.5-6.1133 0.56641 0.20703-0.64844 0.36328-1.1484 0.51562-1.6445 0.45312-1.4688 0.74609-2.9922-0.6875-4.0391-1.2539-0.91797-2.625-0.52734-3.875 0.25391-1.6953 1.0586-3.4492 2.0508-5.0742 3.2148-0.98438 0.70703-2.4414 1.7344-1.293 3.0195 0.95703 1.0703 2.5156 0.28516 3.4375-0.55469 1.3086-1.1992 2.4258-2.5977 4.418-3.0977 0.35938 0.95312-0.19141 1.4297-0.35938 2-0.84375 2.8711 0.078125 4.1289 3.1797 4.25 0.94531 0.035156 1.9023-0.16406 2.8516-0.28516 3.6055-0.46875 6.8672-2.1172 10.355-3.0117 1.2031-0.30859 2.0781-0.74609 2.9062 0.73828 0.93359 1.6758 2.6875 1.7656 4.4961 1.5781 9.1211-0.93359 18.176-1.5586 27.156 1.4727 2.8164 0.95312 6.1328 0.82812 9.1836 0.64453 2.2578-0.14063 4.4258-1.2461 6.2617 1.0625z"/>
  <path d="m239.86 271.93c1.7461-0.60938 3.1602-1.7344 4.4688-2.9805 1.9258-1.8242 3.9688-3.5234 6.3633-4.7031 0.77734-0.38672 1.7031-1.3438 2.5977-0.63672 0.78906 0.61719-0.035156 1.5742-0.13281 2.3672-0.46094 3.7695 0.92578 4.9727 4.5312 3.7227 2.3906-0.82812 4.7148-1.8477 7.043-2.832 1.8242-0.76562 2.7891-0.29688 3.0703 1.7148 0.50781 3.6836 1.2539 4.1172 4.9766 3.457 4.1992-0.74609 8.1016-2.375 12.066-3.8359 1.7852-0.65625 3.1094-0.73438 4.1562 1.2422 0.83594 1.5781 2.3867 2.5742 4.2734 2.0508 2.3359-0.64844 4.4531-1.9375 6.875-2.4023 0.85156-0.16406 1.125-0.92578 0.91406-1.7422-0.20312-0.77344-0.86328-0.82422-1.5273-0.8125-1.7539 0.027344-3.3359 0.71875-4.8398 1.4727-1.8047 0.91406-3.125 1.0977-4.0195-1.1523-0.62891-1.5742-2.1094-2-3.7109-1.8555-1.7969 0.16797-3.4844 0.72266-5.1758 1.3672-3.1406 1.2031-6.2422 2.5742-9.6875 2.8672-0.95312 0.085937-1.4609 0.21094-1.7695-1.0195-1.1484-4.5352-2.4531-5.0859-7.0234-3.7461-2.4023 0.69922-4.4531 2.3516-7.1055 2.6094-0.035157-0.44141-0.12891-0.75781-0.066407-1.0352 0.98438-4.2461-0.68359-7.0742-6.5117-4.3789-0.95703 0.44141-1.875 1.0195-2.6992 1.6641-2.3242 1.8203-4.5977 3.7109-6.9219 5.6055-0.64844-0.67188 0.15625-2.6445-1.4727-2.043-1.3672 0.50391-1.7578 2.1523-1.3594 3.5234 0.32812 1.1367 1.2305 2.0195 2.6875 1.5117z"/>
  <path d="m468.26 136.45c0.57812-0.085937 1.082-0.63281 1.6289-0.95703 3.2891-1.9141 6.6641-3.6641 10.445-4.3945 1.0547-0.20312 2.4805-1.0938 3.0469 0.96875 0.74609 2.7148 2.7227 3.0352 4.9883 1.9219 3.543-1.7461 7.1797-2.9961 11.172-3.3945 1.875-0.19141 3.4219-0.81641 4.0938 1.707 0.24609 0.92578 1.3828 1.1211 2.418 1.1797 1.7656 0.10156 3.3047-0.72266 4.957-0.98437 2.9297-0.46875 5.9297-2.0234 8.7578 0.59766 2.2109 2.0547 7.3516 2.1797 9.8164 0.5 1.1133-0.75781 1.9375-1.6875 1.6367-3.1484-0.078125-0.37109-0.29297-0.8125-0.58203-1.0234-0.59375-0.42578-0.89453 0.16797-1.2539 0.51562-2.4648 2.4062-5.7695 2.7031-8.3555 0.68359-1.3906-1.0938-2.8711-1.6133-4.6758-1.6445-2.6055-0.042968-5.0391 0.58203-7.4922 1.2891-1.5234 0.44141-3.2773 1.668-3.4336-1.4844-0.0625-1.2305-1.6289-1.043-2.6875-1.0469-5.9766-0.027344-11.531 1.5273-16.695 4.4961-1.4297-3.707-2.8008-4.375-6.6133-3.6445-4.7031 0.89453-8.7031 3.1992-12.562 5.8359-0.91797 0.62891-3.2656 0.15234-2.5664 1.9141 0.76953 1.9219 2.6133 0.30859 3.957 0.11328z"/>
  <path d="m558.46 224.07c-4.25 0.17188-8.4883 0.30859-12.691 1.1875-6.8164 1.4219-13.5 0.53906-20.07-1.5625-0.98438-0.32031-1.5664-0.40234-1.1875-1.8477 0.77344-2.9336-0.29688-3.7578-3.3867-2.8906-1.4219 0.39844-2.7656 1.0742-4.1953 1.4492-2.6328 0.6875-5.1445 2.6445-8.0703 0.79688-0.55469-0.34766-1.0195 0.21094-1.1992 0.65625-0.23438 0.57812-0.3125 1.2773 0.21094 1.7734 0.80469 0.75781 1.7812 1.0547 2.9102 1.082 3.5039 0.09375 6.5781-1.3438 10.039-2.6875 0.39844 1.5117-0.33203 3.4258 1.6562 3.8867 5.4375 1.2539 10.781 2.7773 16.516 2.7148 5.0391-0.054688 9.8438-1.832 14.887-1.4688 1.4453 0.10156 3.3438-0.59375 3.0352 2.1211-0.074218 0.62891 0.78906 1.1602 1.707 0.88672 2.168-0.65625 2.9961-2.1602 2.8789-4.3008-0.10547-2.0938-1.6641-1.8516-3.0391-1.7969z"/>
  <path d="m209.8 173.73c-2.7031-2.375-4.9453-0.6875-7.2031 0.64844-3.125 1.8594-3.6289 1.7695-4.6328-1.5586-0.64453-2.1328-1.7344-2.8281-3.9883-2.1172-2.7656 0.875-5.2422 2.207-8.0469 4.1602-0.11719-3.1758-1.832-3.8789-4.2617-3.0195-2.0234 0.71875-4.1328-0.42578-5.707-0.039062-2.4883 0.60937-5.1562 1.8711-6.8477 4.2617-0.63281 0.89062-2.1445 1.457-1.1523 2.8281 1.0195 1.4062 2.1055 0.28516 2.9961-0.29297 2.9805-1.9219 6.3516-2.8164 9.6992-3.793 0.57812-0.16797 1.3906-0.25781 1.832 0.023437 0.64844 0.41016 0.027344 1.1094-0.18359 1.5898-0.47656 1.0938-1.1797 2.375-0.015625 3.1367 1.1484 0.75 2.4766 0.042968 3.4648-0.87891 1.8633-1.7422 4.0078-3.0859 6.1836-4.4258 2.1406-1.3164 4.2344-3.0195 4.5703 1.418 0.066406 0.91406 0.89062 1.668 1.7656 2.1289 2.4375 1.2773 4.1758-0.19141 6.0547-1.4297 1.0352-0.68359 1.8594-2.7734 3.6172-0.98438 1.9102 1.9492 3.6836 0.73438 5.4609-0.19141 0.53906-0.28125 1.25-0.70703 0.83594-1.4219-0.17188-0.30078-0.92578-0.28516-1.418-0.39844-1.0625-0.25-2.082 1.1758-3.0234 0.35547z"/>
  <path d="m168.78 134.81c-0.30859 1.1992-1.1523 2.5859 0.15625 3.4492 1.3281 0.875 2.3516-0.36328 3.2891-1.2109 1.7539-1.5859 3.1641-3.6133 5.6016-4.3242 0.91797 1.4102-1.5742 3.0078 0.39062 4.0898 2.0273 1.1133 2.625-1.6367 4.1719-1.8086 0.5 1.4609-0.66797 3.5117 1.625 4.082 2.1055 0.52734 3.3438-0.82422 4.418-2.3867 0.59375-0.86328 1.1914-1.832 2.0312-2.3906 0.76562-0.50781 1.6016-0.76172 0.95312-1.7969-0.62109-0.99609-1.4844-0.875-2.4688-0.36328-1.3672 0.70312-1.918 2.2461-3.3047 3.1992-0.042969-1.7812 0.37891-4.6719-1.0625-4.2617-2.8633 0.80469-5.0898-0.73438-7.6055-0.62109-0.76562 0.035156-1.5 0.72656-2.2578 1.1016-0.62109 0.3125-1.0742 1.0586-1.9609 0.76563-0.6875-0.80469 0.27344-1.5781 0.0625-2.3906-0.47656-1.8047-1.4766-2.8164-3.4648-2.2344-3.0742 0.90625-7.5391 8.4375-6.8945 12.371 2.6992-3.1875 4.082-6.7383 7.1836-9.1992 0.25781 1.6562-0.55469 2.7383-0.86328 3.9297z"/>
  <path d="m174.56 272.7c1.6367-0.48828 3.293-1.4375 4.0938-3.9102-2.8047 0.8125-4.4297 3.1758-7.125 1.9102 1.9727-2.9062 5.293-2.7344 8.0977-3.6797 1.4375-0.48828 1.7461-0.19141 1.8086 1.3398 0.10156 2.4258 1.5742 2.957 3.7695 2.0234 2.1328-0.90625 4.2891-1.7734 6.4922-2.5156 4.1836-1.4062 4.2578-1.3594 4.3047 2.8828 0.015625 1.3594 0.39844 2.4414 1.7344 2.5938 2.7812 0.3125 3.9648-2.0781 5.6094-3.6289 0.41406-0.38672 0.57031-1.1641 0.039062-1.3672-1.7266-0.65625-2.4805 1.0625-3.7031 1.6875-0.078126 0.039063-0.20703-0.015625-0.42969-0.042968-0.039062-0.36328-0.10547-0.75781-0.12891-1.1484-0.21094-4.4961-1.4961-5.4766-5.7852-4.2734-2.0312 0.57031-4.0664 1.1797-6.0039 2-1.6758 0.71094-3.0312 1.3555-3.5-1.2148-0.16406-0.875-0.88672-1.5-1.875-1.3672-5.0586 0.68359-10.188 1.25-13.441 5.9375-0.69922 1.0039-1.3711 2.1953-0.10547 3.0352 2.0039 1.332 4.1875 0.32422 6.1484-0.26172z"/>
  <path d="m221.36 131.68c-0.55859 0.20312-1.0938 0.5-1.7305 0.80078-0.37109-1.1523 0.60938-2.3867-0.67578-3.2305-1.2773-0.83984-2.375 0.56641-3.5859 0.17969 0.39062-2.5742-0.46875-3.5391-2.6992-2.8164-2.4414 0.79688-4.5703 2.1992-6.1055 4.3047-0.96484 1.3281-1.7656 3.1133-0.46875 4.2734 1.3789 1.2383 3.3438 2.2305 5.3867 0.67578 1.0859-0.82422 2.2578-1.5391 3.3867-2.3086 0.28516-0.16797 0.42578-0.89453 0.875-0.375 0.25391 0.29688 0.10547 0.80078-0.37109 1.0195 0.33984 2.2188 1.4883 3 3.5039 1.7188 1.2383-0.78906 2.3281-1.8086 3.4883-2.7266 0.46094-0.36328 0.74609-0.89062 0.4375-1.3594-0.3125-0.48047-0.95703-0.33203-1.4414-0.15625z"/>
  <path d="m209.51 271.06c2.5352-0.96484 4.4531-2.8516 6.707-4.2266 0.25391-0.078125 0.5-0.15234 0.75-0.23047v0.85156c-0.41016 1.0742-0.89453 2.1328-1.2109 3.2422-0.59766 2.1406 0.62891 3.5547 2.582 2.6758 5.7852-2.5977 10.438-7.168 16.414-9.5039 0.47656-0.18359 0.54688-0.90234 0.23047-1.3984-0.25391-0.39844-0.64453-0.39844-1.0977-0.17188-2.7422 1.3281-5.8984 1.668-8.4375 3.5273-1.9414 1.4219-4.0039 2.6875-6.1641 4.1172-0.09375-0.57812-0.25391-0.90234-0.17969-1.1602 0.46094-1.5781 0.6875-3.3594-0.60547-4.418-1.3984-1.1406-2.7109 0.51562-4.0586 0.95703-1.8828 0.61719-3.3984 2.9688-5.2461 2.3477-1.5469-0.51953-1.6523 0.35156-2.0898 0.90234-0.52734 0.66797-0.67578 1.5859 0.0625 2.3086 0.71484 0.68359 1.4766 0.50781 2.3438 0.17969z"/>
  <path d="m386.82 265.61c0.66797-0.17969 1.2891-0.51953 2.0898-0.85547 0.17188 1.457-1.1719 3.1797 0.69922 4.0469 1.6523 0.76562 2.75-0.49219 3.8867-1.418 0.48828-0.39844 1.0117-0.75781 1.5352-1.1094 0.64453-0.42969 1.2695-0.89062 0.82422-1.7695-0.40234-0.79687-1.1523-0.98437-1.8867-0.57812-1.418 0.77734-1.7266 0.23047-2.0664-1.1367-0.26172-1.0625-1.2656-1.4961-2.5703-0.97266-1.5586 0.62891-3.3672 0.94531-3.9805 2.6992-0.22656 0.62891 0.55078 1.3398 1.4688 1.0938z"/>
  <path d="m249.56 125.21c-1.9805 1.1758-3.7422 2.8242-5.8398 3.6562-1.3047 0.51953-2.5039 0.68359-2.793 2.2188-0.10547 0.56641 0.19141 0.99609 0.71094 1.2695 1.625 0.875 2.4805-0.65625 3.6328-1.1758 0.75781-0.33984 1.3789-0.96875 2.1055-1.3906 0.35156-0.20312 0.53125-0.60547 1.2617-0.29687 2.2344 0.93359 3.707-0.20313 3.793-3.1016-0.082032-1.6328-1.1055-2.2266-2.8711-1.1797z"/>
  <path d="m233.71 169.61c-2.4648 1.418-4.8789 2.9219-7.3516 4.3125-0.81641 0.46094-1.1016 1.0469-0.6875 1.7695 0.38672 0.67188 1.1523 0.46094 1.7266 0.18359 2.5586-1.2305 5.1445-2.4141 7.3359-4.2734 0.39062-0.33594 0.91406-0.52734 1.0859-0.62109-0.30469-2.0039-1.1719-1.9102-2.1094-1.3711z"/>
  <path d="m234.55 131.18c-1.832 1.4062-3.6055 2.8789-5.3711 4.3633-0.46094 0.38672-0.44922 0.91797 0.011718 1.3594 0.55859 0.53906 1.2383 0.42969 1.7266 0.023437 1.6914-1.4102 3.3203-2.8945 4.957-4.375 0.21875-0.19531 0.3125-0.51953 0.45312-0.76562-0.39453-0.89844-1.0547-1.1602-1.7773-0.60547z"/>
  <path d="m494.12 90.961c2.4258 0.17187 4.8945 0.23047 7.293-0.074219 1.2617-0.16406 2.832-1.043 2.6758-2.6562-0.17969-1.8867-1.8945-1.5977-3.2656-1.5859-0.74609 0.003907-1.4961 0-2.2383 0-0.003906 0.035157-0.003906 0.066407-0.011719 0.10156-1.0586-0.10547-2.1172-0.27344-3.1758-0.30859-1.5664-0.054688-2.3477 1.082-2.6055 2.3008-0.16406 0.83984 0.29688 2.1484 1.3281 2.2227z"/>
  <path d="m548.94 93.871c1.0117 0.72266 1.7539-1.3047 2.5039-2.1992 3.9805-4.7539 3.9766-4.7773 8.457-0.35156 0.70703 0.69531 1.3789 1.5781 2.3242 0.57813 0.83594-0.88672 0.6875-1.9141-0.30078-2.7266-1.1406-0.94141-2.25-1.9258-3.4492-2.7891-1.2617-0.91406-1.4766-1.7031-0.32031-2.9531 1.4766-1.6016 3.0078-3.2656 3.0469-5.6523-1.0195 0.38672-2.3789-0.54688-3.1484 0.88672-1.9766 3.6953-4.4844 4.625-7.7383 1.3555-0.13281-0.14062-0.38672-0.28125-0.55859-0.25391-0.39844 0.054687-0.89062 0.11328-1.1328 0.36328-0.3125 0.33203-0.11328 0.76562 0.26172 1.0625 3.4492 2.7266 1.4609 5.6016 0.17188 8.4062-0.69141 1.4766-1.3516 3.4023-0.11719 4.2734z"/>
  <path d="m561.22 77.695c0 0.035157-0.023437 0.050782-0.023437 0.078126 0.027343-0.011719 0.0625 0 0.089843-0.015626z"/>
  <path d="m519.7 91.004c1.9375-0.44922 2.6367 0.375 3.125 2.0156 0.28516 0.96875 1.25 0.90625 2.1328 0.82422 1.7969-0.17188 3.6055-0.46484 5.4023-0.41016 2.3516 0.078125 2.9023-1.3984 3.1211-3.1602 0.11328-0.91797-0.14453-1.8828-0.23438-2.8242 0.042969-0.003907 0.085938-0.003907 0.12891-0.011719-0.074218-1.4727-0.13281-2.9453-0.23438-4.418-0.0625-0.89453-0.46875-1.9922-1.3086-1.9141-1.7031 0.15234-2.1055-0.76562-2.5156-2.0156-0.23047-0.71875-0.80469-1.1406-1.6289-1.3281-4.8672-1.1094-7.6289 0.48047-8.6055 5.2422-0.42188 2.0547-0.46094 4.1836-0.66016 6.2773-0.10547 0.95703 0.3125 1.9414 1.2773 1.7227zm9.5547-1.8008c0.25391-1.6016 0.5-3.207 0.74609-4.8086 0.15625 0.027344 0.3125 0.054688 0.46875 0.078125 0 1.5508 0.003906 3.1016-0.003906 4.6484-0.003906 0.57031 0.21875 1.3984-0.75 1.3164-0.71094-0.066406-0.54297-0.73047-0.46094-1.2344zm-2.4258-3.3594c-0.20703 0.87891 0.11719 1.875-0.90234 3.0469-0.24219-1.3789-0.48047-2.2578-0.52734-3.1406-0.027344-0.58984-0.52734-1.6406 0.75-1.5625 1.1562 0.058594 0.82422 1.0273 0.67969 1.6562zm-1.2422-5.5117c0.75781-0.09375 1.2266 0.18359 1.3086 0.96875 0.074218 0.69922-0.46094 1.1016-0.94141 0.89062-2.7227-1.1992-2.1523 1.043-2.5312 2.2852-0.027343 0.09375 0.023438 0.22266-0.015625 0.3125-0.46875 1.0312 0.42969 3.1484-1.2305 3.0078-1.6289-0.13281-0.23047-2.1055-0.62109-2.9727-1.3867-4.1211 1.4648-4.168 4.0312-4.4922z"/>
  <use x="70" y="644" xlink:href="#u"/>
  <use x="90.550781" y="644" xlink:href="#b"/>
  <use x="104.359375" y="644" xlink:href="#a"/>
  <use x="123.347656" y="644" xlink:href="#f"/>
  <use x="142.242188" y="644" xlink:href="#c"/>
  <use x="155.628906" y="644" xlink:href="#a"/>
  <use x="174.617188" y="644" xlink:href="#i"/>
  <use x="204.410156" y="644" xlink:href="#h"/>
  <use x="224.453125" y="644" xlink:href="#e"/>
  <use x="252.453125" y="644" xlink:href="#g"/>
  <use x="274.121094" y="644" xlink:href="#f"/>
  <use x="293.015625" y="644" xlink:href="#t"/>
  <use x="302.613281" y="644" xlink:href="#a"/>
  <use x="321.601562" y="644" xlink:href="#b"/>
  <use x="335.414062" y="644" xlink:href="#s"/>
  <use x="345.007812" y="644" xlink:href="#e"/>
  <use x="70" y="672" xlink:href="#r"/>
  <use x="82.183594" y="672" xlink:href="#b"/>
  <use x="95.992188" y="672" xlink:href="#d"/>
  <use x="115.226562" y="672" xlink:href="#q"/>
  <use x="154.152344" y="672" xlink:href="#c"/>
  <use x="167.535156" y="672" xlink:href="#p"/>
  <use x="187.46875" y="672" xlink:href="#a"/>
  <use x="216.207031" y="672" xlink:href="#o"/>
  <use x="239.640625" y="672" xlink:href="#d"/>
  <use x="258.878906" y="672" xlink:href="#n"/>
  <use x="278.8125" y="672" xlink:href="#m"/>
  <use x="308.492188" y="672" xlink:href="#l"/>
  <use x="329.015625" y="672" xlink:href="#b"/>
  <use x="342.820312" y="672" xlink:href="#d"/>
  <use x="362.058594" y="672" xlink:href="#k"/>
  <use x="371.65625" y="672" xlink:href="#a"/>
  <use x="390.648438" y="672" xlink:href="#j"/>
  <use x="407.242188" y="672" xlink:href="#c"/>
 </g>
</svg>
